<svg width="91" height="90" viewBox="0 0 91 90" fill="none" xmlns="http://www.w3.org/2000/svg">
<g clip-path="url(#clip0)">
<path d="M88.0057 4.74609H2.98941C1.61674 4.74609 0.5 5.86266 0.5 7.23498V82.765C0.5 84.1373 1.61674 85.2539 2.98941 85.2539H42.4581C43.1862 85.2539 43.7765 84.6638 43.7765 83.9355C43.7765 83.2073 43.1862 82.6172 42.4581 82.6172H3.13672V25.8729L42.4581 25.8681C43.1862 25.868 43.7765 25.2779 43.7763 24.5496C43.7761 23.8213 43.1858 23.2312 42.4578 23.2314L3.13672 23.2362V7.38281H87.8633V23.2362L48.5422 23.2314C47.8142 23.2314 47.2239 23.8215 47.2239 24.5496C47.2239 25.2779 47.814 25.868 48.5421 25.8681L87.8633 25.8729V82.6172H48.6765C47.9485 82.6172 47.3582 83.2073 47.3582 83.9355C47.3582 84.6638 47.9485 85.2539 48.6765 85.2539H88.0057C89.381 85.2539 90.5 84.1373 90.5 82.765V7.23498C90.5 5.86266 89.381 4.74609 88.0057 4.74609Z" fill="url(#paint0_linear)"/>
<path d="M44.7449 66.9928C47.3375 66.9928 49.4465 64.8842 49.4465 62.2923C49.4465 60.1433 47.9963 58.3281 46.0234 57.7698V48.5174C47.976 47.9461 49.4068 46.1406 49.4068 44.0061C49.4068 41.4114 47.2976 39.3004 44.705 39.3004C43.4768 39.3004 42.3576 39.7747 41.5193 40.5492L33.5716 36.1279C33.6264 35.8414 33.6561 35.5463 33.6561 35.2441C33.6561 32.6522 31.5469 30.5435 28.9545 30.5435C26.3593 30.5435 24.2478 32.6522 24.2478 35.2441C24.2478 35.547 24.2777 35.843 24.3328 36.1302L16.3868 40.5483C15.5477 39.7743 14.4278 39.3006 13.1989 39.3006C10.6063 39.3006 8.49707 41.4116 8.49707 44.0063C8.49707 46.1406 9.92775 47.9461 11.8805 48.5175V57.794C9.95078 58.3797 8.54207 60.1745 8.54207 62.2924C8.54207 64.8843 10.6513 66.993 13.2437 66.993C14.4367 66.993 15.5266 66.5457 16.3564 65.8111L24.3328 70.2476C24.2777 70.5348 24.2478 70.8308 24.2478 71.1339C24.2478 73.7286 26.3593 75.8396 28.9545 75.8396C31.5471 75.8396 33.6561 73.7286 33.6561 71.1339C33.6561 70.8308 33.6262 70.5347 33.571 70.2473L41.5979 65.7814C42.4318 66.5339 43.5357 66.9928 44.7449 66.9928ZM46.8098 62.2923C46.8098 63.4303 45.8835 64.3561 44.7449 64.3561C43.6064 64.3561 42.6798 63.4301 42.6798 62.2923C42.6798 61.1544 43.6062 60.2284 44.7449 60.2284C45.8836 60.2284 46.8098 61.1543 46.8098 62.2923ZM44.705 41.9373C45.8437 41.9373 46.7701 42.8655 46.7701 44.0063C46.7701 45.1445 45.8437 46.0701 44.705 46.0701C43.5663 46.0701 42.6401 45.1443 42.6401 44.0063C42.6399 42.8655 43.5663 41.9373 44.705 41.9373ZM28.9543 33.1804C30.093 33.1804 31.0192 34.1065 31.0192 35.2443C31.0192 36.3821 30.0928 37.3081 28.9543 37.3081C27.813 37.3081 26.8843 36.3821 26.8843 35.2443C26.8843 34.1065 27.813 33.1804 28.9543 33.1804ZM28.9543 39.9449C30.2964 39.9449 31.5079 39.3788 32.3653 38.4743L40.1579 42.8092C40.0574 43.1915 40.0032 43.5927 40.0032 44.0063C40.0032 44.4183 40.057 44.8179 40.157 45.199L32.3634 49.5362C31.5061 48.6327 30.2953 48.0677 28.9543 48.0677C27.6117 48.0677 26.3993 48.633 25.5412 49.5367L17.7509 45.2012C17.8514 44.8194 17.9054 44.4192 17.9054 44.0063C17.9054 43.592 17.8511 43.1903 17.75 42.8073L25.5408 38.4755C26.3992 39.3794 27.6115 39.9449 28.9543 39.9449ZM28.9543 54.8321C27.813 54.8321 26.8843 53.9061 26.8843 52.7683C26.8843 51.6304 27.813 50.7044 28.9543 50.7044C30.093 50.7044 31.0192 51.6304 31.0192 52.7683C31.0192 53.9061 30.093 54.8321 28.9543 54.8321ZM11.1338 44.0063C11.1338 42.8656 12.0602 41.9373 13.1989 41.9373C14.3402 41.9373 15.2687 42.8655 15.2687 44.0063C15.2687 44.4034 15.1537 44.7734 14.9579 45.0886C14.9475 45.1053 14.9365 45.1211 14.9268 45.1385C14.9256 45.1406 14.9249 45.1427 14.9236 45.1448C14.5526 45.7019 13.9182 46.0703 13.1987 46.0703C12.0602 46.0701 11.1338 45.1443 11.1338 44.0063ZM13.2437 64.3561C12.105 64.3561 11.1788 63.4301 11.1788 62.2923C11.1788 61.1544 12.1052 60.2284 13.2437 60.2284C14.3822 60.2284 15.3088 61.1544 15.3088 62.2923C15.3088 63.4301 14.3822 64.3561 13.2437 64.3561ZM17.7653 63.5774C17.8817 63.1687 17.9453 62.7379 17.9453 62.2923C17.9453 60.1416 16.4927 58.3251 14.5172 57.7684V48.5179C15.223 48.3119 15.8607 47.9454 16.3874 47.46L24.3328 51.8818C24.2777 52.169 24.2478 52.4652 24.2478 52.7683C24.2478 54.9031 25.6807 56.7089 27.6361 57.2799V66.6225C26.8265 66.8589 26.107 67.3068 25.5412 67.9025L17.7653 63.5774ZM28.9543 73.2027C27.813 73.2027 26.8843 72.2745 26.8843 71.1337C26.8843 69.9955 27.813 69.0699 28.9543 69.0699C30.093 69.0699 31.0192 69.9957 31.0192 71.1337C31.0194 72.2745 30.093 73.2027 28.9543 73.2027ZM30.2727 66.6226V57.2793C32.2253 56.7081 33.6559 54.9026 33.6559 52.7681C33.6559 52.465 33.6261 52.1689 33.5709 51.8816L41.5185 47.4588C42.0446 47.9445 42.6814 48.3112 43.3865 48.5174V57.7924C41.4543 58.3766 40.0429 60.1725 40.0429 62.2923C40.0429 62.7226 40.1022 63.1392 40.2112 63.5356L32.3634 67.9018C31.7988 67.3068 31.0807 66.8591 30.2727 66.6226Z" fill="url(#paint1_linear)"/>
<path d="M56.7733 43.7454H80.337C81.5283 43.7454 82.4975 42.7787 82.4975 41.5902V36.5045C82.4975 35.3134 81.5283 34.3443 80.337 34.3443H56.7733C55.5849 34.3443 54.6179 35.3134 54.6179 36.5045V41.5902C54.6179 42.7787 55.5849 43.7454 56.7733 43.7454ZM57.2546 36.9812H79.8608V41.1087H57.2546V36.9812Z" fill="url(#paint2_linear)"/>
<path d="M54.6179 55.732C54.6179 56.923 55.5849 57.8921 56.7733 57.8921H72.0955C73.2868 57.8921 74.256 56.923 74.256 55.732V50.6461C74.256 49.4576 73.2868 48.4908 72.0955 48.4908H56.7733C55.5849 48.4908 54.6179 49.4576 54.6179 50.6461V55.732ZM57.2546 51.1275H71.6191V55.2552H57.2546V51.1275Z" fill="url(#paint3_linear)"/>
<path d="M54.6179 69.8736C54.6179 71.0646 55.5849 72.0337 56.7733 72.0337H75.6333C76.8245 72.0337 77.7938 71.0646 77.7938 69.8736V64.7877C77.7938 63.5992 76.8245 62.6324 75.6333 62.6324H56.7733C55.5849 62.6324 54.6179 63.5992 54.6179 64.7877V69.8736ZM57.2546 65.2693H75.1569V69.397H57.2546V65.2693Z" fill="url(#paint4_linear)"/>
<path d="M52.8847 15.0008C52.8847 14.2726 52.2944 13.6825 51.5663 13.6825H13.2935C12.5654 13.6825 11.9751 14.2726 11.9751 15.0008C11.9751 15.7291 12.5654 16.3192 13.2935 16.3192H51.5662C52.2944 16.3192 52.8847 15.7289 52.8847 15.0008Z" fill="url(#paint5_linear)"/>
<path d="M62.5339 15.9381L62.5388 15.9332C63.0537 15.4182 63.0512 14.586 62.5363 14.0711C62.0215 13.5561 61.1842 13.5586 60.6694 14.0736C60.1545 14.5886 60.1545 15.4233 60.6694 15.9381C60.9267 16.1955 61.2642 16.3241 61.6015 16.3241C61.9388 16.3241 62.2765 16.1955 62.5339 15.9381Z" fill="url(#paint6_linear)"/>
<path d="M69.1764 15.9381L69.1813 15.9332C69.6962 15.4182 69.6937 14.586 69.1789 14.0711C68.664 13.5561 67.8268 13.5586 67.3119 14.0736C66.7971 14.5886 66.7971 15.4233 67.3119 15.9381C67.5693 16.1955 67.9068 16.3241 68.2441 16.3241C68.5814 16.3241 68.9191 16.1955 69.1764 15.9381Z" fill="url(#paint7_linear)"/>
<path d="M75.8236 15.9381L75.8286 15.9332C76.3434 15.4182 76.341 14.586 75.8261 14.0711C75.3112 13.5561 74.474 13.5586 73.9591 14.0736C73.4443 14.5886 73.4443 15.4233 73.9591 15.9381C74.2165 16.1955 74.554 16.3241 74.8913 16.3241C75.2286 16.3241 75.5663 16.1955 75.8236 15.9381Z" fill="url(#paint8_linear)"/>
</g>
<defs>
<linearGradient id="paint0_linear" x1="0.499996" y1="68.7418" x2="80.6042" y2="10.2136" gradientUnits="userSpaceOnUse">
<stop stop-color="#234DAE"/>
<stop offset="1" stop-color="#347BCE"/>
</linearGradient>
<linearGradient id="paint1_linear" x1="8.49707" y1="66.5494" x2="49.9343" y2="42.0653" gradientUnits="userSpaceOnUse">
<stop stop-color="#234DAE"/>
<stop offset="1" stop-color="#347BCE"/>
</linearGradient>
<linearGradient id="paint2_linear" x1="54.6179" y1="41.8173" x2="62.6193" y2="26.3086" gradientUnits="userSpaceOnUse">
<stop stop-color="#234DAE"/>
<stop offset="1" stop-color="#347BCE"/>
</linearGradient>
<linearGradient id="paint3_linear" x1="54.6179" y1="55.9639" x2="63.9791" y2="43.1834" gradientUnits="userSpaceOnUse">
<stop stop-color="#234DAE"/>
<stop offset="1" stop-color="#347BCE"/>
</linearGradient>
<linearGradient id="paint4_linear" x1="54.6179" y1="70.1055" x2="63.4165" y2="55.9292" gradientUnits="userSpaceOnUse">
<stop stop-color="#234DAE"/>
<stop offset="1" stop-color="#347BCE"/>
</linearGradient>
<linearGradient id="paint5_linear" x1="11.9751" y1="15.7784" x2="12.513" y2="10.3239" gradientUnits="userSpaceOnUse">
<stop stop-color="#234DAE"/>
<stop offset="1" stop-color="#347BCE"/>
</linearGradient>
<linearGradient id="paint6_linear" x1="60.2832" y1="15.7831" x2="62.8076" y2="14.1316" gradientUnits="userSpaceOnUse">
<stop stop-color="#234DAE"/>
<stop offset="1" stop-color="#347BCE"/>
</linearGradient>
<linearGradient id="paint7_linear" x1="66.9258" y1="15.7831" x2="69.4502" y2="14.1316" gradientUnits="userSpaceOnUse">
<stop stop-color="#234DAE"/>
<stop offset="1" stop-color="#347BCE"/>
</linearGradient>
<linearGradient id="paint8_linear" x1="73.573" y1="15.7831" x2="76.0974" y2="14.1316" gradientUnits="userSpaceOnUse">
<stop stop-color="#234DAE"/>
<stop offset="1" stop-color="#347BCE"/>
</linearGradient>
<clipPath id="clip0">
<rect width="90" height="90" fill="white" transform="translate(0.5)"/>
</clipPath>
</defs>
</svg>
