<svg width="91" height="90" viewBox="0 0 91 90" fill="none" xmlns="http://www.w3.org/2000/svg">
<g clip-path="url(#clip0)">
<path d="M82.9999 13.3381H53.6497C52.6717 10.5495 50.3829 8.4218 47.5304 7.6496C44.678 6.87739 41.6284 7.55995 39.3772 9.47421L31.3203 1.41709C29.5654 -0.253882 26.809 -0.25687 25.0507 1.41059C23.4245 3.00545 23.2929 5.58083 24.748 7.33319C25.3769 9.2754 25.4557 11.3538 24.9754 13.3381H8.00006C3.85988 13.3428 0.504922 16.6979 0.5 20.8379V70.3379C0.504922 74.4781 3.85988 77.8331 8.00006 77.838H32V80.8381H21.5001C20.6716 80.8381 20.0001 81.5095 20.0001 82.338V88.3379C20.0001 89.1664 20.6716 89.8379 21.5001 89.8379H69.5001C70.3286 89.8379 71.0001 89.1664 71.0001 88.3379V82.338C71.0001 81.5095 70.3284 80.8381 69.5001 80.8381H59V77.838H82.9999C87.1401 77.8331 90.4951 74.4781 90.5 70.3379V20.8379C90.4951 16.6979 87.1401 13.3428 82.9999 13.3381ZM47.2736 10.7122C49.2241 11.4356 50.6606 13.1182 51.0691 15.1579H51.0693C51.1498 15.546 51.1886 15.9415 51.1849 16.3379C51.1876 17.6735 50.7414 18.9713 49.9181 20.023L41.4971 11.608C43.137 10.3278 45.3232 9.98889 47.2736 10.7122ZM27.1646 3.53895C27.4318 3.26807 27.795 3.11321 28.1754 3.10829C28.56 3.11127 28.9279 3.26579 29.1993 3.53825L38.1875 12.5265C38.2241 12.5731 38.2634 12.6173 38.3055 12.659L58.2691 32.6095C58.5437 32.8802 58.6975 33.25 58.6961 33.6357C58.6963 34.0119 58.5449 34.3722 58.2763 34.6354L58.2617 34.6499C57.9986 34.9182 57.6386 35.0695 57.2628 35.0697H57.2577C56.8737 35.0695 56.5058 34.9159 56.2358 34.6427L27.1653 5.57204C26.8914 5.30063 26.7376 4.93079 26.7383 4.54512C26.7394 4.16614 26.893 3.8035 27.1646 3.53895ZM28.2866 10.9358L30.3457 12.9949L50.8673 33.5179C41.6704 33.7754 30.6597 42.2544 27.2221 45.0926L16.7113 34.5817C19.5494 31.1442 28.0284 20.1332 28.2866 10.9358ZM7.47201 46.1125C6.88754 45.5259 6.88754 44.5772 7.47201 43.9906L14.6754 36.788L25.0157 47.1283L18.1041 54.0404L17.813 54.3317C17.2265 54.9161 16.2778 54.9161 15.6912 54.3317L7.47201 46.1125ZM12.5542 55.437L10.5658 57.4254C9.39295 58.5943 7.49557 58.5943 6.32293 57.4254L4.37914 55.4807C3.81646 54.9181 3.50023 54.155 3.50023 53.3592C3.50023 52.5635 3.81646 51.8004 4.37914 51.2377L6.36687 49.2493L12.5542 55.437ZM24.5792 51.8073L27.1368 49.2495L37.4779 59.5905L34.5907 62.4777L21.2958 55.0912L24.5792 51.8073ZM3.50006 20.8379C3.5027 18.3538 5.51592 16.3406 8.00006 16.3379H24.1587C21.8091 23.1609 16.3708 30.4685 13.5718 33.6492L5.35086 41.8695C4.02705 43.2005 3.66969 45.2141 4.4549 46.9193L3.50006 47.8743V20.8379ZM3.50006 58.8445L4.20178 59.5464C6.5467 61.8853 10.342 61.8853 12.6869 59.5464L14.8847 57.3486C16.1702 57.9584 17.6726 57.9016 18.9085 57.1967L29.0627 62.8379H3.50006V58.8445ZM68 83.8379V86.838H23V83.8379H68ZM35.0001 80.8381V77.838H56.0001V80.8381H35.0001ZM87.4999 70.3379C87.4973 72.8221 85.4841 74.8353 82.9999 74.8379H8.00006C5.51592 74.8353 3.5027 72.8221 3.50006 70.3379V65.8379H87.5001V70.3379H87.4999ZM87.4999 62.8381H38.4724L40.6595 60.651C40.9409 60.3697 41.099 59.9883 41.099 59.5905C41.099 59.1927 40.9409 58.8113 40.6595 58.53L29.3499 47.2204C34.877 42.6752 47.2188 34.3318 54.4675 37.0546C55.2516 37.7066 56.2379 38.0654 57.2577 38.0698H57.2722C59.0663 38.0641 60.6803 36.9789 61.3627 35.3197C62.0449 33.6605 61.6612 31.7538 60.3903 30.4876L52.0424 22.1457C53.426 20.5272 54.1859 18.4674 54.185 16.3379H82.9999C85.4841 16.3406 87.4973 18.3538 87.4999 20.8379V62.8381Z" fill="url(#paint0_linear)"/>
<path d="M57.5002 47.8379H71.0002C71.8287 47.8379 72.5001 47.1664 72.5001 46.338C72.5001 45.5095 71.8287 44.838 71.0002 44.838H57.5002C56.6717 44.838 56.0002 45.5097 56.0002 46.338C56.0002 47.1663 56.6717 47.8379 57.5002 47.8379Z" fill="url(#paint1_linear)"/>
<path d="M67.9997 41.838H72.4997C73.3282 41.838 73.9996 41.1665 73.9996 40.338C73.9996 39.5096 73.3282 38.8381 72.4997 38.8381H67.9997C67.1712 38.8381 66.4998 39.5096 66.4998 40.338C66.4998 41.1665 67.1712 41.838 67.9997 41.838Z" fill="url(#paint2_linear)"/>
<path d="M82.9999 38.8379H78.4999C77.6715 38.8379 77 39.5094 77 40.3378C77 41.1663 77.6715 41.8378 78.4999 41.8378H82.9999C83.8284 41.8378 84.4999 41.1663 84.4999 40.3378C84.4999 39.5094 83.8284 38.8379 82.9999 38.8379Z" fill="url(#paint3_linear)"/>
<path d="M82.9996 44.838H76.9997C76.1712 44.838 75.4998 45.5097 75.4998 46.338C75.4998 47.1663 76.1712 47.8379 76.9997 47.8379H82.9996C83.8281 47.8379 84.4996 47.1664 84.4996 46.338C84.4996 45.5095 83.8281 44.838 82.9996 44.838Z" fill="url(#paint4_linear)"/>
<path d="M80.0004 50.838H60.5002C58.0151 50.838 56.0002 52.8526 56.0002 55.338C56.0002 57.8234 58.0151 59.838 60.5002 59.838H80.0002C82.4854 59.838 84.5002 57.8232 84.5002 55.338C84.5002 52.8528 82.4856 50.838 80.0004 50.838ZM80.0004 56.838H60.5002C59.6718 56.838 59.0003 56.1665 59.0003 55.338C59.0003 54.5096 59.672 53.8381 60.5002 53.8381H80.0002C80.8286 53.8381 81.5001 54.5096 81.5001 55.338C81.5001 56.1665 80.8286 56.838 80.0004 56.838Z" fill="url(#paint5_linear)"/>
</g>
<defs>
<linearGradient id="paint0_linear" x1="0.499996" y1="71.4454" x2="86.4053" y2="15.0957" gradientUnits="userSpaceOnUse">
<stop stop-color="#234DAE"/>
<stop offset="1" stop-color="#347BCE"/>
</linearGradient>
<linearGradient id="paint1_linear" x1="56.0002" y1="47.2226" x2="57.6181" y2="41.4066" gradientUnits="userSpaceOnUse">
<stop stop-color="#234DAE"/>
<stop offset="1" stop-color="#347BCE"/>
</linearGradient>
<linearGradient id="paint2_linear" x1="66.4998" y1="41.2227" x2="69.2896" y2="36.664" gradientUnits="userSpaceOnUse">
<stop stop-color="#234DAE"/>
<stop offset="1" stop-color="#347BCE"/>
</linearGradient>
<linearGradient id="paint3_linear" x1="77" y1="41.2225" x2="79.7899" y2="36.6638" gradientUnits="userSpaceOnUse">
<stop stop-color="#234DAE"/>
<stop offset="1" stop-color="#347BCE"/>
</linearGradient>
<linearGradient id="paint4_linear" x1="75.4998" y1="47.2226" x2="78.0358" y2="42.2499" gradientUnits="userSpaceOnUse">
<stop stop-color="#234DAE"/>
<stop offset="1" stop-color="#347BCE"/>
</linearGradient>
<linearGradient id="paint5_linear" x1="56.0002" y1="57.9921" x2="63.3641" y2="42.7511" gradientUnits="userSpaceOnUse">
<stop stop-color="#234DAE"/>
<stop offset="1" stop-color="#347BCE"/>
</linearGradient>
<clipPath id="clip0">
<rect width="90" height="90" fill="white" transform="translate(0.5)"/>
</clipPath>
</defs>
</svg>
