<svg width="90" height="90" viewBox="0 0 90 90" fill="none" xmlns="http://www.w3.org/2000/svg">
<g clip-path="url(#clip0)">
<path d="M66.1117 52.1526C60.3187 52.1526 55.1344 55.8549 53.2111 61.3651C52.6982 62.835 52.4382 64.3767 52.4382 65.948C52.4382 73.5548 58.5723 79.7432 66.1117 79.7432C73.6511 79.7432 79.785 73.5546 79.785 65.948C79.785 58.3413 73.6513 52.1526 66.1117 52.1526ZM66.1117 77.083C60.026 77.083 55.0749 72.0878 55.0749 65.948C55.0749 64.6785 55.2847 63.4339 55.6983 62.2488C57.2504 57.8011 61.4354 54.8128 66.1117 54.8128C72.1973 54.8128 77.1483 59.808 77.1483 65.948C77.1483 72.0878 72.1973 77.083 66.1117 77.083Z" fill="url(#paint0_linear)"/>
<path d="M88.7539 83.1102L81.8884 76.0134C83.7151 73.0999 84.7742 69.6496 84.7742 65.9539C84.7742 64.0846 84.503 62.2542 83.9811 60.504L86.6807 60.1773C87.261 60.1071 87.7263 59.6596 87.8233 59.0777L89.9455 46.3743C90.0419 45.7985 89.7546 45.2265 89.2375 44.9644L82.3107 41.4527C82.1145 39.3905 81.7469 37.3329 81.2147 35.3174L86.5612 29.5631C86.9585 29.1356 87.0316 28.4957 86.7412 27.9879L80.3876 16.8796C80.0972 16.3716 79.5119 16.1154 78.9462 16.2494L71.2927 18.0563C70.5233 17.2924 69.7123 16.5547 68.8787 15.8605C68.1534 15.2559 67.3946 14.671 66.6233 14.1214C66.5967 14.1025 66.5698 14.0835 66.5433 14.0645L66.9745 6.18885C67.0066 5.60342 66.6551 5.06588 66.1095 4.8653L54.1687 0.478067C53.6229 0.277486 53.0115 0.461219 52.6631 0.930659L47.9513 7.28096C45.8999 7.11408 43.8261 7.12064 41.7671 7.2994L37.0863 0.991844C36.7381 0.522581 36.1272 0.338494 35.5807 0.539252L23.6397 4.92631C23.0941 5.12689 22.7427 5.66443 22.7747 6.24986L23.2086 14.1723C21.5297 15.3769 19.9448 16.7269 18.4825 18.198L10.8805 16.4034C10.3148 16.2691 9.7295 16.5258 9.43911 17.0335L3.08533 28.1417C2.79494 28.6494 2.86807 29.2891 3.26533 29.7169L8.6481 35.5102C8.12796 37.5245 7.772 39.5845 7.58638 41.6531L0.724947 45.1426C0.209557 45.4049 -0.0771415 45.9753 0.0181317 46.5499L2.12135 59.2507C2.21785 59.8333 2.68332 60.2819 3.26428 60.3522L11.0765 61.2976C11.961 63.1803 13.0004 64.9904 14.1757 66.695L11.1048 73.9393C10.8765 74.4783 11.0243 75.1049 11.4692 75.4816L21.2036 83.7266C21.6488 84.1039 22.2857 84.1422 22.7716 83.8212L29.3621 79.4738C31.24 80.3405 33.1871 81.0519 35.1675 81.5944L37.4299 89.142C37.5982 89.7031 38.1106 90.087 38.6913 90.087H51.3987C51.9795 90.087 52.4919 89.7033 52.6601 89.142L54.9393 81.5394C55.0871 81.4981 55.2334 81.4521 55.381 81.409C58.415 83.5567 62.1068 84.8191 66.0856 84.8191C69.7146 84.8191 73.1045 83.7685 75.9748 81.9544L82.7983 89.1372C84.3634 90.8087 87.203 90.8202 88.7776 89.1576C90.4182 87.5632 90.4045 84.6926 88.7539 83.1102ZM50.0322 65.9541C50.0322 64.107 50.3373 62.2957 50.939 60.5708C53.1968 54.0984 59.2835 49.75 66.0856 49.75C69.3027 49.75 72.4059 50.7066 75.0602 52.5166C75.6632 52.9278 76.4826 52.7677 76.8899 52.1589C77.2972 51.5502 77.1387 50.7232 76.5356 50.312C74.8859 49.187 73.0867 48.3482 71.199 47.8075C71.2899 46.9062 71.3388 45.9964 71.3388 45.0892C71.3388 30.4683 59.5546 18.5732 45.0699 18.5732C42.0328 18.5732 39.0556 19.0922 36.2209 20.1158C35.5357 20.3632 35.1789 21.1246 35.4241 21.8164C35.6693 22.5082 36.4236 22.8684 37.1088 22.6209C39.6576 21.7004 42.3362 21.2338 45.0701 21.2338C58.1014 21.2338 68.7033 31.9355 68.7033 45.0894C68.7033 45.8144 68.6669 46.5408 68.6024 47.2625C67.7731 47.1497 66.933 47.0897 66.0856 47.0897C64.1036 47.0897 62.1737 47.407 60.353 48.0008C60.5304 47.0466 60.6205 46.0741 60.6205 45.0894C60.6205 36.4343 53.6447 29.3927 45.0701 29.3927C36.4955 29.3927 29.5196 36.4343 29.5196 45.0894C29.5196 48.4509 30.5571 51.6564 32.52 54.3596C32.9526 54.956 33.7809 55.0777 34.3619 54.646C34.9488 54.2119 35.076 53.3794 34.6457 52.7869C33.0164 50.5429 32.1553 47.8812 32.1553 45.0894C32.1553 37.9012 37.9488 32.0531 45.0701 32.0531C52.1913 32.0531 57.9849 37.9012 57.9849 45.0894C57.9849 46.5414 57.7493 47.9609 57.2886 49.3174C53.9685 51.1077 51.2089 53.8921 49.4505 57.3545C48.0494 57.8647 46.5786 58.1257 45.0702 58.1257C42.8888 58.1257 40.7334 57.5669 38.8372 56.5101C38.2 56.1549 37.3983 56.3881 37.0466 57.0315C36.6948 57.6746 36.926 58.484 37.563 58.839C39.8483 60.1129 42.4443 60.7863 45.0702 60.7863C46.1314 60.7863 47.1773 60.6767 48.2011 60.4653C47.6674 62.2386 47.3967 64.0811 47.3967 65.9544C47.3967 66.9242 47.4698 67.877 47.6103 68.8078C46.7683 68.8984 45.9186 68.9449 45.0702 68.9449C32.0389 68.9449 21.437 58.2431 21.437 45.0892C21.437 37.1274 25.3513 29.7194 31.9079 25.2727C32.5121 24.8629 32.6728 24.0366 32.2669 23.4267C31.8608 22.817 31.0421 22.6547 30.4381 23.0644C23.1516 28.006 18.8014 36.2396 18.8014 45.0892C18.8014 59.7102 30.5856 71.6053 45.0702 71.6053C46.1147 71.6053 47.162 71.5418 48.197 71.4182C49.1218 74.4973 50.807 77.2455 53.0314 79.4398C52.8452 79.6019 52.703 79.8142 52.6294 80.0596L50.421 87.4265H39.6699L37.4765 80.11C37.3422 79.6618 36.9843 79.3181 36.5345 79.2046C34.2367 78.6252 31.9804 77.8013 29.8283 76.7556C29.4126 76.5538 28.9225 76.5859 28.5358 76.8407L22.1488 81.0538L13.9129 74.078L16.8898 67.0556C17.0722 66.625 17.017 66.1293 16.7442 65.7505C15.3487 63.8113 14.1448 61.7149 13.166 59.5195C12.9763 59.0941 12.5798 58.8 12.121 58.7445L4.5582 57.8292L2.77789 47.0777L9.43384 43.6928C9.84868 43.4816 10.1229 43.0657 10.1554 42.5977C10.3215 40.2053 10.7337 37.8182 11.381 35.5031C11.5066 35.0542 11.3901 34.572 11.074 34.2316L5.85687 28.617L11.2326 19.2186L18.6033 20.9586C19.0556 21.0659 19.53 20.924 19.8525 20.5861C21.5066 18.8531 23.3418 17.2896 25.3067 15.9396C25.6886 15.6771 25.9066 15.232 25.8809 14.7665L25.4605 7.08836L35.5633 3.37664L40.1014 9.49213C40.3799 9.86722 40.8334 10.0673 41.2955 10.0174C43.6694 9.76241 46.0708 9.75532 48.4328 9.99598C48.8919 10.0424 49.3428 9.84311 49.6198 9.46997L54.1866 3.31581L64.2892 7.02771L63.8711 14.6643C63.8454 15.1329 64.066 15.5803 64.4519 15.8419C66.4283 17.1832 68.2735 18.7325 69.9353 20.4501C70.2575 20.783 70.7288 20.9219 71.1779 20.8158L78.5943 19.0648L83.9699 28.4632L78.7859 34.0426C78.4681 34.3847 78.3522 34.8703 78.4807 35.3211C79.1427 37.6396 79.5686 40.0238 79.7467 42.4077C79.7815 42.8736 80.0557 43.2869 80.4694 43.4965L87.1851 46.9009L85.3884 57.6542L83.0087 57.9422C82.5281 56.9111 81.9547 55.9183 81.2862 54.9766C80.862 54.3793 80.0387 54.2427 79.4472 54.6701C78.8557 55.0981 78.7198 55.9291 79.1436 56.5264C81.103 59.2861 82.1386 62.5461 82.1386 65.9537C82.1386 74.8889 74.9372 82.158 66.0854 82.158C57.2336 82.158 50.0322 74.889 50.0322 65.9541ZM80.3034 78.1831L81.8728 79.8053L79.6363 81.9647L78.1232 80.3717C78.9075 79.7033 79.637 78.9712 80.3034 78.1831ZM86.9105 87.2793C86.326 87.8957 85.2787 87.8954 84.6897 87.2842L81.4604 83.885L83.7143 81.7089L86.8764 84.9777C87.5176 85.5693 87.5373 86.671 86.9105 87.2793Z" fill="url(#paint1_linear)"/>
</g>
<defs>
<linearGradient id="paint0_linear" x1="52.4382" y1="74.0844" x2="78.7359" y2="57.0484" gradientUnits="userSpaceOnUse">
<stop stop-color="#234DAE"/>
<stop offset="1" stop-color="#347BCE"/>
</linearGradient>
<linearGradient id="paint1_linear" x1="-4.05303e-06" y1="71.9387" x2="86.0914" y2="15.6703" gradientUnits="userSpaceOnUse">
<stop stop-color="#234DAE"/>
<stop offset="1" stop-color="#347BCE"/>
</linearGradient>
<clipPath id="clip0">
<rect width="90" height="90" fill="white"/>
</clipPath>
</defs>
</svg>
