<svg width="90" height="90" viewBox="0 0 90 90" fill="none" xmlns="http://www.w3.org/2000/svg">
<path d="M81.5419 62.5678C80.8612 62.309 80.0985 62.6514 79.8397 63.3326C78.493 66.8765 76.6324 70.1589 74.3252 73.0973C73.5801 72.1407 72.798 71.2183 71.9804 70.3326C76.3468 64.5167 78.7416 57.379 78.7416 50.1002C78.7416 40.9925 75.1531 32.4497 68.637 26.0457C68.1174 25.5351 67.2819 25.5418 66.7711 26.0618C66.2601 26.5818 66.2675 27.4171 66.7873 27.9279C72.7944 33.8317 76.1025 41.7061 76.1025 50.1002C76.1025 56.6754 73.9815 63.1257 70.1073 68.4267C66.1259 64.616 61.4417 61.5931 56.2655 59.5252L57.2615 58.5598C58.8003 57.0679 60.0382 55.3444 60.9408 53.4368C61.2524 52.7781 60.9713 51.9913 60.3125 51.6797C59.6541 51.3681 58.8672 51.6492 58.5554 52.308C57.7888 53.9282 56.7352 55.3942 55.4246 56.6647L54.1114 57.9375C53.5325 58.4987 53.2825 59.3056 53.4426 60.0959C53.6027 60.8861 54.1471 61.532 54.8987 61.8234C61.9398 64.5537 68.0324 69.1541 72.5811 75.1596C70.7384 77.184 68.6651 79.0136 66.3861 80.6144C60.1023 85.0277 52.707 87.3606 44.9996 87.3606C34.0856 87.3606 24.2524 82.6439 17.4316 75.1418C21.9789 69.1449 28.0662 64.5509 35.1003 61.8234C35.8521 61.5318 36.3966 60.8861 36.5567 60.0958C36.717 59.3054 36.4668 58.4985 35.888 57.9373L34.5749 56.6645C31.0757 53.2725 29.4739 48.5614 30.1805 43.7393C30.8871 38.9174 33.7729 34.8638 38.0982 32.6182C42.4197 30.3748 47.5795 30.3746 51.9008 32.6182C57.3016 35.4224 60.4499 41.1642 59.9216 47.2462C59.8586 47.9723 60.3959 48.6121 61.1219 48.6751C61.8483 48.7407 62.4879 48.2007 62.5507 47.4748C63.172 40.3249 59.4689 33.5741 53.1169 30.2761C48.0339 27.6369 41.9649 27.6371 36.882 30.2761C31.7946 32.9175 28.4001 37.6852 27.5692 43.357C26.7382 49.0287 28.622 54.5697 32.7379 58.5598L33.7339 59.5252C28.5569 61.5934 23.872 64.6167 19.8902 68.4281C16.0165 63.1269 13.8969 56.6754 13.8969 50.1002C13.8969 42.9252 16.4097 35.9189 20.9727 30.3721C21.4356 29.8093 21.3546 28.9778 20.792 28.5147C20.2289 28.0516 19.3976 28.1325 18.9345 28.6954C13.984 34.7134 11.2577 42.315 11.2577 50.1C11.2577 57.3788 13.6516 64.5174 18.018 70.3331C17.2057 71.2131 16.4285 72.1295 15.6878 73.0794C10.7105 66.7443 7.73884 58.7626 7.73884 50.0999C7.73884 29.5542 24.4539 12.8391 44.9996 12.8391C47.2946 12.8391 49.6009 13.0517 51.8542 13.4706C52.5708 13.6039 53.2595 13.131 53.3928 12.4146C53.526 11.6981 53.0531 11.0093 52.3366 10.8759C49.9246 10.4274 47.4561 10.2 44.9996 10.2C34.3419 10.2 24.3223 14.3503 16.7862 21.8863C9.25002 29.4224 5.09985 39.4422 5.09985 50.0999C5.09985 60.7575 9.2502 70.7772 16.7862 78.3132C24.3223 85.8494 34.3421 89.9996 44.9996 89.9996C53.2528 89.9996 61.1725 87.501 67.9029 82.7737C74.4815 78.1533 79.4621 71.7547 82.3066 64.2695C82.5656 63.5888 82.2232 62.8266 81.5419 62.5678Z" fill="url(#paint0_linear)"/>
<path d="M75.5695 24.4613C75.1009 23.9031 74.2685 23.8308 73.7104 24.2991C73.1522 24.7678 73.0797 25.6001 73.5482 26.1581C79.1663 32.8498 82.2603 41.3525 82.2603 50.0999C82.2603 52.797 81.9679 55.4967 81.3915 58.1239C81.2351 58.8357 81.6857 59.5393 82.3975 59.6957C82.4927 59.7167 82.5879 59.7267 82.6815 59.7267C83.2878 59.7267 83.834 59.3062 83.9691 58.6897C84.5865 55.8771 84.8995 52.987 84.8995 50.0999C84.8993 40.7328 81.5859 31.6275 75.5695 24.4613Z" fill="url(#paint1_linear)"/>
<path d="M23.031 24.5104C22.4783 24.9855 22.4153 25.8187 22.8905 26.3714C23.1515 26.6751 23.5206 26.8308 23.8918 26.8308C24.1964 26.8308 24.5024 26.7259 24.7515 26.512C30.3882 21.6661 37.5793 18.9976 44.9999 18.9976C47.9264 18.9976 50.8261 19.4066 53.6189 20.2135C54.3189 20.4155 55.0507 20.0121 55.2527 19.312C55.4548 18.6119 55.0512 17.8803 54.3513 17.678C51.3203 16.8025 48.1741 16.3584 44.9999 16.3584C36.9481 16.3582 29.1461 19.2534 23.031 24.5104Z" fill="url(#paint2_linear)"/>
<path d="M67.5539 23.0299C73.9032 23.0299 79.0687 17.8643 79.0687 11.515C79.0687 5.16572 73.9032 0 67.5539 0C61.2046 0 56.0391 5.16554 56.0391 11.515C56.0391 17.8645 61.2046 23.0299 67.5539 23.0299ZM67.5539 2.63916C72.4479 2.63916 76.4296 6.62078 76.4296 11.515C76.4296 16.4093 72.4479 20.3907 67.5539 20.3907C62.6598 20.3907 58.6782 16.4091 58.6782 11.515C58.6782 6.62095 62.6598 2.63916 67.5539 2.63916Z" fill="url(#paint3_linear)"/>
<defs>
<linearGradient id="paint0_linear" x1="5.09985" y1="73.6327" x2="80.4305" y2="25.9438" gradientUnits="userSpaceOnUse">
<stop stop-color="#234DAE"/>
<stop offset="1" stop-color="#347BCE"/>
</linearGradient>
<linearGradient id="paint1_linear" x1="73.2393" y1="52.3972" x2="88.4653" y2="49.1501" gradientUnits="userSpaceOnUse">
<stop stop-color="#234DAE"/>
<stop offset="1" stop-color="#347BCE"/>
</linearGradient>
<linearGradient id="paint2_linear" x1="22.5715" y1="24.6829" x2="31.2093" y2="7.03667" gradientUnits="userSpaceOnUse">
<stop stop-color="#234DAE"/>
<stop offset="1" stop-color="#347BCE"/>
</linearGradient>
<linearGradient id="paint3_linear" x1="56.0391" y1="18.3064" x2="78.0687" y2="3.90824" gradientUnits="userSpaceOnUse">
<stop stop-color="#234DAE"/>
<stop offset="1" stop-color="#347BCE"/>
</linearGradient>
</defs>
</svg>
