<svg xmlns="http://www.w3.org/2000/svg">
  <symbol id="ico-user" viewBox="0 0 22 22" fill="none" xmlns="http://www.w3.org/2000/svg">
    <path d="M20.4747 17.8797C19.9589 16.6579 19.2103 15.5481 18.2708 14.6121C17.3341 13.6734 16.2245 12.925 15.0032 12.4082C14.9923 12.4027 14.9813 12.4 14.9704 12.3945C16.6739 11.1641 17.7813 9.15977 17.7813 6.89844C17.7813 3.15234 14.7462 0.117188 11.0001 0.117188C7.25398 0.117188 4.21882 3.15234 4.21882 6.89844C4.21882 9.15977 5.32624 11.1641 7.02976 12.3973C7.01882 12.4027 7.00789 12.4055 6.99695 12.4109C5.77195 12.9277 4.67273 13.6688 3.72937 14.6148C2.79068 15.5516 2.04227 16.6612 1.52546 17.8824C1.01775 19.078 0.743925 20.3599 0.718818 21.6586C0.718089 21.6878 0.723207 21.7168 0.733873 21.744C0.744539 21.7712 0.760537 21.7959 0.780923 21.8168C0.801309 21.8377 0.825671 21.8543 0.852574 21.8657C0.879476 21.877 0.908376 21.8828 0.937569 21.8828H2.5782C2.69851 21.8828 2.79421 21.7871 2.79695 21.6695C2.85163 19.5586 3.69929 17.5816 5.19773 16.0832C6.74812 14.5328 8.80711 13.6797 11.0001 13.6797C13.193 13.6797 15.252 14.5328 16.8024 16.0832C18.3009 17.5816 19.1485 19.5586 19.2032 21.6695C19.2059 21.7898 19.3016 21.8828 19.422 21.8828H21.0626C21.0918 21.8828 21.1207 21.877 21.1476 21.8657C21.1745 21.8543 21.1988 21.8377 21.2192 21.8168C21.2396 21.7959 21.2556 21.7712 21.2663 21.744C21.2769 21.7168 21.2821 21.6878 21.2813 21.6586C21.254 20.3516 20.9833 19.0801 20.4747 17.8797V17.8797ZM11.0001 11.6016C9.745 11.6016 8.56375 11.1121 7.67507 10.2234C6.7864 9.33477 6.29695 8.15352 6.29695 6.89844C6.29695 5.64336 6.7864 4.46211 7.67507 3.57344C8.56375 2.68477 9.745 2.19531 11.0001 2.19531C12.2552 2.19531 13.4364 2.68477 14.3251 3.57344C15.2138 4.46211 15.7032 5.64336 15.7032 6.89844C15.7032 8.15352 15.2138 9.33477 14.3251 10.2234C13.4364 11.1121 12.2552 11.6016 11.0001 11.6016Z" fill="currentColor" />
  </symbol>
  <symbol id="ico-tel" viewBox="0 0 27 26" fill="none" xmlns="http://www.w3.org/2000/svg">
    <path d="M23.9998 26H23.8298C4.17976 24.87 1.38976 8.29 0.999759 3.23C0.968334 2.83658 1.01485 2.44082 1.13663 2.06541C1.25842 1.69 1.45309 1.3423 1.70948 1.04225C1.96587 0.7422 2.27894 0.495688 2.63077 0.316839C2.98259 0.137991 3.36625 0.0303218 3.75976 9.37591e-07H9.26976C9.67032 -0.000386826 10.0618 0.119511 10.3934 0.344163C10.725 0.568815 10.9816 0.88787 11.1298 1.26L12.6498 5C12.7961 5.36355 12.8324 5.76208 12.7542 6.14609C12.676 6.5301 12.4867 6.88267 12.2098 7.16L10.0798 9.31C10.4125 11.2007 11.3179 12.9437 12.6737 14.303C14.0294 15.6622 15.7699 16.5723 17.6598 16.91L19.8298 14.76C20.1113 14.4862 20.4671 14.3013 20.853 14.2283C21.2389 14.1554 21.6378 14.1977 21.9998 14.35L25.7698 15.86C26.1363 16.0129 26.449 16.2714 26.668 16.6027C26.8871 16.9339 27.0026 17.3229 26.9998 17.72V23C26.9998 23.7956 26.6837 24.5587 26.1211 25.1213C25.5585 25.6839 24.7954 26 23.9998 26ZM3.99976 2C3.73454 2 3.48019 2.10536 3.29265 2.29289C3.10512 2.48043 2.99976 2.73478 2.99976 3V3.08C3.45976 9 6.40976 23 23.9398 24C24.0711 24.0081 24.2028 23.9902 24.3273 23.9473C24.4517 23.9045 24.5665 23.8374 24.6649 23.7501C24.7634 23.6628 24.8437 23.5568 24.9011 23.4384C24.9586 23.32 24.9921 23.1914 24.9998 23.06V17.72L21.2298 16.21L18.3598 19.06L17.8798 19C9.17976 17.91 7.99976 9.21 7.99976 9.12L7.93976 8.64L10.7798 5.77L9.27976 2H3.99976Z" fill="currentColor" />
  </symbol>
  <symbol id="ico-time" viewBox="0 0 24 24" fill="none" xmlns="http://www.w3.org/2000/svg">
    <path d="M12 1.5C6.20156 1.5 1.5 6.20156 1.5 12C1.5 17.7984 6.20156 22.5 12 22.5C17.7984 22.5 22.5 17.7984 22.5 12C22.5 6.20156 17.7984 1.5 12 1.5ZM12 20.7188C7.18594 20.7188 3.28125 16.8141 3.28125 12C3.28125 7.18594 7.18594 3.28125 12 3.28125C16.8141 3.28125 20.7188 7.18594 20.7188 12C20.7188 16.8141 16.8141 20.7188 12 20.7188Z" fill="currentColor" />
    <path d="M16.0945 14.9672L12.7523 12.5508V6.75C12.7523 6.64687 12.668 6.5625 12.5648 6.5625H11.4375C11.3344 6.5625 11.25 6.64687 11.25 6.75V13.2047C11.25 13.2656 11.2781 13.3219 11.3273 13.357L15.2039 16.1836C15.2883 16.2445 15.4055 16.2258 15.4664 16.1437L16.1367 15.2297C16.1977 15.143 16.1789 15.0258 16.0945 14.9672Z" fill="currentColor" />
  </symbol>
  <symbol id="ico-mail" viewBox="0 0 30 30" fill="none" xmlns="http://www.w3.org/2000/svg">
    <path d="M26.7812 5.03125H3.21875C2.71748 5.03125 2.3125 5.43623 2.3125 5.9375V24.0625C2.3125 24.5638 2.71748 24.9688 3.21875 24.9688H26.7812C27.2825 24.9688 27.6875 24.5638 27.6875 24.0625V5.9375C27.6875 5.43623 27.2825 5.03125 26.7812 5.03125ZM25.6484 8.16914V22.9297H4.35156V8.16914L3.56992 7.56025L4.68291 6.13008L5.89502 7.07314H24.1078L25.3199 6.13008L26.4329 7.56025L25.6484 8.16914ZM24.1078 7.07031L15 14.1504L5.89219 7.07031L4.68008 6.12725L3.56709 7.55742L4.34873 8.16631L14.0229 15.6882C14.3012 15.9043 14.6434 16.0217 14.9958 16.0217C15.3481 16.0217 15.6903 15.9043 15.9686 15.6882L25.6484 8.16914L26.4301 7.56025L25.3171 6.13008L24.1078 7.07031Z" fill="currentColor" />
  </symbol>
</svg>
