<svg width="1920" height="673" viewBox="0 0 1920 673" fill="none" xmlns="http://www.w3.org/2000/svg">
<mask id="mask0" mask-type="alpha" maskUnits="userSpaceOnUse" x="0" y="0" width="1920" height="673">
<rect width="1920" height="673" fill="#C4C4C4"/>
</mask>
<g mask="url(#mask0)">
<path d="M14.5 353L-26 372.13V421.87L14.5 441L55 421.87V372.13L14.5 353Z" fill="#F0F0F0"/>
<path d="M61.5 421.553V372.447L101.5 353.553L141.5 372.447V421.553L101.5 440.447L61.5 421.553Z" stroke="#F0F0F0"/>
<path d="M188.5 353L148 372.13V421.87L188.5 441L229 421.87V372.13L188.5 353Z" fill="#F0F0F0"/>
<path d="M57.5 280L17 299.13V348.87L57.5 368L98 348.87V299.13L57.5 280Z" fill="#F0F0F0"/>
<path d="M144.5 280L104 299.13V348.87L144.5 368L185 348.87V299.13L144.5 280Z" fill="#F0F0F0"/>
<path d="M191.5 348.553V299.447L231.5 280.553L271.5 299.447V348.553L231.5 367.447L191.5 348.553Z" stroke="#F0F0F0"/>
<path d="M13.5 295L-27 275.87V226.13L13.5 207L54 226.13V275.87L13.5 295Z" fill="#F0F0F0"/>
<path d="M60.5 226.447V275.553L100.5 294.447L140.5 275.553V226.447L100.5 207.553L60.5 226.447Z" stroke="#F0F0F0"/>
<path d="M488.5 577L448 596.13V645.87L488.5 665L529 645.87V596.13L488.5 577Z" fill="#F0F0F0"/>
<path d="M535.5 645.553V596.447L575.5 577.553L615.5 596.447V645.553L575.5 664.447L535.5 645.553Z" stroke="#F0F0F0"/>
<path d="M662.5 577L622 596.13V645.87L662.5 665L703 645.87V596.13L662.5 577Z" fill="#F0F0F0"/>
<path d="M579.5 512.553V463.447L619.5 444.553L659.5 463.447V512.553L619.5 531.447L579.5 512.553Z" stroke="#F0F0F0"/>
<path d="M706.5 444L666 463.13V512.87L706.5 532L747 512.87V463.13L706.5 444Z" fill="#F0F0F0"/>
<path d="M793.5 444L753 463.13V512.87L793.5 532L834 512.87V463.13L793.5 444Z" fill="#F0F0F0"/>
<path d="M531.5 504L491 523.13V572.87L531.5 592L572 572.87V523.13L531.5 504Z" fill="#F0F0F0"/>
<path d="M618.5 504L578 523.13V572.87L618.5 592L659 572.87V523.13L618.5 504Z" fill="#F0F0F0"/>
<path d="M665.5 572.553V523.447L705.5 504.553L745.5 523.447V572.553L705.5 591.447L665.5 572.553Z" stroke="#F0F0F0"/>
<path d="M753.5 108.553L753.5 59.4472L713.5 40.553L673.5 59.4472L673.5 108.553L713.5 127.447L753.5 108.553Z" stroke="#F0F0F0"/>
<path d="M626.5 40L667 59.1304L667 108.87L626.5 128L586 108.87L586 59.1304L626.5 40Z" fill="#F0F0F0"/>
<path d="M756.5 -33L797 -13.8696L797 35.8696L756.5 55L716 35.8696L716 -13.8696L756.5 -33Z" fill="#F0F0F0"/>
<path d="M669.5 -33L710 -13.8696L710 35.8696L669.5 55L629 35.8696L629 -13.8696L669.5 -33Z" fill="#F0F0F0"/>
<path d="M622.5 35.5528L622.5 -13.5528L582.5 -32.447L542.5 -13.5528L542.5 35.5528L582.5 54.447L622.5 35.5528Z" stroke="#F0F0F0"/>
</g>
</svg>
