<svg width="91" height="90" viewBox="0 0 91 90" fill="none" xmlns="http://www.w3.org/2000/svg">
<g clip-path="url(#clip0)">
<path d="M70.3947 11.0055C70.3947 10.0347 69.6078 9.24768 68.6369 9.24768H68.6269C67.6561 9.24768 66.874 10.0347 66.874 11.0055C66.874 11.9763 67.6659 12.7633 68.6368 12.7633C69.6076 12.7633 70.3947 11.9763 70.3947 11.0055Z" fill="url(#paint0_linear)"/>
<path d="M79.8752 11.0055C79.8752 10.0347 79.0882 9.24768 78.1174 9.24768H78.1074C77.1365 9.24768 76.3545 10.0347 76.3545 11.0055C76.3545 11.9763 77.1464 12.7633 78.1172 12.7633C79.0881 12.7633 79.8752 11.9763 79.8752 11.0055Z" fill="url(#paint1_linear)"/>
<path d="M60.9162 11.0055C60.9162 10.0347 60.1293 9.24768 59.1584 9.24768H59.1484C58.1776 9.24768 57.3955 10.0347 57.3955 11.0055C57.3955 11.9763 58.1874 12.7633 59.1582 12.7633C60.1291 12.7633 60.9162 11.9763 60.9162 11.0055Z" fill="url(#paint2_linear)"/>
<path d="M11.125 11.0055C11.125 11.9763 11.912 12.7633 12.8828 12.7633H39.2704C40.2412 12.7633 41.0282 11.9763 41.0282 11.0055C41.0282 10.0347 40.2412 9.24768 39.2704 9.24768H12.8828C11.9121 9.24768 11.125 10.0347 11.125 11.0055Z" fill="url(#paint3_linear)"/>
<path d="M84.8238 0H29.8664C28.8955 0 28.1086 0.786973 28.1086 1.75781C28.1086 2.72865 28.8955 3.51562 29.8664 3.51562H84.8238C85.9949 3.51562 86.9475 4.46607 86.9475 5.63432V18.4957H4.05078V5.63432C4.05078 4.46607 5.00123 3.51562 6.16947 3.51562H14.0817C15.0526 3.51562 15.8396 2.72865 15.8396 1.75781C15.8396 0.786973 15.0526 0 14.0817 0H6.16947C3.06271 0 0.535156 2.52756 0.535156 5.63432V84.3606C0.535156 87.4702 3.06271 90 6.16947 90H84.8238C87.9332 90 90.4631 87.4702 90.4631 84.3606V5.63432C90.4631 2.52756 87.9332 0 84.8238 0ZM84.8238 86.4844H6.16947C5.00123 86.4844 4.05078 85.5316 4.05078 84.3606V22.0113H86.9475V84.3606C86.9475 85.5316 85.9947 86.4844 84.8238 86.4844Z" fill="url(#paint4_linear)"/>
<path d="M16.964 67.2561C12.926 67.2561 9.64062 70.5413 9.64062 74.5795C9.64062 78.6149 12.9258 81.898 16.964 81.898C20.9994 81.898 24.2823 78.6149 24.2823 74.5795C24.2823 70.5415 20.9994 67.2561 16.964 67.2561ZM16.964 78.3825C14.8645 78.3825 13.1562 76.6766 13.1562 74.5797C13.1562 72.4801 14.8643 70.7719 16.964 70.7719C19.0607 70.7719 20.7667 72.4801 20.7667 74.5797C20.7667 76.6766 19.0609 78.3825 16.964 78.3825Z" fill="url(#paint5_linear)"/>
<path d="M35.9833 67.2561C31.9479 67.2561 28.665 70.5413 28.665 74.5795C28.665 78.6149 31.9481 81.898 35.9833 81.898C40.0186 81.898 43.3016 78.6149 43.3016 74.5795C43.3016 70.5415 40.0187 67.2561 35.9833 67.2561ZM35.9833 78.3825C33.8864 78.3825 32.1807 76.6766 32.1807 74.5797C32.1807 72.4801 33.8866 70.7719 35.9833 70.7719C38.0801 70.7719 39.786 72.4801 39.786 74.5797C39.786 76.6766 38.0802 78.3825 35.9833 78.3825Z" fill="url(#paint6_linear)"/>
<path d="M55.0068 67.2561C50.9714 67.2561 47.6885 70.5413 47.6885 74.5795C47.6885 78.6149 50.9715 81.898 55.0068 81.898C59.0448 81.898 62.3302 78.6149 62.3302 74.5795C62.33 70.5415 59.0448 67.2561 55.0068 67.2561ZM55.0068 78.3825C52.9099 78.3825 51.2041 76.6766 51.2041 74.5797C51.2041 72.4801 52.9101 70.7719 55.0068 70.7719C57.1063 70.7719 58.8146 72.4801 58.8146 74.5797C58.8144 76.6766 57.1063 78.3825 55.0068 78.3825Z" fill="url(#paint7_linear)"/>
<path d="M74.0353 67.2561C69.9973 67.2561 66.7119 70.5413 66.7119 74.5795C66.7119 78.6149 69.9971 81.898 74.0353 81.898C78.0707 81.898 81.3536 78.6149 81.3536 74.5795C81.3536 70.5415 78.0705 67.2561 74.0353 67.2561ZM74.0353 78.3825C71.9358 78.3825 70.2275 76.6766 70.2275 74.5797C70.2275 72.4801 71.9356 70.7719 74.0353 70.7719C76.1322 70.7719 77.838 72.4801 77.838 74.5797C77.838 76.6766 76.132 78.3825 74.0353 78.3825Z" fill="url(#paint8_linear)"/>
<path d="M9.64287 58.6889C9.70615 59.5977 10.4828 60.3233 11.397 60.3233H50.7391C51.6984 60.3233 52.4994 59.523 52.4994 58.5655V28.8138C52.4994 27.843 51.7124 27.056 50.7416 27.056H11.3945C10.4237 27.056 9.63672 27.843 9.63672 28.8138V58.5653C9.63883 58.6067 9.64076 58.6478 9.64287 58.6889ZM38.7834 56.8077L35.5084 51.6461L39.8894 44.7451L47.5443 56.8077H38.7834ZM34.6198 56.8077H14.5922L24.6078 41.0284L34.6198 56.8077ZM48.9838 30.5717V52.515L41.3738 40.5232C41.0515 40.015 40.4914 39.7072 39.8899 39.7072C39.2882 39.7072 38.7283 40.015 38.4058 40.523L33.427 48.3656L26.0925 36.8063C25.7701 36.2981 25.2101 35.9903 24.6084 35.9901C24.6084 35.9901 24.6084 35.9901 24.6082 35.9901C24.0065 35.9901 23.4466 36.2979 23.1241 36.8059L13.1522 52.516V30.5717H48.9838Z" fill="url(#paint9_linear)"/>
<path d="M59.9219 30.5717H79.5282C80.499 30.5717 81.286 29.7847 81.286 28.8138C81.286 27.843 80.499 27.056 79.5282 27.056H59.9219C58.951 27.056 58.1641 27.843 58.1641 28.8138C58.1641 29.7847 58.951 30.5717 59.9219 30.5717Z" fill="url(#paint10_linear)"/>
<path d="M59.9219 40.3126H79.5282C80.499 40.3126 81.286 39.5256 81.286 38.5548C81.286 37.584 80.499 36.797 79.5282 36.797H59.9219C58.951 36.797 58.1641 37.584 58.1641 38.5548C58.1641 39.5256 58.951 40.3126 59.9219 40.3126Z" fill="url(#paint11_linear)"/>
<path d="M59.9219 50.0492H79.5282C80.499 50.0492 81.286 49.2622 81.286 48.2914C81.286 47.3205 80.499 46.5336 79.5282 46.5336H59.9219C58.951 46.5336 58.1641 47.3205 58.1641 48.2914C58.1641 49.2622 58.951 50.0492 59.9219 50.0492Z" fill="url(#paint12_linear)"/>
<path d="M59.9219 59.7853H79.5282C80.499 59.7853 81.286 58.9983 81.286 58.0275C81.286 57.0566 80.499 56.2697 79.5282 56.2697H59.9219C58.951 56.2697 58.1641 57.0566 58.1641 58.0275C58.1641 58.9983 58.951 59.7853 59.9219 59.7853Z" fill="url(#paint13_linear)"/>
<path d="M21.9715 3.51562H21.9815C22.9524 3.51562 23.7344 2.72865 23.7344 1.75781C23.7344 0.786973 22.9425 0 21.9717 0C21.0008 0 20.2139 0.786973 20.2139 1.75781C20.2139 2.72865 21.0008 3.51562 21.9715 3.51562Z" fill="url(#paint14_linear)"/>
</g>
<defs>
<linearGradient id="paint0_linear" x1="66.874" y1="12.0423" x2="70.2389" y2="9.8398" gradientUnits="userSpaceOnUse">
<stop stop-color="#234DAE"/>
<stop offset="1" stop-color="#347BCE"/>
</linearGradient>
<linearGradient id="paint1_linear" x1="76.3545" y1="12.0423" x2="79.7194" y2="9.83979" gradientUnits="userSpaceOnUse">
<stop stop-color="#234DAE"/>
<stop offset="1" stop-color="#347BCE"/>
</linearGradient>
<linearGradient id="paint2_linear" x1="57.3955" y1="12.0423" x2="60.7604" y2="9.83979" gradientUnits="userSpaceOnUse">
<stop stop-color="#234DAE"/>
<stop offset="1" stop-color="#347BCE"/>
</linearGradient>
<linearGradient id="paint3_linear" x1="11.125" y1="12.0423" x2="12.4045" y2="4.92907" gradientUnits="userSpaceOnUse">
<stop stop-color="#234DAE"/>
<stop offset="1" stop-color="#347BCE"/>
</linearGradient>
<linearGradient id="paint4_linear" x1="0.535152" y1="71.541" x2="86.5989" y2="15.3357" gradientUnits="userSpaceOnUse">
<stop stop-color="#234DAE"/>
<stop offset="1" stop-color="#347BCE"/>
</linearGradient>
<linearGradient id="paint5_linear" x1="9.64062" y1="78.8949" x2="23.6466" y2="69.7409" gradientUnits="userSpaceOnUse">
<stop stop-color="#234DAE"/>
<stop offset="1" stop-color="#347BCE"/>
</linearGradient>
<linearGradient id="paint6_linear" x1="28.665" y1="78.8949" x2="42.669" y2="69.7454" gradientUnits="userSpaceOnUse">
<stop stop-color="#234DAE"/>
<stop offset="1" stop-color="#347BCE"/>
</linearGradient>
<linearGradient id="paint7_linear" x1="47.6885" y1="78.8949" x2="61.6944" y2="69.7409" gradientUnits="userSpaceOnUse">
<stop stop-color="#234DAE"/>
<stop offset="1" stop-color="#347BCE"/>
</linearGradient>
<linearGradient id="paint8_linear" x1="66.7119" y1="78.8949" x2="80.7178" y2="69.7409" gradientUnits="userSpaceOnUse">
<stop stop-color="#234DAE"/>
<stop offset="1" stop-color="#347BCE"/>
</linearGradient>
<linearGradient id="paint9_linear" x1="9.63672" y1="53.5002" x2="43.8738" y2="24.669" gradientUnits="userSpaceOnUse">
<stop stop-color="#234DAE"/>
<stop offset="1" stop-color="#347BCE"/>
</linearGradient>
<linearGradient id="paint10_linear" x1="58.1641" y1="29.8506" x2="59.7847" y2="22.8843" gradientUnits="userSpaceOnUse">
<stop stop-color="#234DAE"/>
<stop offset="1" stop-color="#347BCE"/>
</linearGradient>
<linearGradient id="paint11_linear" x1="58.1641" y1="39.5916" x2="59.7847" y2="32.6252" gradientUnits="userSpaceOnUse">
<stop stop-color="#234DAE"/>
<stop offset="1" stop-color="#347BCE"/>
</linearGradient>
<linearGradient id="paint12_linear" x1="58.1641" y1="49.3281" x2="59.7847" y2="42.3618" gradientUnits="userSpaceOnUse">
<stop stop-color="#234DAE"/>
<stop offset="1" stop-color="#347BCE"/>
</linearGradient>
<linearGradient id="paint13_linear" x1="58.1641" y1="59.0642" x2="59.7847" y2="52.0979" gradientUnits="userSpaceOnUse">
<stop stop-color="#234DAE"/>
<stop offset="1" stop-color="#347BCE"/>
</linearGradient>
<linearGradient id="paint14_linear" x1="20.2139" y1="2.79457" x2="23.5787" y2="0.592286" gradientUnits="userSpaceOnUse">
<stop stop-color="#234DAE"/>
<stop offset="1" stop-color="#347BCE"/>
</linearGradient>
<clipPath id="clip0">
<rect width="90" height="90" fill="white" transform="translate(0.5)"/>
</clipPath>
</defs>
</svg>
