<svg width="91" height="90" viewBox="0 0 91 90" fill="none" xmlns="http://www.w3.org/2000/svg">
<g clip-path="url(#clip0)">
<path d="M80.6317 7.60391H66.9565C66.1438 7.60391 65.4853 8.2626 65.4853 9.07505C65.4853 9.88751 66.1438 10.5462 66.9565 10.5462H80.6317C84.5333 10.5462 87.7077 13.7206 87.7077 17.6222V58.7483H72.6485C71.8358 58.7483 71.1773 59.407 71.1773 60.2194C71.1773 61.0319 71.8358 61.6906 72.6485 61.6906H87.5518C86.8726 64.8884 84.0287 67.2954 80.6319 67.2954H46.1195C45.3069 67.2954 44.6484 67.9541 44.6484 68.7666C44.6484 69.579 45.3069 70.2377 46.1195 70.2377H53.5295V75.2927C53.5295 75.6455 53.6562 75.9868 53.8869 76.254L56.7801 79.6058H34.396L37.2893 76.254C37.52 75.9868 37.6467 75.6455 37.6467 75.2927V70.2377H40.489C41.3016 70.2377 41.9601 69.579 41.9601 68.7666C41.9601 67.9541 41.3016 67.2954 40.489 67.2954H10.3683C6.97146 67.2954 4.12737 64.8884 3.44836 61.6906H67.0185C67.8311 61.6906 68.4896 61.0319 68.4896 60.2194C68.4896 59.407 67.8311 58.7483 67.0185 58.7483H3.29229V17.6222C3.29229 13.7206 6.46653 10.5462 10.3683 10.5462H24.2197C25.0323 10.5462 25.6908 9.88751 25.6908 9.07505C25.6908 8.2626 25.0323 7.60391 24.2197 7.60391H10.3683C4.84405 7.60391 0.35 12.098 0.35 17.6222V60.2194C0.35 65.7436 4.84405 70.2377 10.3683 70.2377H34.7046V74.7456L30.5091 79.6058H28.8169C26.6262 79.6058 24.8442 81.3878 24.8442 83.5785V84.918C24.8442 87.1087 26.6262 88.8907 28.8169 88.8907H62.1831C64.3738 88.8907 66.1558 87.1087 66.1558 84.918V83.5785C66.1558 81.3878 64.3738 79.6058 62.1831 79.6058H60.6671L56.4716 74.7456V70.2377H80.6317C86.1559 70.2377 90.65 65.7436 90.65 60.2194V17.6222C90.65 12.098 86.1559 7.60391 80.6317 7.60391ZM63.2135 83.5785V84.918C63.2135 85.486 62.7511 85.9484 62.1831 85.9484H28.8169C28.2489 85.9484 27.7865 85.486 27.7865 84.918V83.5785C27.7865 83.0105 28.2489 82.5481 28.8169 82.5481H62.1831C62.7511 82.5481 63.2135 83.0105 63.2135 83.5785Z" fill="url(#paint0_linear)" stroke="url(#paint1_linear)" stroke-width="0.3"/>
<path d="M63.1129 47.6776L63.1129 47.6775C63.1081 47.6723 63.1042 47.6676 63.1025 47.6655C62.7184 47.2606 62.1779 47.0071 61.5783 47.0069C60.981 47.0069 60.442 47.2586 60.0581 47.6611L63.1129 47.6776ZM63.1129 47.6776L63.1163 47.681M63.1129 47.6776L63.1163 47.681M63.1163 47.681L63.1199 47.6844C63.4681 48.0604 63.682 48.5605 63.682 49.1108C63.682 50.2707 62.7382 51.2145 61.5783 51.2145C60.4184 51.2145 59.4746 50.2707 59.4746 49.1108C59.4746 48.5546 59.6932 48.0493 60.048 47.672M63.1163 47.681L60.048 47.672M60.048 47.672C60.05 47.67 60.0523 47.6676 60.0548 47.6648L60.048 47.672ZM55.6922 41.5205C62.4506 37.9006 67.0596 30.7691 67.0596 22.5797C67.0596 10.7399 57.4275 1.10781 45.5877 1.10781C40.1811 1.10781 35.0152 3.12447 31.0421 6.78598C27.0928 10.4253 24.6624 15.3658 24.1988 20.6972C24.1282 21.5067 24.7275 22.2201 25.537 22.2903C26.345 22.3622 27.0596 21.7614 27.1299 20.9522C27.5299 16.3536 29.6271 12.0912 33.0359 8.94975C33.3958 8.61818 33.7675 8.30269 34.1493 8.00276L44.3619 23.3933L44.362 23.3933C44.6346 23.8041 45.0946 24.051 45.5877 24.051H64.0583C63.5224 30.84 59.3116 36.6116 53.4186 39.371L46 32.3566C46.3381 31.6798 46.5292 30.917 46.5292 30.1106C46.5292 27.328 44.2656 25.0646 41.4832 25.0646C38.7008 25.0646 36.4372 27.328 36.4372 30.1106C36.4372 30.7595 36.5606 31.3801 36.7849 31.9506L35.6905 32.8161C35.0532 33.3201 34.9452 34.2453 35.4492 34.8826C35.7396 35.2499 36.17 35.4412 36.6041 35.4412C36.9236 35.4412 37.2459 35.3374 37.5158 35.1239L38.6122 34.2567C39.4278 34.8232 40.4173 35.1564 41.4833 35.1564C42.3904 35.1564 43.2424 34.9153 43.9788 34.4945L50.325 40.495C48.8124 40.8954 47.2247 41.1095 45.5877 41.1095C36.7526 41.1095 29.1065 34.8268 27.4069 26.1716C27.2504 25.3745 26.479 24.8553 25.6799 25.0114L25.6798 25.0114C24.8826 25.1679 24.3632 25.9412 24.5197 26.7383C25.3225 30.8267 27.2703 34.4574 29.9886 37.3253L20.3288 44.9645C19.5133 44.398 18.5238 44.0646 17.4575 44.0646C14.6751 44.0646 12.4115 46.328 12.4115 49.1106C12.4115 51.8932 14.6751 54.1566 17.4575 54.1566C20.2399 54.1566 22.5035 51.8932 22.5035 49.1106C22.5035 48.4618 22.3801 47.8411 22.1559 47.2708L32.1824 39.3415C35.8882 42.3034 40.5722 44.0518 45.5877 44.0518C48.1079 44.0518 50.5278 43.6143 52.7765 42.813L57.0615 46.8646C56.7234 47.5414 56.5323 48.3042 56.5323 49.1106C56.5323 51.8932 58.796 54.1566 61.5783 54.1566C64.3607 54.1566 66.6243 51.8932 66.6243 49.1106C66.6243 48.3148 66.4381 47.5619 66.1083 46.8918L75.5682 38.0545C76.3107 38.4847 77.1723 38.7313 78.0902 38.7313C80.8726 38.7313 83.1362 36.4678 83.1362 33.6853C83.1362 30.9029 80.8726 28.6394 78.0902 28.6394C75.3078 28.6394 73.0442 30.9029 73.0442 33.6853C73.0442 34.481 73.2304 35.234 73.5602 35.9039L64.1003 44.7414C63.3578 44.3112 62.4962 44.0646 61.5783 44.0646C60.6713 44.0646 59.8193 44.3058 59.0829 44.7266L55.6922 41.5205ZM36.5993 6.37357C39.3255 4.85906 42.408 4.05028 45.5875 4.05028C55.3096 4.05028 63.306 11.5768 64.0583 21.1089H46.377L36.5993 6.37357ZM39.3797 30.1106C39.3797 28.9507 40.3234 28.0069 41.4833 28.0069C42.6433 28.0069 43.587 28.9507 43.587 30.1106C43.587 31.2703 42.6433 32.2141 41.4833 32.2141C40.3234 32.2141 39.3797 31.2703 39.3797 30.1106ZM17.4577 51.2145C16.2978 51.2145 15.354 50.2707 15.354 49.1108C15.354 47.9509 16.2978 47.0071 17.4577 47.0071C18.6176 47.0071 19.5614 47.9509 19.5614 49.1108C19.5614 50.2707 18.6174 51.2145 17.4577 51.2145ZM78.0904 31.5817C79.2503 31.5817 80.1941 32.5255 80.1941 33.6853C80.1941 34.8452 79.2503 35.789 78.0904 35.789C76.9305 35.789 75.9867 34.8452 75.9867 33.6853C75.9867 32.5255 76.9304 31.5817 78.0904 31.5817Z" fill="url(#paint2_linear)" stroke="url(#paint3_linear)" stroke-width="0.3"/>
</g>
<defs>
<linearGradient id="paint0_linear" x1="0.499996" y1="72.1303" x2="80.9344" y2="13.7085" gradientUnits="userSpaceOnUse">
<stop stop-color="#234DAE"/>
<stop offset="1" stop-color="#347BCE"/>
</linearGradient>
<linearGradient id="paint1_linear" x1="0.499996" y1="72.1303" x2="80.9344" y2="13.7085" gradientUnits="userSpaceOnUse">
<stop stop-color="#234DAE"/>
<stop offset="1" stop-color="#347BCE"/>
</linearGradient>
<linearGradient id="paint2_linear" x1="12.5615" y1="43.1878" x2="67.144" y2="-4.44105" gradientUnits="userSpaceOnUse">
<stop stop-color="#234DAE"/>
<stop offset="1" stop-color="#347BCE"/>
</linearGradient>
<linearGradient id="paint3_linear" x1="12.5615" y1="43.1878" x2="67.144" y2="-4.44105" gradientUnits="userSpaceOnUse">
<stop stop-color="#234DAE"/>
<stop offset="1" stop-color="#347BCE"/>
</linearGradient>
<clipPath id="clip0">
<rect width="90" height="90" fill="white" transform="translate(0.5)"/>
</clipPath>
</defs>
</svg>
