<svg width="91" height="90" viewBox="0 0 91 90" fill="none" xmlns="http://www.w3.org/2000/svg">
<g clip-path="url(#clip0)">
<mask id="path-1-outside-1" maskUnits="userSpaceOnUse" x="-0.5" y="10.9395" width="92" height="68" fill="black">
<rect fill="white" x="-0.5" y="10.9395" width="92" height="68"/>
<path d="M9.88777 75.4255H81.1122C82.9658 75.4255 84.6553 74.6629 85.881 73.4372C87.1067 72.2164 87.864 70.5272 87.864 68.6736V66.7203C59.6214 66.7203 31.3786 66.7203 3.13584 66.7203V68.6736C3.13584 70.5272 3.8982 72.2163 5.1241 73.4372C6.3449 74.6629 8.03416 75.4255 9.88777 75.4255ZM62.9698 26.5739C62.2423 26.5739 61.6545 25.9858 61.6545 25.2535C61.6545 24.5259 62.2425 23.9379 62.9698 23.9379H65.1673C65.8948 23.9379 66.4827 24.5261 66.4827 25.2535V35.5179C66.4827 36.2454 65.8947 36.8383 65.1673 36.8383C64.4348 36.8383 63.8468 36.2454 63.8468 35.5179V26.5739H62.9698ZM64.066 18.0232C67.4841 18.0232 70.5738 19.4082 72.811 21.6456C75.0483 23.8827 76.4284 26.9724 76.4284 30.3854C76.4284 33.7987 75.0481 36.893 72.811 39.1304C70.3745 41.5669 67.0706 42.8625 63.6274 42.7428V53.7351C63.6274 54.4674 63.0345 55.0556 62.307 55.0556H26.6998C25.9723 55.0556 25.3794 54.4674 25.3794 53.7351V30.1664C25.3794 29.4388 25.9723 28.8508 26.6998 28.8508H41.5189C42.2463 28.8508 42.8343 29.439 42.8343 30.1664C42.8343 30.8987 42.2461 31.4869 41.5189 31.4869H30.3723C35.0809 35.3533 39.7948 39.2253 44.5037 43.0918C47.3636 40.7451 50.2188 38.3982 53.079 36.051C52.3614 34.6609 51.8979 33.1211 51.7536 31.4869H47.4881C46.7605 31.4869 46.1727 30.8987 46.1727 30.1664C46.1727 29.4388 46.7607 28.8508 47.4881 28.8508H51.8032C52.147 26.0506 53.4328 23.5442 55.3262 21.6457C57.5635 19.4082 60.6529 18.0232 64.066 18.0232ZM60.9916 42.3642C58.814 41.8063 56.8658 40.6702 55.3262 39.1305C55.047 38.8517 54.783 38.5575 54.5337 38.2537L50.0292 41.9509L60.9914 50.955V42.3642H60.9916ZM70.9475 23.5094C69.1835 21.7503 66.7518 20.6642 64.066 20.6642C61.3852 20.6642 58.9536 21.7505 57.1898 23.5094C55.4308 25.2682 54.3446 27.7 54.3446 30.3854C54.3446 33.0712 55.4308 35.5029 57.1898 37.2618C58.9536 39.0259 61.3852 40.1119 64.066 40.1119C66.7516 40.1119 69.1834 39.0259 70.9475 37.2618C72.7064 35.5029 73.7925 33.0712 73.7925 30.3854C73.7925 27.7 72.7062 25.2682 70.9475 23.5094ZM41.0454 43.6548L30.3721 52.4194H58.6347L47.9613 43.6548L45.3355 45.8074C44.8371 46.2159 44.1298 46.1961 43.6513 45.7926L41.0454 43.6548ZM28.0152 50.9548L38.9775 41.9508L28.0152 32.9518V50.9548ZM41.4839 72.3908C40.7564 72.3908 40.1684 71.7979 40.1684 71.0703C40.1684 70.3428 40.7565 69.7551 41.4839 69.7551H49.5161C50.2435 69.7551 50.8365 70.3429 50.8365 71.0703C50.8365 71.7979 50.2435 72.3908 49.5161 72.3908H41.4839ZM8.5724 60.2826C8.5724 59.5551 9.16039 58.9622 9.88777 58.9622C10.6153 58.9622 11.2082 59.5551 11.2082 60.2826V64.0795H79.7967V27.3412C79.7967 26.6137 80.3848 26.0257 81.112 26.0257C81.8396 26.0257 82.4327 26.6138 82.4327 27.3412V64.0795H88.0883C89.4088 64.0795 90.5 65.1757 90.5 66.4962V68.6737C90.5 71.2549 89.4436 73.6018 87.7445 75.3056C86.0453 77.0051 83.6983 78.0611 81.1122 78.0611H9.88777C7.30643 78.0611 4.95957 77.0051 3.25555 75.3056C1.55645 73.6018 0.5 71.2547 0.5 68.6737V66.4962C0.5 65.1757 1.59125 64.0795 2.91664 64.0795H8.5724V60.2826ZM82.4327 21.3717C82.4327 22.0993 81.8396 22.6871 81.112 22.6871C80.3847 22.6871 79.7967 22.0991 79.7967 21.3717V18.8106C79.7967 17.6494 79.3184 16.5882 78.5511 15.8209C77.7838 15.0536 76.7224 14.5749 75.5614 14.5749H15.4437C14.2776 14.5749 13.2213 15.0536 12.454 15.8209C11.6865 16.5882 11.2082 17.6494 11.2082 18.8106V54.3082C11.2082 55.0357 10.6153 55.6287 9.88777 55.6287C9.16021 55.6287 8.5724 55.0357 8.5724 54.3082V18.8106C8.5724 16.922 9.34461 15.2028 10.5904 13.9574C11.831 12.7115 13.55 11.9395 15.4435 11.9395H75.5614C77.4498 11.9395 79.1688 12.7117 80.4146 13.9574C81.6601 15.203 82.4325 16.922 82.4325 18.8106V21.3717H82.4327Z"/>
</mask>
<path d="M9.88777 75.4255H81.1122C82.9658 75.4255 84.6553 74.6629 85.881 73.4372C87.1067 72.2164 87.864 70.5272 87.864 68.6736V66.7203C59.6214 66.7203 31.3786 66.7203 3.13584 66.7203V68.6736C3.13584 70.5272 3.8982 72.2163 5.1241 73.4372C6.3449 74.6629 8.03416 75.4255 9.88777 75.4255ZM62.9698 26.5739C62.2423 26.5739 61.6545 25.9858 61.6545 25.2535C61.6545 24.5259 62.2425 23.9379 62.9698 23.9379H65.1673C65.8948 23.9379 66.4827 24.5261 66.4827 25.2535V35.5179C66.4827 36.2454 65.8947 36.8383 65.1673 36.8383C64.4348 36.8383 63.8468 36.2454 63.8468 35.5179V26.5739H62.9698ZM64.066 18.0232C67.4841 18.0232 70.5738 19.4082 72.811 21.6456C75.0483 23.8827 76.4284 26.9724 76.4284 30.3854C76.4284 33.7987 75.0481 36.893 72.811 39.1304C70.3745 41.5669 67.0706 42.8625 63.6274 42.7428V53.7351C63.6274 54.4674 63.0345 55.0556 62.307 55.0556H26.6998C25.9723 55.0556 25.3794 54.4674 25.3794 53.7351V30.1664C25.3794 29.4388 25.9723 28.8508 26.6998 28.8508H41.5189C42.2463 28.8508 42.8343 29.439 42.8343 30.1664C42.8343 30.8987 42.2461 31.4869 41.5189 31.4869H30.3723C35.0809 35.3533 39.7948 39.2253 44.5037 43.0918C47.3636 40.7451 50.2188 38.3982 53.079 36.051C52.3614 34.6609 51.8979 33.1211 51.7536 31.4869H47.4881C46.7605 31.4869 46.1727 30.8987 46.1727 30.1664C46.1727 29.4388 46.7607 28.8508 47.4881 28.8508H51.8032C52.147 26.0506 53.4328 23.5442 55.3262 21.6457C57.5635 19.4082 60.6529 18.0232 64.066 18.0232ZM60.9916 42.3642C58.814 41.8063 56.8658 40.6702 55.3262 39.1305C55.047 38.8517 54.783 38.5575 54.5337 38.2537L50.0292 41.9509L60.9914 50.955V42.3642H60.9916ZM70.9475 23.5094C69.1835 21.7503 66.7518 20.6642 64.066 20.6642C61.3852 20.6642 58.9536 21.7505 57.1898 23.5094C55.4308 25.2682 54.3446 27.7 54.3446 30.3854C54.3446 33.0712 55.4308 35.5029 57.1898 37.2618C58.9536 39.0259 61.3852 40.1119 64.066 40.1119C66.7516 40.1119 69.1834 39.0259 70.9475 37.2618C72.7064 35.5029 73.7925 33.0712 73.7925 30.3854C73.7925 27.7 72.7062 25.2682 70.9475 23.5094ZM41.0454 43.6548L30.3721 52.4194H58.6347L47.9613 43.6548L45.3355 45.8074C44.8371 46.2159 44.1298 46.1961 43.6513 45.7926L41.0454 43.6548ZM28.0152 50.9548L38.9775 41.9508L28.0152 32.9518V50.9548ZM41.4839 72.3908C40.7564 72.3908 40.1684 71.7979 40.1684 71.0703C40.1684 70.3428 40.7565 69.7551 41.4839 69.7551H49.5161C50.2435 69.7551 50.8365 70.3429 50.8365 71.0703C50.8365 71.7979 50.2435 72.3908 49.5161 72.3908H41.4839ZM8.5724 60.2826C8.5724 59.5551 9.16039 58.9622 9.88777 58.9622C10.6153 58.9622 11.2082 59.5551 11.2082 60.2826V64.0795H79.7967V27.3412C79.7967 26.6137 80.3848 26.0257 81.112 26.0257C81.8396 26.0257 82.4327 26.6138 82.4327 27.3412V64.0795H88.0883C89.4088 64.0795 90.5 65.1757 90.5 66.4962V68.6737C90.5 71.2549 89.4436 73.6018 87.7445 75.3056C86.0453 77.0051 83.6983 78.0611 81.1122 78.0611H9.88777C7.30643 78.0611 4.95957 77.0051 3.25555 75.3056C1.55645 73.6018 0.5 71.2547 0.5 68.6737V66.4962C0.5 65.1757 1.59125 64.0795 2.91664 64.0795H8.5724V60.2826ZM82.4327 21.3717C82.4327 22.0993 81.8396 22.6871 81.112 22.6871C80.3847 22.6871 79.7967 22.0991 79.7967 21.3717V18.8106C79.7967 17.6494 79.3184 16.5882 78.5511 15.8209C77.7838 15.0536 76.7224 14.5749 75.5614 14.5749H15.4437C14.2776 14.5749 13.2213 15.0536 12.454 15.8209C11.6865 16.5882 11.2082 17.6494 11.2082 18.8106V54.3082C11.2082 55.0357 10.6153 55.6287 9.88777 55.6287C9.16021 55.6287 8.5724 55.0357 8.5724 54.3082V18.8106C8.5724 16.922 9.34461 15.2028 10.5904 13.9574C11.831 12.7115 13.55 11.9395 15.4435 11.9395H75.5614C77.4498 11.9395 79.1688 12.7117 80.4146 13.9574C81.6601 15.203 82.4325 16.922 82.4325 18.8106V21.3717H82.4327Z" fill="url(#paint0_linear)"/>
<path d="M9.88777 75.4255H81.1122C82.9658 75.4255 84.6553 74.6629 85.881 73.4372C87.1067 72.2164 87.864 70.5272 87.864 68.6736V66.7203C59.6214 66.7203 31.3786 66.7203 3.13584 66.7203V68.6736C3.13584 70.5272 3.8982 72.2163 5.1241 73.4372C6.3449 74.6629 8.03416 75.4255 9.88777 75.4255ZM62.9698 26.5739C62.2423 26.5739 61.6545 25.9858 61.6545 25.2535C61.6545 24.5259 62.2425 23.9379 62.9698 23.9379H65.1673C65.8948 23.9379 66.4827 24.5261 66.4827 25.2535V35.5179C66.4827 36.2454 65.8947 36.8383 65.1673 36.8383C64.4348 36.8383 63.8468 36.2454 63.8468 35.5179V26.5739H62.9698ZM64.066 18.0232C67.4841 18.0232 70.5738 19.4082 72.811 21.6456C75.0483 23.8827 76.4284 26.9724 76.4284 30.3854C76.4284 33.7987 75.0481 36.893 72.811 39.1304C70.3745 41.5669 67.0706 42.8625 63.6274 42.7428V53.7351C63.6274 54.4674 63.0345 55.0556 62.307 55.0556H26.6998C25.9723 55.0556 25.3794 54.4674 25.3794 53.7351V30.1664C25.3794 29.4388 25.9723 28.8508 26.6998 28.8508H41.5189C42.2463 28.8508 42.8343 29.439 42.8343 30.1664C42.8343 30.8987 42.2461 31.4869 41.5189 31.4869H30.3723C35.0809 35.3533 39.7948 39.2253 44.5037 43.0918C47.3636 40.7451 50.2188 38.3982 53.079 36.051C52.3614 34.6609 51.8979 33.1211 51.7536 31.4869H47.4881C46.7605 31.4869 46.1727 30.8987 46.1727 30.1664C46.1727 29.4388 46.7607 28.8508 47.4881 28.8508H51.8032C52.147 26.0506 53.4328 23.5442 55.3262 21.6457C57.5635 19.4082 60.6529 18.0232 64.066 18.0232ZM60.9916 42.3642C58.814 41.8063 56.8658 40.6702 55.3262 39.1305C55.047 38.8517 54.783 38.5575 54.5337 38.2537L50.0292 41.9509L60.9914 50.955V42.3642H60.9916ZM70.9475 23.5094C69.1835 21.7503 66.7518 20.6642 64.066 20.6642C61.3852 20.6642 58.9536 21.7505 57.1898 23.5094C55.4308 25.2682 54.3446 27.7 54.3446 30.3854C54.3446 33.0712 55.4308 35.5029 57.1898 37.2618C58.9536 39.0259 61.3852 40.1119 64.066 40.1119C66.7516 40.1119 69.1834 39.0259 70.9475 37.2618C72.7064 35.5029 73.7925 33.0712 73.7925 30.3854C73.7925 27.7 72.7062 25.2682 70.9475 23.5094ZM41.0454 43.6548L30.3721 52.4194H58.6347L47.9613 43.6548L45.3355 45.8074C44.8371 46.2159 44.1298 46.1961 43.6513 45.7926L41.0454 43.6548ZM28.0152 50.9548L38.9775 41.9508L28.0152 32.9518V50.9548ZM41.4839 72.3908C40.7564 72.3908 40.1684 71.7979 40.1684 71.0703C40.1684 70.3428 40.7565 69.7551 41.4839 69.7551H49.5161C50.2435 69.7551 50.8365 70.3429 50.8365 71.0703C50.8365 71.7979 50.2435 72.3908 49.5161 72.3908H41.4839ZM8.5724 60.2826C8.5724 59.5551 9.16039 58.9622 9.88777 58.9622C10.6153 58.9622 11.2082 59.5551 11.2082 60.2826V64.0795H79.7967V27.3412C79.7967 26.6137 80.3848 26.0257 81.112 26.0257C81.8396 26.0257 82.4327 26.6138 82.4327 27.3412V64.0795H88.0883C89.4088 64.0795 90.5 65.1757 90.5 66.4962V68.6737C90.5 71.2549 89.4436 73.6018 87.7445 75.3056C86.0453 77.0051 83.6983 78.0611 81.1122 78.0611H9.88777C7.30643 78.0611 4.95957 77.0051 3.25555 75.3056C1.55645 73.6018 0.5 71.2547 0.5 68.6737V66.4962C0.5 65.1757 1.59125 64.0795 2.91664 64.0795H8.5724V60.2826ZM82.4327 21.3717C82.4327 22.0993 81.8396 22.6871 81.112 22.6871C80.3847 22.6871 79.7967 22.0991 79.7967 21.3717V18.8106C79.7967 17.6494 79.3184 16.5882 78.5511 15.8209C77.7838 15.0536 76.7224 14.5749 75.5614 14.5749H15.4437C14.2776 14.5749 13.2213 15.0536 12.454 15.8209C11.6865 16.5882 11.2082 17.6494 11.2082 18.8106V54.3082C11.2082 55.0357 10.6153 55.6287 9.88777 55.6287C9.16021 55.6287 8.5724 55.0357 8.5724 54.3082V18.8106C8.5724 16.922 9.34461 15.2028 10.5904 13.9574C11.831 12.7115 13.55 11.9395 15.4435 11.9395H75.5614C77.4498 11.9395 79.1688 12.7117 80.4146 13.9574C81.6601 15.203 82.4325 16.922 82.4325 18.8106V21.3717H82.4327Z" stroke="url(#paint1_linear)" stroke-width="0.6" mask="url(#path-1-outside-1)"/>
</g>
<defs>
<linearGradient id="paint0_linear" x1="0.499996" y1="64.4996" x2="69.0869" y2="3.48351" gradientUnits="userSpaceOnUse">
<stop stop-color="#234DAE"/>
<stop offset="1" stop-color="#347BCE"/>
</linearGradient>
<linearGradient id="paint1_linear" x1="0.499996" y1="64.4996" x2="69.0869" y2="3.48351" gradientUnits="userSpaceOnUse">
<stop stop-color="#234DAE"/>
<stop offset="1" stop-color="#347BCE"/>
</linearGradient>
<clipPath id="clip0">
<rect width="90" height="90" fill="white" transform="translate(0.5)"/>
</clipPath>
</defs>
</svg>
