<svg id="ico-pen" width="24" height="24" viewBox="0 0 24 24" fill="none" xmlns="http://www.w3.org/2000/svg">
<path d="M11 6H5.55556C5.143 6 4.74733 6.16389 4.45561 6.45561C4.16389 6.74733 4 7.143 4 7.55556V18.4444C4 18.857 4.16389 19.2527 4.45561 19.5444C4.74733 19.8361 5.143 20 5.55556 20H16.4444C16.857 20 17.2527 19.8361 17.5444 19.5444C17.8361 19.2527 18 18.857 18 18.4444V13" stroke="black" stroke-width="2.25"/>
<path d="M16.9227 4.52798C17.2607 4.18992 17.7193 4 18.1973 4C18.6754 4 19.134 4.18992 19.472 4.52798C19.8101 4.86605 20 5.32456 20 5.80265C20 6.28075 19.8101 6.73926 19.472 7.07732L11.3991 15.1502L8 16L8.84978 12.6009L16.9227 4.52798Z" stroke="black" stroke-width="2.25" stroke-linecap="round" stroke-linejoin="round"/>
</svg>
