<svg width="776" height="679" viewBox="0 0 776 679" fill="none" xmlns="http://www.w3.org/2000/svg">
<g clip-path="url(#clip0)">
<path d="M758.715 632.42H697.745V632.972H758.715V632.42Z" fill="#EBEBEB"/>
<path d="M540.07 637.575H524.045V638.128H540.07V637.575Z" fill="#EBEBEB"/>
<path d="M695.903 615.482H660.537V616.034H695.903V615.482Z" fill="#EBEBEB"/>
<path d="M106.279 618.428H26.7051V618.98H106.279V618.428Z" fill="#EBEBEB"/>
<path d="M134.277 618.428H122.673V618.98H134.277V618.428Z" fill="#EBEBEB"/>
<path d="M344.819 626.344H172.223V626.897H344.819V626.344Z" fill="#EBEBEB"/>
<path d="M366.554 520.665H10.8641C5.15395 520.665 0.364746 515.878 0.364746 510.171V10.4943C0.364746 4.78688 5.15395 0 10.8641 0H366.554C372.265 0 377.054 4.78688 377.054 10.4943V510.171C377.054 516.062 372.449 520.665 366.554 520.665ZM10.8641 0.552332C5.33815 0.552332 0.733148 4.97099 0.733148 10.6784V510.355C0.733148 515.878 5.15395 520.481 10.8641 520.481H366.554C372.08 520.481 376.685 516.062 376.685 510.355V10.4943C376.685 4.97099 372.265 0.368221 366.554 0.368221H10.8641V0.552332Z" fill="#304F95"/>
<path d="M764.979 520.665H409.288C403.578 520.665 398.789 515.878 398.789 510.171V10.4943C398.789 4.78688 403.578 0 409.288 0H764.979C770.689 0 775.478 4.78688 775.478 10.4943V510.171C775.478 516.062 770.873 520.665 764.979 520.665ZM409.288 0.552332C403.762 0.552332 399.157 4.97099 399.157 10.6784V510.355C399.157 515.878 403.578 520.481 409.288 520.481H764.979C770.505 520.481 775.11 516.062 775.11 510.355V10.4943C775.11 4.97099 770.689 0.368221 764.979 0.368221H409.288V0.552332Z" fill="#304F95"/>
<path d="M851 602.778H-70V603.331H851V602.778Z" fill="#EBEBEB"/>
<path d="M400.079 413.144C404.453 413.144 407.999 409.6 407.999 405.227C407.999 400.855 404.453 397.311 400.079 397.311C395.704 397.311 392.158 400.855 392.158 405.227C392.158 409.6 395.704 413.144 400.079 413.144Z" stroke="#343B43" stroke-width="3" stroke-miterlimit="10"/>
<path d="M405.604 410.935L418.314 423.639" stroke="#343B43" stroke-width="3" stroke-miterlimit="10"/>
<path d="M696.272 145.632C726.791 145.632 751.532 120.903 751.532 90.3983C751.532 59.8939 726.791 35.1652 696.272 35.1652C665.753 35.1652 641.012 59.8939 641.012 90.3983C641.012 120.903 665.753 145.632 696.272 145.632Z" fill="#E0E0E0"/>
<path d="M696.457 146.92C665.327 146.92 639.907 121.513 639.907 90.3984C639.907 59.2837 665.327 33.8764 696.457 33.8764V36.2698C666.616 36.2698 642.486 60.3883 642.486 90.2142C642.486 120.04 666.616 144.159 696.457 144.159V146.92Z" fill="white"/>
<path d="M696.457 146.92V144.527C726.297 144.527 750.427 120.408 750.427 90.5824C750.427 60.7565 726.297 36.638 696.457 36.638V34.2446C727.586 34.2446 753.006 59.6518 753.006 90.7665C753.006 121.513 727.586 146.92 696.457 146.92Z" fill="white"/>
<path d="M725.376 90.3983H722.982C722.982 72.1714 713.772 47.6846 695.904 36.2698L697.194 34.2446C715.614 46.0276 725.376 71.4349 725.376 90.3983Z" fill="white"/>
<path d="M697.194 145.079L695.904 143.054C713.588 131.639 722.982 107.152 722.982 88.9254H725.376C725.376 107.705 715.614 133.112 697.194 145.079Z" fill="white"/>
<path d="M670.116 90.3983H667.721C667.721 71.4349 677.484 46.0277 695.904 34.0605L697.193 36.0857C679.326 47.6847 670.116 72.1714 670.116 90.3983Z" fill="white"/>
<path d="M695.72 145.079C677.3 133.296 667.537 107.889 667.537 88.9254H669.932C669.932 107.152 679.142 131.639 697.009 143.054L695.72 145.079Z" fill="white"/>
<path d="M697.562 35.1652H695.167V145.632H697.562V35.1652Z" fill="white"/>
<path d="M743.243 59.836H649.67V62.2294H743.243V59.836Z" fill="white"/>
<path d="M751.533 90.2142H641.197V92.6077H751.533V90.2142Z" fill="white"/>
<path d="M741.954 120.408H650.959V122.802H741.954V120.408Z" fill="white"/>
<path d="M106.096 70.1462C106.096 66.2799 105.543 62.5976 104.438 59.0995L114.016 50.6305L107.938 40.1361L95.9645 44.1866C90.9911 38.8474 84.36 34.9811 76.992 33.1399L74.4131 20.6204H62.256L59.6771 33.1399C52.3091 34.7969 45.6779 38.6633 40.7045 44.1866L28.5473 40.1361L22.4688 50.6305L32.0472 59.0995C30.942 62.5976 30.3893 66.2799 30.3893 70.1462C30.3893 74.0125 30.942 77.6947 32.0472 81.1928L22.4688 89.6619L28.5473 100.156L40.7045 96.1058C45.6779 101.445 52.3091 105.311 59.6771 107.152L62.256 119.672H74.4131L76.992 107.152C84.36 105.495 90.9911 101.445 95.9645 96.1058L108.122 100.156L114.2 89.6619L104.438 81.0087C105.543 77.5106 106.096 73.8284 106.096 70.1462ZM68.3345 90.3984C57.4667 90.3984 48.6251 81.561 48.6251 70.6985C48.6251 59.836 57.4667 50.9987 68.3345 50.9987C79.2023 50.9987 88.044 59.836 88.044 70.6985C88.044 81.7452 79.2023 90.3984 68.3345 90.3984Z" fill="#E0E0E0"/>
<path d="M158.04 122.25C158.04 119.304 157.672 116.542 156.751 113.965L164.119 107.521L159.514 99.6039L150.304 102.734C146.435 98.6834 141.462 95.7376 135.936 94.4488L134.094 84.8751H124.884L123.042 94.4488C117.332 95.7376 112.358 98.6834 108.49 102.734L99.2803 99.6039L94.6753 107.521L102.043 113.965C101.306 116.542 100.754 119.488 100.754 122.25C100.754 125.195 101.122 127.957 102.043 130.534L94.6753 136.978L99.2803 144.895L108.49 141.765C112.358 145.816 117.332 148.761 123.042 150.05L124.884 159.624H134.094L135.936 150.05C141.646 148.761 146.62 145.816 150.304 141.765L159.514 144.895L164.119 136.978L156.751 130.534C157.672 127.957 158.04 125.195 158.04 122.25ZM129.305 137.715C121.016 137.715 114.385 131.087 114.385 122.802C114.385 114.517 121.016 107.889 129.305 107.889C137.594 107.889 144.225 114.517 144.225 122.802C144.225 131.087 137.594 137.715 129.305 137.715Z" fill="#E0E0E0"/>
<path d="M295.821 74.749L300.795 64.807L305.584 74.749L316.636 76.406L308.715 83.9545L310.557 95.0011L300.795 89.846L291.032 95.0011L292.874 84.1386L284.954 76.406L295.821 74.749Z" fill="#EBEBEB"/>
<path d="M340.398 74.749L345.187 64.807L350.16 74.749L361.028 76.406L353.107 83.9545L355.134 95.0011L345.187 89.846L335.424 95.0011L337.266 84.1386L329.346 76.406L340.398 74.749Z" fill="#EBEBEB"/>
<path d="M384.79 74.749L389.763 64.807L394.736 74.749L405.604 76.406L397.684 83.9545L399.526 95.0011L389.763 89.846L380 95.0011L381.842 84.1386L373.922 76.406L384.79 74.749Z" fill="#EBEBEB"/>
<path d="M429.366 74.749L434.34 64.807L439.129 74.749L450.181 76.406L442.26 83.9545L444.102 95.0011L434.34 89.846L424.577 95.0011L426.419 84.1386L418.499 76.406L429.366 74.749Z" fill="#EBEBEB"/>
<path d="M473.943 74.749L478.732 64.807L483.705 74.749L494.573 76.406L486.652 83.9545L488.494 95.0011L478.732 89.846L468.969 95.0011L470.811 84.1386L462.891 76.406L473.943 74.749Z" fill="#EBEBEB"/>
<path d="M381.658 678.816C578.914 678.816 738.822 669.501 738.822 658.011C738.822 646.521 578.914 637.207 381.658 637.207C184.402 637.207 24.4946 646.521 24.4946 658.011C24.4946 669.501 184.402 678.816 381.658 678.816Z" fill="#F5F5F5"/>
<path d="M261.008 639.785L260.639 644.019C260.639 644.571 260.639 645.124 260.823 645.492C260.823 645.676 261.008 645.86 261.192 646.228C261.376 646.597 261.376 646.597 261.56 646.781C261.744 646.965 261.929 647.149 262.113 647.333C262.665 647.701 263.402 648.07 264.323 648.07H416.104C416.472 648.07 416.841 648.07 417.209 647.885C417.393 647.885 417.762 647.701 417.946 647.517C418.498 647.333 419.051 646.781 419.42 646.413C419.604 646.228 419.604 646.044 419.788 645.86C419.972 645.492 420.156 644.94 420.156 644.387L420.525 640.337C420.525 639.785 420.525 639.416 420.341 638.864C420.341 638.68 420.156 638.496 419.972 638.312C419.604 637.759 419.235 637.391 418.867 637.207C418.683 637.023 418.499 637.023 418.314 636.839C417.946 636.655 417.578 636.655 417.209 636.655H379.448C378.896 636.655 378.527 636.655 377.975 636.471C377.79 636.471 377.606 636.471 377.422 636.286C377.238 636.286 377.054 636.102 376.869 636.102C376.685 636.102 376.501 635.918 376.317 635.918C376.133 635.734 375.764 635.55 375.58 635.366C375.212 635.182 375.027 634.814 374.843 634.629C374.659 634.445 374.659 634.261 374.475 634.077C374.291 633.893 374.291 633.893 374.291 633.709V633.525C374.106 633.341 374.106 633.157 374.106 632.972C374.106 632.788 373.922 632.604 373.922 632.42C373.922 632.42 373.922 632.42 373.922 632.236V632.052C373.922 631.868 373.922 631.684 373.738 631.684C373.738 631.5 373.738 631.315 373.554 631.131C373.554 630.947 373.554 630.763 373.554 630.579C373.554 630.395 373.554 630.211 373.554 630.027V629.843C373.554 629.658 373.554 629.474 373.554 629.29C373.554 629.106 373.554 628.922 373.738 628.738L388.658 571.848L391.421 560.985L393.632 552.332H307.426L302.821 560.985L296.927 571.848L263.402 633.893C263.218 634.077 263.218 634.261 263.034 634.629C262.85 634.814 262.85 635.182 262.665 635.366C262.481 635.55 262.481 635.918 262.297 636.102C262.297 636.286 262.113 636.471 262.113 636.655C261.192 637.575 261.008 638.68 261.008 639.785Z" fill="#343B43"/>
<path opacity="0.2" d="M420.34 640.153L419.972 644.387C419.787 646.413 417.945 648.07 415.919 648.07H264.138C261.928 648.07 260.27 646.228 260.454 644.019L260.823 639.785C261.007 638.68 261.191 637.575 261.56 636.471C261.928 635.55 262.296 634.629 262.665 633.709L306.689 552.148H392.894L373.001 628.554C372.816 629.106 372.816 629.474 372.816 629.843C372.632 632.972 374.658 635.734 377.79 636.471C378.158 636.655 378.711 636.655 379.263 636.655H417.024C419.051 636.655 420.524 638.128 420.34 640.153Z" fill="white"/>
<path d="M257.876 633.709L301.9 552.148H306.689L262.665 633.709C261.56 635.55 261.007 637.759 260.823 639.785L260.455 644.019C260.27 646.228 261.928 648.07 264.139 648.07H259.349C257.139 648.07 255.481 646.228 255.665 644.019L256.034 639.785C256.218 637.575 256.955 635.55 257.876 633.709Z" fill="#343B43"/>
<path opacity="0.3" d="M306.873 551.964H393.079L387.921 571.479H296.374L306.873 551.964Z" fill="#343B43"/>
<path d="M160.619 281.505V518.456V547.177C160.619 554.541 166.697 560.617 174.065 560.617H541.913C549.281 560.617 555.359 554.541 555.359 547.177V518.456V281.505C555.359 274.141 549.281 268.065 541.913 268.065H174.065C170.934 268.065 168.171 269.17 165.96 270.827C165.592 271.011 165.224 271.379 165.039 271.563C164.118 272.3 163.382 273.404 162.645 274.325C162.276 275.061 161.908 275.798 161.54 276.534C160.987 278.191 160.619 279.848 160.619 281.505Z" fill="#343B43"/>
<path d="M555.175 518.456V547.177C555.175 554.541 549.096 560.617 541.728 560.617H174.065C166.697 560.617 160.619 554.541 160.619 547.177V518.456H555.175Z" fill="url(#paint0_linear)"/>
<path opacity="0.6" d="M555.175 518.456V547.177C555.175 554.541 549.096 560.617 541.728 560.617H174.065C166.697 560.617 160.619 554.541 160.619 547.177V518.456H555.175Z" fill="white"/>
<path d="M174.249 510.355H541.544C545.596 510.355 548.912 507.041 548.912 502.99V283.53C548.912 279.48 545.596 276.166 541.544 276.166H174.249C170.196 276.166 166.881 279.48 166.881 283.53V502.99C167.065 507.041 170.196 510.355 174.249 510.355Z" fill="url(#paint1_linear)"/>
<path d="M165.96 268.065H174.065C166.697 268.065 160.618 274.141 160.618 281.505V547.177C160.618 554.541 166.697 560.617 174.065 560.617H165.96C158.592 560.617 152.514 554.541 152.514 547.177V281.505C152.514 274.141 158.408 268.065 165.96 268.065Z" fill="#343B43"/>
<g opacity="0.2">
<path opacity="0.2" d="M165.96 268.065H174.065C166.697 268.065 160.618 274.141 160.618 281.505V547.177C160.618 554.541 166.697 560.617 174.065 560.617H165.96C158.592 560.617 152.514 554.541 152.514 547.177V281.505C152.514 274.141 158.408 268.065 165.96 268.065Z" fill="white"/>
</g>
<path opacity="0.5" d="M551.123 416.09C541.728 414.249 526.624 420.325 523.861 429.53C524.598 424.007 521.65 418.115 516.677 415.17C511.888 412.408 505.441 410.383 500.836 413.697C505.257 395.654 498.625 375.402 484.074 363.803C469.706 352.204 448.707 350.915 431.945 359.016C436.918 349.626 437.287 338.027 433.05 328.269C428.814 318.511 421.077 312.068 411.13 308.569C388.105 300.469 363.054 298.075 338.924 301.757C324.925 303.783 310.557 308.201 300.426 317.959C290.295 327.717 287.532 345.576 294.348 357.911C278.691 352.572 260.086 356.991 248.482 368.774C236.877 380.557 233.009 398.784 238.535 414.433C234.298 411.856 228.588 411.671 224.167 413.881C219.747 416.09 216.615 420.693 216.063 425.664C210.168 417.931 200.406 413.328 190.827 413.697C181.065 414.065 171.67 419.22 166.329 427.505V510.171H548.912L551.123 416.09Z" fill="white"/>
<path d="M465.838 416.09H268.929C258.982 416.09 250.877 407.989 250.877 398.047C250.877 388.105 258.982 380.004 268.929 380.004H465.838C475.785 380.004 483.89 388.105 483.89 398.047C484.074 407.805 475.969 416.09 465.838 416.09Z" fill="white"/>
<path d="M267.823 402.098C272.197 402.098 275.743 398.553 275.743 394.181C275.743 389.809 272.197 386.264 267.823 386.264C263.448 386.264 259.902 389.809 259.902 394.181C259.902 398.553 263.448 402.098 267.823 402.098Z" stroke="#343B43" stroke-width="3" stroke-miterlimit="10"/>
<path d="M273.349 399.888L286.058 412.592" stroke="#343B43" stroke-width="3" stroke-miterlimit="10"/>
<g opacity="0.1">
<path opacity="0.1" d="M424.577 276.166H438.576L467.864 510.355H453.865L424.577 276.166Z" fill="white"/>
<path opacity="0.1" d="M482.232 510.355L452.944 276.166H505.994L535.282 510.355H482.232Z" fill="white"/>
</g>
<path opacity="0.2" d="M287.164 640.153L286.795 644.019C286.611 646.044 288.085 647.885 290.295 647.885H415.919C417.946 647.885 419.788 646.228 419.972 644.203L420.34 640.153C420.524 638.128 419.051 636.471 417.025 636.471H379.264C378.711 636.471 378.343 636.471 377.79 636.286H291.216C289.19 636.471 287.348 638.128 287.164 640.153Z" fill="white"/>
<path opacity="0.2" d="M261.56 636.471H377.79C374.659 635.918 372.633 633.156 372.817 629.842H265.06L261.56 636.471Z" fill="#343B43"/>
<path d="M321.057 357.911L323.635 352.204C326.398 354.229 330.451 355.518 334.319 355.518C338.74 355.518 340.582 354.045 340.582 352.02C340.582 345.944 321.793 350.178 321.793 338.027C321.793 332.504 326.214 327.901 335.424 327.901C339.477 327.901 343.713 328.822 346.66 330.847L344.266 336.554C341.319 334.897 338.187 333.977 335.24 333.977C330.819 333.977 329.161 335.634 329.161 337.659C329.161 343.55 347.95 339.5 347.95 351.467C347.95 356.806 343.529 361.593 334.135 361.593C328.977 361.777 323.82 360.12 321.057 357.911Z" fill="#343B43"/>
<path d="M378.159 355.149V361.225H353.108V328.822H377.606V334.897H360.66V341.893H375.764V347.785H360.66V355.334H378.159V355.149Z" fill="#343B43"/>
<path d="M382.026 345.023C382.026 335.45 389.579 328.269 399.71 328.269C409.841 328.269 417.393 335.265 417.393 345.023C417.393 354.781 409.841 361.777 399.71 361.777C389.579 361.777 382.026 354.597 382.026 345.023ZM409.841 345.023C409.841 338.948 405.42 334.713 399.71 334.713C393.999 334.713 389.579 338.948 389.579 345.023C389.579 351.099 393.999 355.334 399.71 355.334C405.604 355.334 409.841 351.099 409.841 345.023Z" fill="#343B43"/>
<path opacity="0.8" d="M357.712 470.403H279.98C276.111 470.403 272.796 467.273 272.796 463.222V446.837C272.796 442.97 275.927 439.656 279.98 439.656H357.712C361.58 439.656 364.896 442.786 364.896 446.837V463.222C364.896 467.273 361.58 470.403 357.712 470.403Z" fill="white"/>
<path opacity="0.8" d="M470.443 470.403H392.71C388.842 470.403 385.526 467.273 385.526 463.222V446.836C385.526 442.97 388.658 439.656 392.71 439.656H470.443C474.311 439.656 477.626 442.786 477.626 446.836V463.222C477.626 467.273 474.311 470.403 470.443 470.403Z" fill="white"/>
<path d="M316.636 286.66L362.317 205.652C363.054 204.363 364.896 204.363 365.449 205.652L411.13 286.66C411.867 287.949 410.946 289.422 409.473 289.422H318.109C316.82 289.422 316.083 287.949 316.636 286.66Z" fill="url(#paint2_linear)"/>
<path opacity="0.3" d="M316.636 286.66L362.317 205.652C363.054 204.363 364.896 204.363 365.449 205.652L411.13 286.66C411.867 287.949 410.946 289.422 409.473 289.422H318.109C316.82 289.422 316.083 287.949 316.636 286.66Z" fill="#343B43"/>
<path d="M342.24 301.573L340.029 292.552H332.109L329.898 301.573C333.582 303.046 338.003 303.23 342.24 301.573Z" fill="#343B43"/>
<path opacity="0.2" d="M332.109 292.368C332.109 292.368 331.741 293.656 331.557 294.577C334.504 295.498 337.635 295.498 340.582 294.577L340.03 292.368H332.109Z" fill="white"/>
<path opacity="0.4" d="M331.004 296.786C330.82 297.339 330.636 297.891 330.636 298.443C334.136 299.548 338.004 299.548 341.688 298.443L341.319 296.786C337.635 297.523 334.32 297.523 331.004 296.786Z" fill="white"/>
<path d="M344.45 291.815C338.74 294.209 332.846 294.025 327.504 291.815V224.247C327.504 216.33 330.819 209.15 335.977 203.81C341.135 208.966 344.45 216.146 344.45 224.247V291.815Z" fill="url(#paint3_linear)"/>
<path d="M327.504 224.247C327.504 224.247 327.504 281.137 327.504 287.949C332.846 289.79 338.74 289.974 344.45 287.949C344.45 281.137 344.45 224.247 344.45 224.247C344.45 216.33 341.135 209.15 335.977 203.81C330.819 209.15 327.504 216.33 327.504 224.247Z" fill="url(#paint4_linear)"/>
<path opacity="0.4" d="M327.504 224.247C327.504 224.247 327.504 281.137 327.504 287.949C332.846 289.79 338.74 289.974 344.45 287.949C344.45 281.137 344.45 224.247 344.45 224.247C344.45 216.33 341.135 209.15 335.977 203.81C330.819 209.15 327.504 216.33 327.504 224.247Z" fill="white"/>
<path d="M327.504 224.247C327.504 224.247 327.504 252.968 327.504 272.116C332.846 273.588 338.74 273.773 344.45 272.116C344.45 252.968 344.45 224.247 344.45 224.247C344.45 216.33 341.135 209.15 335.977 203.81C330.819 209.15 327.504 216.33 327.504 224.247Z" fill="url(#paint5_linear)"/>
<path opacity="0.6" d="M327.504 224.247C327.504 224.247 327.504 252.968 327.504 272.116C332.846 273.588 338.74 273.773 344.45 272.116C344.45 252.968 344.45 224.247 344.45 224.247C344.45 216.33 341.135 209.15 335.977 203.81C330.819 209.15 327.504 216.33 327.504 224.247Z" fill="white"/>
<path d="M327.504 224.247C327.504 224.247 327.504 235.846 327.504 249.286C332.846 250.759 338.74 250.943 344.45 249.286C344.45 235.846 344.45 224.247 344.45 224.247C344.45 216.33 341.135 209.15 335.977 203.81C330.819 209.15 327.504 216.33 327.504 224.247Z" fill="url(#paint6_linear)"/>
<path opacity="0.8" d="M327.504 224.247C327.504 224.247 327.504 235.846 327.504 249.286C332.846 250.759 338.74 250.943 344.45 249.286C344.45 235.846 344.45 224.247 344.45 224.247C344.45 216.33 341.135 209.15 335.977 203.81C330.819 209.15 327.504 216.33 327.504 224.247Z" fill="white"/>
<path d="M327.504 224.247C327.504 224.247 327.504 225.351 327.504 227.193C332.846 228.665 338.74 228.85 344.45 227.193C344.45 225.351 344.45 224.247 344.45 224.247C344.45 216.33 341.135 209.15 335.977 203.81C330.819 209.15 327.504 216.33 327.504 224.247Z" fill="url(#paint7_linear)"/>
<path opacity="0.4" d="M327.504 224.247C327.504 224.247 327.504 225.351 327.504 227.193C332.846 228.665 338.74 228.85 344.45 227.193C344.45 225.351 344.45 224.247 344.45 224.247C344.45 216.33 341.135 209.15 335.977 203.81C330.819 209.15 327.504 216.33 327.504 224.247Z" fill="white"/>
<path d="M396.579 301.573L394.368 292.552H386.448L384.237 301.573C387.921 303.046 392.342 303.23 396.579 301.573Z" fill="#343B43"/>
<path opacity="0.2" d="M386.264 292.368C386.264 292.368 385.895 293.656 385.711 294.577C388.658 295.498 391.79 295.498 394.737 294.577L394.184 292.368H386.264Z" fill="white"/>
<path opacity="0.4" d="M385.158 296.786C384.974 297.339 384.79 297.891 384.79 298.443C388.289 299.548 392.158 299.548 395.842 298.443L395.473 296.786C391.973 297.523 388.474 297.523 385.158 296.786Z" fill="white"/>
<path d="M398.789 291.815C393.079 294.209 387.185 294.025 381.843 291.815V224.247C381.843 216.33 385.158 209.15 390.316 203.81C395.474 208.966 398.789 216.146 398.789 224.247V291.815Z" fill="url(#paint8_linear)"/>
<path d="M381.843 224.247C381.843 224.247 381.843 281.137 381.843 287.949C387.185 289.79 393.079 289.974 398.789 287.949C398.789 281.137 398.789 224.247 398.789 224.247C398.789 216.33 395.474 209.15 390.316 203.81C385.158 209.15 381.843 216.33 381.843 224.247Z" fill="url(#paint9_linear)"/>
<path opacity="0.4" d="M381.843 224.247C381.843 224.247 381.843 281.137 381.843 287.949C387.185 289.79 393.079 289.974 398.789 287.949C398.789 281.137 398.789 224.247 398.789 224.247C398.789 216.33 395.474 209.15 390.316 203.81C385.158 209.15 381.843 216.33 381.843 224.247Z" fill="white"/>
<path d="M381.843 224.247C381.843 224.247 381.843 252.968 381.843 272.116C387.185 273.588 393.079 273.773 398.789 272.116C398.789 252.968 398.789 224.247 398.789 224.247C398.789 216.33 395.474 209.15 390.316 203.81C385.158 209.15 381.843 216.33 381.843 224.247Z" fill="url(#paint10_linear)"/>
<path opacity="0.6" d="M381.843 224.247C381.843 224.247 381.843 252.968 381.843 272.116C387.185 273.588 393.079 273.773 398.789 272.116C398.789 252.968 398.789 224.247 398.789 224.247C398.789 216.33 395.474 209.15 390.316 203.81C385.158 209.15 381.843 216.33 381.843 224.247Z" fill="white"/>
<path d="M381.843 224.247C381.843 224.247 381.843 235.846 381.843 249.286C387.185 250.759 393.079 250.943 398.789 249.286C398.789 235.846 398.789 224.247 398.789 224.247C398.789 216.33 395.474 209.15 390.316 203.81C385.158 209.15 381.843 216.33 381.843 224.247Z" fill="url(#paint11_linear)"/>
<path opacity="0.8" d="M381.843 224.247C381.843 224.247 381.843 235.846 381.843 249.286C387.185 250.759 393.079 250.943 398.789 249.286C398.789 235.846 398.789 224.247 398.789 224.247C398.789 216.33 395.474 209.15 390.316 203.81C385.158 209.15 381.843 216.33 381.843 224.247Z" fill="white"/>
<path d="M381.843 224.247C381.843 224.247 381.843 225.351 381.843 227.193C387.185 228.665 393.079 228.85 398.789 227.193C398.789 225.351 398.789 224.247 398.789 224.247C398.789 216.33 395.474 209.15 390.316 203.81C385.158 209.15 381.843 216.33 381.843 224.247Z" fill="url(#paint12_linear)"/>
<path opacity="0.4" d="M381.843 224.247C381.843 224.247 381.843 225.351 381.843 227.193C387.185 228.665 393.079 228.85 398.789 227.193C398.789 225.351 398.789 224.247 398.789 224.247C398.789 216.33 395.474 209.15 390.316 203.81C385.158 209.15 381.843 216.33 381.843 224.247Z" fill="white"/>
<path d="M373.186 306.728L369.686 291.999H356.792L353.292 306.728C359.371 309.306 366.554 309.49 373.186 306.728Z" fill="#343B43"/>
<path opacity="0.2" d="M356.792 291.999C356.792 291.999 356.239 294.209 355.871 295.498C360.476 296.786 365.634 296.97 370.423 295.498L369.502 291.999H356.792Z" fill="white"/>
<path opacity="0.4" d="M354.95 299.18C354.765 300.1 354.581 301.021 354.213 301.941C359.923 303.598 366.002 303.783 371.896 301.941L371.159 299.18C365.817 300.284 360.291 300.284 354.95 299.18Z" fill="white"/>
<path d="M376.87 291.079C367.844 294.761 358.081 294.577 349.608 291.079V181.901C349.608 169.014 354.766 157.415 363.239 148.945C371.712 157.415 376.87 169.014 376.87 181.901V291.079Z" fill="url(#paint13_linear)"/>
<path d="M349.608 181.901C349.608 181.901 349.608 273.588 349.608 284.635C358.265 287.581 367.66 287.765 376.87 284.635C376.87 273.588 376.87 181.901 376.87 181.901C376.87 169.014 371.712 157.415 363.239 148.945C354.766 157.415 349.608 169.198 349.608 181.901Z" fill="url(#paint14_linear)"/>
<path opacity="0.4" d="M349.608 181.901C349.608 181.901 349.608 273.588 349.608 284.635C358.265 287.581 367.66 287.765 376.87 284.635C376.87 273.588 376.87 181.901 376.87 181.901C376.87 169.014 371.712 157.415 363.239 148.945C354.766 157.415 349.608 169.198 349.608 181.901Z" fill="white"/>
<path d="M349.608 181.901C349.608 181.901 349.608 228.297 349.608 259.044C358.265 261.437 367.66 261.621 376.87 259.044C376.87 228.297 376.87 181.901 376.87 181.901C376.87 169.014 371.712 157.415 363.239 148.945C354.766 157.415 349.608 169.198 349.608 181.901Z" fill="url(#paint15_linear)"/>
<path opacity="0.6" d="M349.608 181.901C349.608 181.901 349.608 228.297 349.608 259.044C358.265 261.437 367.66 261.621 376.87 259.044C376.87 228.297 376.87 181.901 376.87 181.901C376.87 169.014 371.712 157.415 363.239 148.945C354.766 157.415 349.608 169.198 349.608 181.901Z" fill="white"/>
<path d="M349.608 181.901C349.608 181.901 349.608 200.681 349.608 222.406C358.265 224.799 367.66 224.983 376.87 222.406C376.87 200.865 376.87 181.901 376.87 181.901C376.87 169.014 371.712 157.415 363.239 148.945C354.766 157.415 349.608 169.198 349.608 181.901Z" fill="url(#paint16_linear)"/>
<path opacity="0.8" d="M349.608 181.901C349.608 181.901 349.608 200.681 349.608 222.406C358.265 224.799 367.66 224.983 376.87 222.406C376.87 200.865 376.87 181.901 376.87 181.901C376.87 169.014 371.712 157.415 363.239 148.945C354.766 157.415 349.608 169.198 349.608 181.901Z" fill="white"/>
<path d="M349.608 181.901C349.608 181.901 349.608 183.558 349.608 186.688C358.265 189.082 367.66 189.266 376.87 186.688C376.87 183.742 376.87 181.901 376.87 181.901C376.87 169.014 371.712 157.415 363.239 148.945C354.766 157.415 349.608 169.198 349.608 181.901Z" fill="url(#paint17_linear)"/>
<path opacity="0.1" d="M349.608 181.901C349.608 181.901 349.608 183.558 349.608 186.688C358.265 189.082 367.66 189.266 376.87 186.688C376.87 183.742 376.87 181.901 376.87 181.901C376.87 169.014 371.712 157.415 363.239 148.945C354.766 157.415 349.608 169.198 349.608 181.901Z" fill="white"/>
<path d="M363.238 211.727C367.613 211.727 371.159 208.183 371.159 203.81C371.159 199.438 367.613 195.894 363.238 195.894C358.864 195.894 355.318 199.438 355.318 203.81C355.318 208.183 358.864 211.727 363.238 211.727Z" fill="url(#paint18_linear)"/>
<path d="M363.238 211.727C359.002 211.727 355.686 208.413 355.318 204.363C355.318 204.547 355.318 204.731 355.318 204.915C355.318 209.334 358.818 212.832 363.238 212.832C367.659 212.832 371.159 209.334 371.159 204.915C371.159 204.731 371.159 204.547 371.159 204.363C370.791 208.413 367.291 211.727 363.238 211.727Z" fill="url(#paint19_linear)"/>
<path opacity="0.3" d="M363.238 211.727C359.002 211.727 355.686 208.413 355.318 204.363C355.318 204.547 355.318 204.731 355.318 204.915C355.318 209.334 358.818 212.832 363.238 212.832C367.659 212.832 371.159 209.334 371.159 204.915C371.159 204.731 371.159 204.547 371.159 204.363C370.791 208.413 367.291 211.727 363.238 211.727Z" fill="#343B43"/>
<path d="M363.238 209.334C366.29 209.334 368.764 206.861 368.764 203.81C368.764 200.76 366.29 198.287 363.238 198.287C360.186 198.287 357.712 200.76 357.712 203.81C357.712 206.861 360.186 209.334 363.238 209.334Z" fill="white"/>
<path d="M362.87 209.334L365.08 198.471C364.528 198.287 363.791 198.103 363.238 198.103L361.028 208.966C361.58 209.15 362.133 209.334 362.87 209.334Z" fill="url(#paint20_linear)"/>
<path d="M364.896 209.15L366.922 199.76C366.738 199.576 366.37 199.392 366.001 199.208L363.791 209.518C364.344 209.334 364.712 209.15 364.896 209.15Z" fill="url(#paint21_linear)"/>
<g opacity="0.7">
<path opacity="0.7" d="M362.87 209.334L365.08 198.471C364.528 198.287 363.791 198.103 363.238 198.103L361.028 208.966C361.58 209.15 362.133 209.334 362.87 209.334Z" fill="white"/>
<path opacity="0.7" d="M364.896 209.15L366.922 199.76C366.738 199.576 366.37 199.392 366.001 199.208L363.791 209.518C364.344 209.334 364.712 209.15 364.896 209.15Z" fill="white"/>
</g>
<path d="M566.595 416.642L564.385 417.011C562.543 417.379 561.069 419.036 560.701 420.877L560.517 422.35C560.333 423.823 560.885 425.296 561.99 426.4C565.49 429.53 573.595 435.053 583.542 431.371L591.463 425.48L590.173 414.801L573.595 412.408C572.674 412.408 571.569 412.776 570.832 413.512L566.595 416.642Z" fill="#FAB27B"/>
<path d="M591.647 425.664L613.751 424.559L610.251 412.592L590.357 414.985L591.647 425.664Z" fill="#FAB27B"/>
<path d="M604.909 412.592C604.172 414.065 603.62 415.906 603.988 418.115C604.357 420.14 605.278 424.007 607.488 426.4C603.804 426.4 600.12 427.321 596.804 428.978H596.62C585.2 421.061 591.831 411.855 591.831 411.855L592.568 412.04C596.62 412.776 600.673 412.96 604.909 412.592Z" fill="url(#paint22_linear)"/>
<path d="M650.038 422.534C629.592 427.321 604.173 426.768 604.173 426.768C603.252 425.296 603.067 423.639 603.067 422.166C603.252 418.668 603.804 414.433 604.909 412.776C606.199 410.935 615.04 410.198 615.04 410.198C615.04 410.198 632.171 402.282 635.302 399.704C638.434 397.127 638.434 384.975 637.881 377.059C634.566 334.161 642.118 331.031 648.933 329.006C663.117 324.771 668.09 418.299 650.038 422.534Z" fill="url(#paint23_linear)"/>
<path d="M509.678 431.739H566.964C568.806 431.739 569.727 430.267 568.806 428.425L554.439 396.206C553.702 394.365 551.492 392.892 549.65 392.892H492.363C490.521 392.892 489.6 394.365 490.521 396.206L504.889 428.425C505.626 430.267 507.836 431.739 509.678 431.739Z" fill="url(#paint24_linear)"/>
<path opacity="0.2" d="M509.678 431.739H566.964C568.806 431.739 569.727 430.267 568.806 428.425L554.439 396.206C553.702 394.365 551.492 392.892 549.65 392.892H492.363C490.521 392.892 489.6 394.365 490.521 396.206L504.889 428.425C505.626 430.267 507.836 431.739 509.678 431.739Z" fill="#343B43"/>
<path d="M489.784 392.708H492.179C490.337 392.708 489.416 394.181 490.337 396.022L504.705 428.241C505.441 430.082 507.652 431.555 509.494 431.555H507.099C505.257 431.555 503.047 430.082 502.31 428.241L487.942 396.022C487.021 394.181 487.942 392.708 489.784 392.708Z" fill="url(#paint25_linear)"/>
<path opacity="0.4" d="M489.784 392.708H492.179C490.337 392.708 489.416 394.181 490.337 396.022L504.705 428.241C505.441 430.082 507.652 431.555 509.494 431.555H507.099C505.257 431.555 503.047 430.082 502.31 428.241L487.942 396.022C487.021 394.181 487.942 392.708 489.784 392.708Z" fill="#343B43"/>
<path d="M510.783 428.057H562.544L548.545 396.39H496.6L510.783 428.057Z" fill="#343B43"/>
<path opacity="0.8" d="M510.783 428.057H562.544L548.545 396.39H496.6L510.783 428.057Z" fill="white"/>
<path d="M681.167 429.162C681.167 429.162 682.641 448.125 682.825 454.753C684.115 498.94 648.011 502.438 621.487 497.467L525.15 470.587C521.282 483.475 476.705 553.805 476.705 553.805L453.312 540.365C453.312 540.365 477.626 482.186 493.283 441.681C502.309 418.483 575.068 434.501 601.777 439.288C609.882 441.497 608.408 428.794 608.408 428.794L681.167 429.162Z" fill="#343B43"/>
<path d="M470.812 552.516L461.786 567.429L445.208 559.144L453.865 542.206L470.812 552.516Z" fill="#FAB27B"/>
<path d="M436.366 556.014C434.155 555.094 432.129 553.621 431.761 552.332C431.577 551.596 431.945 550.859 432.682 550.491C433.234 550.123 433.787 549.939 434.524 550.123C437.839 550.675 442.444 556.935 442.629 557.303C442.813 557.487 442.813 557.671 442.629 557.855C442.444 558.039 442.26 558.039 442.076 558.039C440.05 557.487 438.208 556.935 436.366 556.014ZM435.076 551.227C434.892 551.043 434.524 551.043 434.155 551.043C433.787 550.859 433.419 551.043 433.05 551.227C432.498 551.596 432.498 551.964 432.498 552.148C432.866 553.621 437.287 555.83 440.787 556.751C439.313 554.725 437.287 552.7 435.076 551.227Z" fill="url(#paint26_linear)"/>
<path d="M441.892 558.039C441.892 558.039 441.708 557.855 441.892 558.039C440.05 556.014 437.471 550.307 438.761 548.466C438.945 547.913 439.682 547.545 440.787 547.913C441.708 548.282 442.445 548.834 442.813 549.754C444.287 552.7 442.445 557.671 442.445 557.855C442.445 558.039 442.261 558.039 442.076 558.224C442.076 558.039 441.892 558.039 441.892 558.039ZM440.787 548.834L440.603 548.65C439.866 548.282 439.682 548.65 439.498 548.834C438.761 549.939 440.234 554.173 441.892 556.566C442.629 554.541 442.629 552.148 442.076 550.123C441.708 549.57 441.34 549.018 440.787 548.834Z" fill="url(#paint27_linear)"/>
<path d="M444.839 556.382L464.18 565.22C464.917 565.588 465.285 566.324 465.101 567.061L461.417 584.367C461.049 585.84 459.575 586.945 458.102 586.576C457.917 586.576 457.733 586.392 457.549 586.392C450.549 583.078 444.655 579.948 435.998 575.898C425.682 571.295 427.709 573.689 415.736 568.35C408.368 565.22 410.946 556.198 414.078 557.303C428.998 561.906 432.314 558.408 440.05 555.83C441.708 555.462 443.366 555.646 444.839 556.382Z" fill="#343B43"/>
<path opacity="0.2" d="M466.206 560.065L470.811 552.516L453.865 542.206L449.628 550.307L466.206 560.065Z" fill="#343B43"/>
<path d="M480.39 552.332L451.286 534.289C451.286 534.289 446.681 536.867 447.602 541.838L475.417 559.696C475.601 559.696 479.469 559.512 480.39 552.332Z" fill="url(#paint28_linear)"/>
<path d="M520.177 626.528L516.677 643.099L498.81 640.705L501.388 622.478L520.177 626.528Z" fill="#FAB27B"/>
<path d="M489.6 640.705C487.205 640.521 484.811 639.784 484.258 638.68C483.89 638.127 484.074 637.207 484.442 636.655C484.811 636.102 485.363 635.918 485.916 635.734C489.231 635.182 495.31 639.6 495.678 639.784C495.863 639.969 495.863 640.153 495.863 640.337C495.863 640.521 495.678 640.705 495.494 640.705C493.468 640.889 491.626 640.889 489.6 640.705ZM487.021 636.839C486.653 636.839 486.468 636.839 486.1 636.839C485.732 636.839 485.363 637.023 485.179 637.391C484.811 637.943 484.811 638.127 484.995 638.312C485.732 639.6 490.521 640.153 494.021 639.969C491.994 638.496 489.6 637.391 487.021 636.839Z" fill="url(#paint29_linear)"/>
<path d="M495.31 640.705H495.126C492.915 639.416 488.863 634.998 489.415 632.972C489.6 632.42 489.968 631.868 491.257 631.868C492.178 631.868 493.099 632.236 493.652 632.788C495.862 634.998 495.862 640.153 495.862 640.337C495.862 640.521 495.678 640.705 495.678 640.705C495.494 640.889 495.494 640.889 495.31 640.705ZM491.442 632.604H491.257C490.521 632.604 490.336 632.972 490.336 632.972C490.152 634.261 492.731 637.759 494.941 639.416C494.941 637.207 494.205 635.182 493.099 633.341C492.547 632.972 491.994 632.788 491.442 632.604Z" fill="url(#paint30_linear)"/>
<path d="M497.52 638.312L518.151 640.337C518.887 640.337 519.624 641.073 519.624 641.81L521.651 658.932C521.835 660.405 520.729 661.878 519.256 662.062C519.072 662.062 518.887 662.062 518.703 662.062C511.335 661.141 504.704 660.221 495.494 659.3C484.626 658.196 487.205 659.852 474.495 658.748C466.759 658.011 466.206 649.174 469.522 649.174C484.626 648.806 486.652 644.387 492.915 639.6C494.389 638.496 496.047 638.127 497.52 638.312Z" fill="#343B43"/>
<path opacity="0.2" d="M499.915 632.052L518.703 633.525L520.177 626.528L501.388 622.478L499.915 632.052Z" fill="#343B43"/>
<path d="M525.518 620.085L524.966 622.11L497.52 619.901L497.704 617.875L525.518 620.085Z" fill="#343B43"/>
<path d="M526.624 628.738L519.809 628.186L500.652 626.528L494.573 625.976C491.442 622.11 494.389 617.875 494.389 617.875L497.889 618.059L525.703 620.269L527.73 620.453C529.756 626.897 526.624 628.738 526.624 628.738Z" fill="url(#paint31_linear)"/>
<path d="M638.249 513.853C613.382 516.062 555.912 516.983 548.175 515.878L525.519 620.085L497.705 617.875C497.705 617.875 500.652 527.845 512.809 490.471C522.572 460.461 680.063 466.72 680.063 466.72L680.615 475.19C681.72 504.279 666.8 511.459 638.249 513.853Z" fill="#343B43"/>
<path opacity="0.1" d="M638.249 513.853C613.382 516.062 555.912 516.983 548.175 515.878L525.519 620.085L497.705 617.875C497.705 617.875 500.652 527.845 512.809 490.471C522.572 460.461 680.063 466.72 680.063 466.72L680.615 475.19C681.72 504.279 666.8 511.459 638.249 513.853Z" fill="#343B43"/>
<path d="M514.282 487.893L514.098 489.918C514.098 489.918 514.098 489.182 514.282 487.893Z" fill="#343B43"/>
<path d="M602.514 325.139L610.066 336.37L627.196 321.641L616.513 308.569L602.514 325.139Z" fill="#FAB27B"/>
<path opacity="0.2" d="M606.198 330.479C609.513 325.692 608.04 317.959 608.04 317.959L605.093 321.825L602.514 325.139L606.198 330.479Z" fill="#343B43"/>
<path d="M573.042 300.653C573.41 301.757 574.331 302.494 575.068 302.126C575.805 301.941 576.173 300.653 575.805 299.732C575.437 298.627 574.516 297.891 573.779 298.259C573.042 298.443 572.674 299.548 573.042 300.653Z" fill="#343B43"/>
<path d="M577.095 301.021L574.7 311.515C574.7 311.515 578.2 312.436 581.7 309.674L577.095 301.021Z" fill="#ED893E"/>
<path d="M571.937 293.104C572.121 292.92 572.305 292.92 572.489 293.104C573.963 293.656 575.437 293.656 576.726 292.736C576.91 292.552 577.279 292.552 577.647 292.92C577.831 293.104 577.831 293.656 577.463 293.841C575.805 294.945 573.779 295.129 571.937 294.393C571.568 294.209 571.384 293.841 571.568 293.656C571.753 293.288 571.937 293.104 571.937 293.104Z" fill="#343B43"/>
<path d="M613.934 281.689C619.46 295.866 622.223 301.757 618.355 312.252C610.803 324.771 593.672 332.32 583.91 319.984C575.068 308.938 567.516 287.581 578.568 275.43C586.489 266.776 599.935 265.856 608.408 273.588C610.803 275.982 612.645 278.744 613.934 281.689Z" fill="#FAB27B"/>
<path d="M627.381 285.924C626.46 290.711 626.092 295.498 625.908 300.284C625.723 303.23 625.171 306.176 623.881 308.754C621.487 314.093 616.698 318.143 611.172 320.537C611.172 320.537 611.356 321.641 611.172 320.537C611.172 320.537 591.094 320.353 582.62 295.129C578.015 295.498 573.042 293.472 570.095 289.974C567.148 286.292 566.042 281.137 567.516 276.718C569.174 271.379 575.989 268.065 581.515 267.881C585.015 262.91 591.278 260.517 597.356 260.701C603.435 260.885 609.145 263.462 614.487 266.408C618.908 268.986 623.329 272.116 625.908 276.718C627.381 279.296 627.934 282.794 627.381 285.924Z" fill="#343B43"/>
<path d="M586.857 298.443C585.568 301.389 585.568 304.703 586.673 307.465C588.147 311.331 592.383 310.595 594.778 307.465C596.988 304.519 598.646 298.996 595.699 296.234C592.752 293.472 588.515 294.945 586.857 298.443Z" fill="#FAB27B"/>
<path d="M627.381 313.356C621.855 313.54 613.75 317.407 602.882 324.771C601.593 325.692 601.225 327.349 601.409 328.822C601.593 330.295 603.067 331.767 604.356 331.215C605.093 333.056 605.645 335.081 606.382 336.922C609.514 334.897 613.566 333.977 616.882 332.504C622.408 330.295 628.118 328.638 633.644 326.981C632.17 324.587 630.144 322.378 629.407 319.616C630.697 319.248 631.433 317.407 631.065 316.118C631.065 314.829 628.855 313.356 627.381 313.356Z" fill="url(#paint32_linear)"/>
<path d="M627.381 313.356C621.855 313.54 613.75 317.407 602.882 324.771C601.593 325.692 601.225 327.349 601.409 328.822C601.593 330.295 603.067 331.767 604.356 331.215C605.093 333.056 605.645 335.081 606.382 336.922C609.514 334.897 613.566 333.977 616.882 332.504C622.408 330.295 628.118 328.638 633.644 326.981C632.17 324.587 630.144 322.378 629.407 319.616C630.697 319.248 631.433 317.407 631.065 316.118C631.065 314.829 628.855 313.356 627.381 313.356Z" fill="url(#paint33_linear)"/>
<path d="M611.171 454.385C611.171 454.385 592.936 411.856 581.331 368.59C572.858 336.738 597.172 336.186 626.644 328.269C650.038 322.01 659.984 327.533 666.615 339.5C673.247 351.283 684.115 451.439 684.115 451.439L611.171 454.385Z" fill="url(#paint34_linear)"/>
<path d="M611.171 454.385C611.171 454.385 592.936 411.856 581.331 368.59C572.858 336.738 597.172 336.186 626.644 328.269C650.038 322.01 659.984 327.533 666.615 339.5C673.247 351.283 684.115 451.439 684.115 451.439L611.171 454.385Z" fill="url(#paint35_linear)"/>
<path opacity="0.3" d="M611.171 454.385C611.171 454.385 592.936 411.856 581.331 368.59C572.858 336.738 597.172 336.186 626.644 328.269C650.038 322.01 659.984 327.533 666.615 339.5C673.247 351.283 684.115 451.439 684.115 451.439L611.171 454.385Z" fill="#343B43"/>
<path d="M504.704 408.542H502.678C500.836 408.542 499.178 409.83 498.625 411.671L498.257 412.96C497.889 414.433 498.073 415.906 498.994 417.011C501.757 420.509 508.572 427.137 518.519 425.296L526.992 421.061L527.545 410.751L512.44 405.78C511.519 405.596 510.598 405.78 509.677 406.332L504.704 408.542Z" fill="#FAB27B"/>
<path d="M526.992 421.061L547.807 423.639L546.701 411.856L527.545 410.751L526.992 421.061Z" fill="#FAB27B"/>
<path d="M541.544 411.119C540.623 412.408 539.702 414.065 539.702 416.274C539.702 418.299 539.886 421.982 541.728 424.743C538.228 424.191 534.544 424.375 531.229 425.48H531.044C521.466 416.09 529.387 408.542 529.387 408.542L530.123 408.726C533.623 409.83 537.491 410.567 541.544 411.119Z" fill="url(#paint36_linear)"/>
<path d="M582.252 427.873C562.175 428.978 538.229 424.191 538.229 424.191C537.676 422.534 537.676 421.061 538.044 419.588C538.781 416.458 539.886 412.408 541.36 410.935C543.018 409.462 551.307 410.199 551.307 410.199C551.307 410.199 568.806 405.596 572.121 403.755C575.621 401.914 577.463 390.499 578.2 382.766C582.252 341.893 589.989 340.052 596.62 339.5C610.803 338.027 600.12 426.953 582.252 427.873Z" fill="url(#paint37_linear)"/>
<path d="M521.651 658.932L540.439 543.31C542.465 531.159 552.965 522.138 565.306 522.138H611.356C624.066 522.138 634.934 531.712 636.407 544.415L650.222 660.589" stroke="#343B43" stroke-width="2" stroke-miterlimit="10"/>
<path d="M585.937 658.932L604.725 543.31C606.752 531.159 617.251 522.138 629.592 522.138H675.642C688.352 522.138 699.22 531.712 700.693 544.415L714.508 660.589" stroke="#343B43" stroke-width="2" stroke-miterlimit="10"/>
<path d="M526.625 628.738H589.989" stroke="#343B43" stroke-width="2" stroke-miterlimit="10"/>
<path d="M636.407 544.231H701.798" stroke="#343B43" stroke-width="2" stroke-miterlimit="10"/>
<path d="M648.38 524.715H696.456C715.061 524.715 730.533 510.539 732.007 491.944L738.822 405.596C739.928 391.603 728.876 379.636 714.876 379.636H688.352C657.406 379.636 629.96 400.072 621.119 429.714L602.699 491.391C599.567 501.702 590.173 508.882 579.305 508.882H545.597C536.755 508.882 529.571 516.062 529.571 524.899H620.013H648.38V524.715Z" fill="url(#paint38_linear)"/>
<path opacity="0.7" d="M648.38 524.715H696.456C715.061 524.715 730.533 510.539 732.007 491.944L738.822 405.596C739.928 391.603 728.876 379.636 714.876 379.636H688.352C657.406 379.636 629.96 400.072 621.119 429.714L602.699 491.391C599.567 501.702 590.173 508.882 579.305 508.882H545.597C536.755 508.882 529.571 516.062 529.571 524.899H620.013H648.38V524.715Z" fill="white"/>
<path d="M513.914 203.074C507.651 208.781 503.046 216.33 500.652 224.431H497.336C498.441 215.041 502.125 206.388 507.467 198.839L513.914 203.074Z" fill="url(#paint39_linear)"/>
<path opacity="0.6" d="M513.914 203.074C507.651 208.781 503.046 216.33 500.652 224.431H497.336C498.441 215.041 502.125 206.388 507.467 198.839L513.914 203.074Z" fill="white"/>
<path d="M533.44 192.027C526.072 194.053 519.44 197.919 513.914 203.074L507.283 198.839C512.625 191.291 519.809 185.031 528.098 180.797L533.44 192.027Z" fill="url(#paint40_linear)"/>
<path opacity="0.5" d="M533.44 192.027C526.072 194.053 519.44 197.919 513.914 203.074L507.283 198.839C512.625 191.291 519.809 185.031 528.098 180.797L533.44 192.027Z" fill="white"/>
<path d="M554.069 174.537L552.412 190.923C550.201 190.555 547.807 190.37 545.228 190.37C541.175 190.37 537.123 190.923 533.255 192.027L527.913 180.797C535.649 176.746 544.123 174.537 553.148 174.537C553.517 174.537 553.885 174.537 554.069 174.537Z" fill="url(#paint41_linear)"/>
<path opacity="0.4" d="M554.069 174.537L552.412 190.923C550.201 190.555 547.807 190.37 545.228 190.37C541.175 190.37 537.123 190.923 533.255 192.027L527.913 180.797C535.649 176.746 544.123 174.537 553.148 174.537C553.517 174.537 553.885 174.537 554.069 174.537Z" fill="white"/>
<path d="M578.752 181.533L568.068 197.183C563.648 194.053 558.306 191.843 552.596 190.923L554.253 174.537C563.279 174.721 571.753 177.299 578.752 181.533Z" fill="url(#paint42_linear)"/>
<path opacity="0.3" d="M578.752 181.533L568.068 197.183C563.648 194.053 558.306 191.843 552.596 190.923L554.253 174.537C563.279 174.721 571.753 177.299 578.752 181.533Z" fill="white"/>
<path d="M595.883 200.128L579.121 209.15C576.358 204.547 572.674 200.496 568.069 197.367L578.752 181.717C586.12 186.136 592.015 192.58 595.883 200.128Z" fill="url(#paint43_linear)"/>
<path opacity="0.2" d="M595.883 200.128L579.121 209.15C576.358 204.547 572.674 200.496 568.069 197.367L578.752 181.717C586.12 186.136 592.015 192.58 595.883 200.128Z" fill="white"/>
<path d="M600.672 225.72L584.278 225.535C583.726 219.46 581.884 213.937 578.937 209.15L595.699 200.128C599.567 207.677 601.409 216.33 600.672 225.72Z" fill="url(#paint44_linear)"/>
<path opacity="0.1" d="M600.672 225.72L584.278 225.535C583.726 219.46 581.884 213.937 578.937 209.15L595.699 200.128C599.567 207.677 601.409 216.33 600.672 225.72Z" fill="white"/>
<path d="M600.672 226.272V226.456C600.304 231.059 598.462 238.792 596.251 243.21L582.989 240.264L584.094 235.109C584.278 234.373 584.278 233.821 584.278 233.084V232.716C584.462 230.322 584.462 227.929 584.278 225.536L600.672 225.72C600.672 225.904 600.672 225.904 600.672 226.088C600.672 226.088 600.672 226.088 600.672 226.272Z" fill="url(#paint45_linear)"/>
<path d="M499.178 242.105L498.257 242.29C497.888 241.001 497.704 239.712 497.52 238.423C496.967 234.557 496.783 230.507 497.152 226.272V226.088V225.904C497.152 225.351 497.336 224.799 497.336 224.431H500.651C499.915 227.008 499.362 229.77 498.994 232.532V232.716V232.9C498.809 234.557 498.809 236.214 498.809 237.871C498.809 239.344 498.994 240.817 499.178 242.105Z" fill="url(#paint46_linear)"/>
<path opacity="0.7" d="M499.178 242.105L498.257 242.29C497.888 241.001 497.704 239.712 497.52 238.423C496.967 234.557 496.783 230.507 497.152 226.272V226.088V225.904C497.152 225.351 497.336 224.799 497.336 224.431H500.651C499.915 227.008 499.362 229.77 498.994 232.532V232.716V232.9C498.809 234.557 498.809 236.214 498.809 237.871C498.809 239.344 498.994 240.817 499.178 242.105Z" fill="white"/>
<path d="M599.567 239.528L598.093 243.026L595.33 242.474L568.805 236.582L557.385 234.005C558.122 232.9 558.858 231.795 559.411 230.691C559.964 229.218 560.332 227.745 560.516 226.272L585.752 234.925L599.567 239.528Z" fill="#343B43"/>
<path d="M560.516 226.088C560.332 228.849 559.227 231.427 557.569 233.82L547.254 231.427L550.57 222.59L560.516 226.088Z" fill="#343B43"/>
<path d="M560.516 226.088C560.332 228.85 559.227 231.427 557.569 233.82C556.28 235.477 554.806 236.766 552.964 237.687C546.333 241.185 538.596 238.976 535.649 232.716C532.702 226.456 535.649 218.539 542.096 215.041C548.727 211.543 556.464 213.752 559.411 220.012C560.332 221.853 560.7 224.063 560.516 226.088Z" fill="url(#paint47_linear)"/>
<path d="M140.909 218.171H151.409V227.008H139.804L138.146 239.896H128.936L130.594 227.008H118.621L116.963 239.896H107.937L109.595 227.008H98.9116V218.171H110.516L112.174 205.099H101.49V196.262H113.095L114.753 183.374H123.779L122.121 196.262H134.094L135.752 183.374H144.777L143.12 196.262H153.619V205.099H142.014L140.909 218.171ZM131.699 218.171L133.357 205.099H121.568L119.91 218.171H131.699Z" fill="url(#paint48_linear)"/>
<path d="M180.881 183.374V240.08H167.803V193.868H156.382V183.374H180.881V183.374Z" fill="url(#paint49_linear)"/>
<path d="M131.514 419.22H40.7036V481.633H131.514V419.22Z" fill="#343B43"/>
<path d="M131.514 419.22H40.7036V424.927H131.514V419.22Z" fill="url(#paint50_linear)"/>
<path d="M57.4654 453.833L72.3856 462.118C73.1224 462.486 73.675 462.854 73.8592 463.222C74.0434 463.591 74.2276 463.959 74.2276 464.511C74.2276 465.063 74.0434 465.616 73.4908 466.168C72.9382 466.72 72.5698 466.905 71.833 466.905C71.4646 466.905 70.912 466.72 69.991 466.168L50.8342 455.49C49.5448 454.753 49.5448 452.912 50.8342 452.176L69.991 441.497C70.7278 441.129 71.4646 440.761 71.833 440.761C72.3856 440.761 72.9382 440.945 73.4908 441.497C74.0434 442.05 74.2276 442.602 74.2276 443.154C74.2276 443.707 74.0434 444.075 73.8592 444.443C73.675 444.811 73.1224 445.18 72.3856 445.548L57.4654 453.833Z" fill="white"/>
<path d="M95.5945 438.552L80.8585 470.219C80.4901 470.955 80.1217 471.507 79.9375 471.691C79.5691 472.06 79.0165 472.244 78.4639 472.244C77.9113 472.244 77.3587 472.06 76.8061 471.507C76.4377 471.139 76.0693 470.587 76.0693 470.034C76.0693 469.666 76.2535 469.114 76.6219 468.193L91.3579 436.526C91.7263 435.79 92.0947 435.238 92.2789 435.053C92.6473 434.685 93.1999 434.501 93.7525 434.501C94.3051 434.501 94.8577 434.685 95.4103 435.238C95.7787 435.606 96.1471 436.158 96.1471 436.71C96.1471 437.079 95.9629 437.815 95.5945 438.552Z" fill="white"/>
<path d="M114.199 453.833L99.279 445.548C98.5422 445.18 97.9896 444.811 97.8054 444.443C97.6212 444.075 97.437 443.707 97.437 443.154C97.437 442.602 97.6212 442.05 98.1738 441.497C98.7264 440.945 99.0948 440.761 99.8316 440.761C100.2 440.761 100.753 440.945 101.674 441.497L120.83 452.176C122.12 452.912 122.12 454.753 120.83 455.49L101.674 466.168C100.937 466.536 100.2 466.905 99.8316 466.905C99.279 466.905 98.7264 466.72 98.1738 466.168C97.8054 465.8 97.437 465.063 97.437 464.511C97.437 463.959 97.6212 463.591 97.8054 463.222C97.9896 462.854 98.5422 462.486 99.279 462.118L114.199 453.833Z" fill="white"/>
</g>
<defs>
<linearGradient id="paint0_linear" x1="160.619" y1="551.97" x2="174.642" y2="466.197" gradientUnits="userSpaceOnUse">
<stop stop-color="#234DAE"/>
<stop offset="1" stop-color="#347BCE"/>
</linearGradient>
<linearGradient id="paint1_linear" x1="166.881" y1="462.323" x2="410.963" y2="202.084" gradientUnits="userSpaceOnUse">
<stop stop-color="#234DAE"/>
<stop offset="1" stop-color="#347BCE"/>
</linearGradient>
<linearGradient id="paint2_linear" x1="316.45" y1="272.042" x2="400.819" y2="210.26" gradientUnits="userSpaceOnUse">
<stop stop-color="#234DAE"/>
<stop offset="1" stop-color="#347BCE"/>
</linearGradient>
<linearGradient id="paint3_linear" x1="327.504" y1="275.138" x2="350.292" y2="272.325" gradientUnits="userSpaceOnUse">
<stop stop-color="#234DAE"/>
<stop offset="1" stop-color="#347BCE"/>
</linearGradient>
<linearGradient id="paint4_linear" x1="327.504" y1="271.845" x2="350.258" y2="268.901" gradientUnits="userSpaceOnUse">
<stop stop-color="#234DAE"/>
<stop offset="1" stop-color="#347BCE"/>
</linearGradient>
<linearGradient id="paint5_linear" x1="327.504" y1="259.04" x2="350.066" y2="255.443" gradientUnits="userSpaceOnUse">
<stop stop-color="#234DAE"/>
<stop offset="1" stop-color="#347BCE"/>
</linearGradient>
<linearGradient id="paint6_linear" x1="327.504" y1="240.893" x2="349.405" y2="235.693" gradientUnits="userSpaceOnUse">
<stop stop-color="#234DAE"/>
<stop offset="1" stop-color="#347BCE"/>
</linearGradient>
<linearGradient id="paint7_linear" x1="327.504" y1="223.331" x2="346.728" y2="214.66" gradientUnits="userSpaceOnUse">
<stop stop-color="#234DAE"/>
<stop offset="1" stop-color="#347BCE"/>
</linearGradient>
<linearGradient id="paint8_linear" x1="381.843" y1="275.138" x2="404.631" y2="272.325" gradientUnits="userSpaceOnUse">
<stop stop-color="#234DAE"/>
<stop offset="1" stop-color="#347BCE"/>
</linearGradient>
<linearGradient id="paint9_linear" x1="381.843" y1="271.845" x2="404.597" y2="268.901" gradientUnits="userSpaceOnUse">
<stop stop-color="#234DAE"/>
<stop offset="1" stop-color="#347BCE"/>
</linearGradient>
<linearGradient id="paint10_linear" x1="381.843" y1="259.04" x2="404.405" y2="255.443" gradientUnits="userSpaceOnUse">
<stop stop-color="#234DAE"/>
<stop offset="1" stop-color="#347BCE"/>
</linearGradient>
<linearGradient id="paint11_linear" x1="381.843" y1="240.893" x2="403.743" y2="235.693" gradientUnits="userSpaceOnUse">
<stop stop-color="#234DAE"/>
<stop offset="1" stop-color="#347BCE"/>
</linearGradient>
<linearGradient id="paint12_linear" x1="381.843" y1="223.331" x2="401.067" y2="214.66" gradientUnits="userSpaceOnUse">
<stop stop-color="#234DAE"/>
<stop offset="1" stop-color="#347BCE"/>
</linearGradient>
<linearGradient id="paint13_linear" x1="349.608" y1="264.068" x2="386.271" y2="259.558" gradientUnits="userSpaceOnUse">
<stop stop-color="#234DAE"/>
<stop offset="1" stop-color="#347BCE"/>
</linearGradient>
<linearGradient id="paint14_linear" x1="349.608" y1="258.617" x2="386.215" y2="253.889" gradientUnits="userSpaceOnUse">
<stop stop-color="#234DAE"/>
<stop offset="1" stop-color="#347BCE"/>
</linearGradient>
<linearGradient id="paint15_linear" x1="349.608" y1="237.945" x2="385.906" y2="232.168" gradientUnits="userSpaceOnUse">
<stop stop-color="#234DAE"/>
<stop offset="1" stop-color="#347BCE"/>
</linearGradient>
<linearGradient id="paint16_linear" x1="349.608" y1="208.821" x2="384.853" y2="200.484" gradientUnits="userSpaceOnUse">
<stop stop-color="#234DAE"/>
<stop offset="1" stop-color="#347BCE"/>
</linearGradient>
<linearGradient id="paint17_linear" x1="349.608" y1="180.429" x2="380.561" y2="166.505" gradientUnits="userSpaceOnUse">
<stop stop-color="#234DAE"/>
<stop offset="1" stop-color="#347BCE"/>
</linearGradient>
<linearGradient id="paint18_linear" x1="355.318" y1="208.48" x2="370.467" y2="198.574" gradientUnits="userSpaceOnUse">
<stop stop-color="#234DAE"/>
<stop offset="1" stop-color="#347BCE"/>
</linearGradient>
<linearGradient id="paint19_linear" x1="355.318" y1="211.095" x2="363.987" y2="200.496" gradientUnits="userSpaceOnUse">
<stop stop-color="#234DAE"/>
<stop offset="1" stop-color="#347BCE"/>
</linearGradient>
<linearGradient id="paint20_linear" x1="361.028" y1="207.03" x2="366.269" y2="205.794" gradientUnits="userSpaceOnUse">
<stop stop-color="#234DAE"/>
<stop offset="1" stop-color="#347BCE"/>
</linearGradient>
<linearGradient id="paint21_linear" x1="363.791" y1="207.403" x2="367.904" y2="206.587" gradientUnits="userSpaceOnUse">
<stop stop-color="#234DAE"/>
<stop offset="1" stop-color="#347BCE"/>
</linearGradient>
<linearGradient id="paint22_linear" x1="589.917" y1="425.466" x2="606.462" y2="414.369" gradientUnits="userSpaceOnUse">
<stop stop-color="#234DAE"/>
<stop offset="1" stop-color="#347BCE"/>
</linearGradient>
<linearGradient id="paint23_linear" x1="603.067" y1="406.704" x2="672.464" y2="379.555" gradientUnits="userSpaceOnUse">
<stop stop-color="#234DAE"/>
<stop offset="1" stop-color="#347BCE"/>
</linearGradient>
<linearGradient id="paint24_linear" x1="490.16" y1="423.772" x2="529.142" y2="371.955" gradientUnits="userSpaceOnUse">
<stop stop-color="#234DAE"/>
<stop offset="1" stop-color="#347BCE"/>
</linearGradient>
<linearGradient id="paint25_linear" x1="487.581" y1="423.588" x2="513.917" y2="413.879" gradientUnits="userSpaceOnUse">
<stop stop-color="#234DAE"/>
<stop offset="1" stop-color="#347BCE"/>
</linearGradient>
<linearGradient id="paint26_linear" x1="431.714" y1="556.401" x2="440.015" y2="548.894" gradientUnits="userSpaceOnUse">
<stop stop-color="#234DAE"/>
<stop offset="1" stop-color="#347BCE"/>
</linearGradient>
<linearGradient id="paint27_linear" x1="438.413" y1="556.079" x2="444.603" y2="554.155" gradientUnits="userSpaceOnUse">
<stop stop-color="#234DAE"/>
<stop offset="1" stop-color="#347BCE"/>
</linearGradient>
<linearGradient id="paint28_linear" x1="447.48" y1="554.485" x2="473.652" y2="532.329" gradientUnits="userSpaceOnUse">
<stop stop-color="#234DAE"/>
<stop offset="1" stop-color="#347BCE"/>
</linearGradient>
<linearGradient id="paint29_linear" x1="484.057" y1="639.785" x2="489.033" y2="632.34" gradientUnits="userSpaceOnUse">
<stop stop-color="#234DAE"/>
<stop offset="1" stop-color="#347BCE"/>
</linearGradient>
<linearGradient id="paint30_linear" x1="489.364" y1="639.002" x2="496.613" y2="635.572" gradientUnits="userSpaceOnUse">
<stop stop-color="#234DAE"/>
<stop offset="1" stop-color="#347BCE"/>
</linearGradient>
<linearGradient id="paint31_linear" x1="493.132" y1="626.51" x2="501.88" y2="607.941" gradientUnits="userSpaceOnUse">
<stop stop-color="#234DAE"/>
<stop offset="1" stop-color="#347BCE"/>
</linearGradient>
<linearGradient id="paint32_linear" x1="601.364" y1="332.089" x2="625.826" y2="310.189" gradientUnits="userSpaceOnUse">
<stop stop-color="#234DAE"/>
<stop offset="1" stop-color="#347BCE"/>
</linearGradient>
<linearGradient id="paint33_linear" x1="601.364" y1="332.089" x2="625.826" y2="310.189" gradientUnits="userSpaceOnUse">
<stop stop-color="#234DAE"/>
<stop offset="1" stop-color="#347BCE"/>
</linearGradient>
<linearGradient id="paint34_linear" x1="579.624" y1="427.985" x2="690.939" y2="368.925" gradientUnits="userSpaceOnUse">
<stop stop-color="#234DAE"/>
<stop offset="1" stop-color="#347BCE"/>
</linearGradient>
<linearGradient id="paint35_linear" x1="579.624" y1="427.985" x2="690.939" y2="368.925" gradientUnits="userSpaceOnUse">
<stop stop-color="#234DAE"/>
<stop offset="1" stop-color="#347BCE"/>
</linearGradient>
<linearGradient id="paint36_linear" x1="526.311" y1="422.006" x2="541.856" y2="412.757" gradientUnits="userSpaceOnUse">
<stop stop-color="#234DAE"/>
<stop offset="1" stop-color="#347BCE"/>
</linearGradient>
<linearGradient id="paint37_linear" x1="537.788" y1="409.876" x2="610.193" y2="374.933" gradientUnits="userSpaceOnUse">
<stop stop-color="#234DAE"/>
<stop offset="1" stop-color="#347BCE"/>
</linearGradient>
<linearGradient id="paint38_linear" x1="529.571" y1="495.106" x2="681.01" y2="352.475" gradientUnits="userSpaceOnUse">
<stop stop-color="#234DAE"/>
<stop offset="1" stop-color="#347BCE"/>
</linearGradient>
<linearGradient id="paint39_linear" x1="497.336" y1="219.182" x2="516.528" y2="211.056" gradientUnits="userSpaceOnUse">
<stop stop-color="#234DAE"/>
<stop offset="1" stop-color="#347BCE"/>
</linearGradient>
<linearGradient id="paint40_linear" x1="507.283" y1="198.505" x2="529.757" y2="181.259" gradientUnits="userSpaceOnUse">
<stop stop-color="#234DAE"/>
<stop offset="1" stop-color="#347BCE"/>
</linearGradient>
<linearGradient id="paint41_linear" x1="527.913" y1="188.44" x2="546.175" y2="170.591" gradientUnits="userSpaceOnUse">
<stop stop-color="#234DAE"/>
<stop offset="1" stop-color="#347BCE"/>
</linearGradient>
<linearGradient id="paint42_linear" x1="552.596" y1="192.538" x2="575.342" y2="175.367" gradientUnits="userSpaceOnUse">
<stop stop-color="#234DAE"/>
<stop offset="1" stop-color="#347BCE"/>
</linearGradient>
<linearGradient id="paint43_linear" x1="568.069" y1="203.523" x2="594.454" y2="186.038" gradientUnits="userSpaceOnUse">
<stop stop-color="#234DAE"/>
<stop offset="1" stop-color="#347BCE"/>
</linearGradient>
<linearGradient id="paint44_linear" x1="578.937" y1="220.471" x2="601.707" y2="207.737" gradientUnits="userSpaceOnUse">
<stop stop-color="#234DAE"/>
<stop offset="1" stop-color="#347BCE"/>
</linearGradient>
<linearGradient id="paint45_linear" x1="582.989" y1="239.585" x2="599.899" y2="228.527" gradientUnits="userSpaceOnUse">
<stop stop-color="#234DAE"/>
<stop offset="1" stop-color="#347BCE"/>
</linearGradient>
<linearGradient id="paint46_linear" x1="496.96" y1="238.627" x2="501.909" y2="237.958" gradientUnits="userSpaceOnUse">
<stop stop-color="#234DAE"/>
<stop offset="1" stop-color="#347BCE"/>
</linearGradient>
<linearGradient id="paint47_linear" x1="534.503" y1="234.021" x2="559.376" y2="217.705" gradientUnits="userSpaceOnUse">
<stop stop-color="#234DAE"/>
<stop offset="1" stop-color="#347BCE"/>
</linearGradient>
<linearGradient id="paint48_linear" x1="98.9116" y1="228.303" x2="152.252" y2="194.56" gradientUnits="userSpaceOnUse">
<stop stop-color="#234DAE"/>
<stop offset="1" stop-color="#347BCE"/>
</linearGradient>
<linearGradient id="paint49_linear" x1="156.382" y1="228.45" x2="187.358" y2="219.703" gradientUnits="userSpaceOnUse">
<stop stop-color="#234DAE"/>
<stop offset="1" stop-color="#347BCE"/>
</linearGradient>
<linearGradient id="paint50_linear" x1="40.7036" y1="423.757" x2="41.8395" y2="411.944" gradientUnits="userSpaceOnUse">
<stop stop-color="#234DAE"/>
<stop offset="1" stop-color="#347BCE"/>
</linearGradient>
<clipPath id="clip0">
<rect width="776" height="679" fill="white"/>
</clipPath>
</defs>
</svg>
