<svg width="298" height="161" viewBox="0 0 298 161" fill="none" xmlns="http://www.w3.org/2000/svg">
<path d="M297.5 68.5528L297.5 19.4472L257.5 0.552979L217.5 19.4472L217.5 68.5528L257.5 87.447L297.5 68.5528Z" stroke="#F0F0F0"/>
<path d="M170.5 4.08877e-06L211 19.1304L211 68.8696L170.5 88L130 68.8696L130 19.1304L170.5 4.08877e-06Z" fill="#F0F0F0"/>
<path d="M214.5 73L255 92.1304L255 141.87L214.5 161L174 141.87L174 92.1304L214.5 73Z" fill="#F0F0F0"/>
<path d="M127.5 73L168 92.1304L168 141.87L127.5 161L87 141.87L87 92.1304L127.5 73Z" fill="#F0F0F0"/>
<path d="M80.5 141.553L80.5 92.4472L40.5 73.553L0.499998 92.4472L0.499994 141.553L40.5 160.447L80.5 141.553Z" stroke="#F0F0F0"/>
</svg>
