<svg width="706" height="581" viewBox="0 0 706 581" fill="none" xmlns="http://www.w3.org/2000/svg">
<path d="M546.481 407.427C546.481 407.427 531.326 391.372 548.906 377.741C548.906 377.741 560.423 371.682 557.392 354.719C554.361 338.058 559.817 324.73 575.578 323.518C591.339 322.307 621.345 332.606 620.739 343.511C621.345 345.328 621.648 348.055 620.436 351.084C617.102 361.383 612.253 373.803 616.193 377.741C618.314 380.164 621.952 383.496 627.407 385.617C640.137 391.372 647.715 398.642 647.715 412.88C647.715 434.69 609.222 423.482 609.222 423.482L546.481 407.427Z" fill="white"/>
<path d="M220.35 301.708C267.387 301.708 305.519 263.598 305.519 216.588C305.519 169.577 267.387 131.467 220.35 131.467C173.312 131.467 135.18 169.577 135.18 216.588C135.18 263.598 173.312 301.708 220.35 301.708Z" fill="url(#paint0_linear)"/>
<path d="M528.902 550.405H263.391C258.238 550.405 254.298 546.164 254.298 541.318V212.953C254.298 207.803 258.541 203.865 263.391 203.865H528.902C534.055 203.865 537.995 208.106 537.995 212.953V541.318C537.995 546.467 534.055 550.405 528.902 550.405Z" fill="white"/>
<path d="M72.7437 448.018C72.7437 448.018 61.226 452.562 54.2548 461.953C47.5867 471.343 32.1289 493.456 27.5824 509.511C22.7329 525.263 17.8834 533.139 17.5803 547.073C17.2772 561.007 17.5803 572.821 22.1267 579.485L163.369 579.788L170.643 487.701C170.643 487.701 161.248 466.496 151.548 456.803C141.546 447.109 129.119 441.051 119.723 441.354L72.7437 448.018Z" fill="url(#paint1_linear)"/>
<path d="M173.37 580.091H291.577C299.457 580.091 306.125 575.245 308.853 568.277L336.738 487.398C340.678 476.19 331.889 464.679 319.462 464.679H201.254C193.374 464.679 186.706 469.526 183.978 476.493L156.396 557.372C152.456 568.58 161.246 580.091 173.37 580.091Z" fill="#343B43"/>
<path d="M426.151 75.427C426.151 75.427 417.361 65.7336 418.877 59.3722C420.089 52.708 426.151 47.5584 430.698 46.9525C435.547 46.3467 441.306 49.3759 441.306 49.3759C441.306 49.3759 445.549 44.8321 455.854 47.5584C466.16 50.2847 471.918 62.7044 471.918 62.7044C471.918 62.7044 482.83 64.219 482.83 74.8211C482.83 85.4233 476.162 95.7226 467.675 102.084C459.492 108.445 460.401 108.748 458.279 108.445C455.854 108.142 452.217 107.234 454.036 97.843L449.186 83.6058C449.186 83.6058 441.306 83 446.458 73.0036C446.458 73.0036 439.184 64.5219 429.788 64.8248L426.151 75.427Z" fill="url(#paint2_linear)"/>
<path d="M531.629 544.044V580.091H652.564L652.261 554.343C652.261 554.343 667.719 548.588 672.569 531.321C677.418 514.055 672.569 498.909 670.447 491.336C668.325 483.763 659.535 460.135 654.686 449.23C649.836 438.628 643.774 423.482 640.44 417.726C637.106 411.971 630.135 402.277 618.921 398.339C607.706 394.401 594.37 394.401 594.37 394.401L571.638 393.796C571.638 393.796 564.363 394.401 553.755 398.036C543.147 401.974 536.782 403.792 525.567 401.974C514.656 400.157 506.472 391.372 501.926 383.799C497.379 375.923 493.439 360.777 492.227 354.416C491.317 348.055 490.711 339.876 490.711 339.876C490.711 339.876 487.983 335.938 470.101 336.544C451.915 337.453 447.369 339.876 447.065 340.785C446.762 341.39 448.581 359.869 453.127 375.923C457.371 391.978 466.767 412.274 477.375 424.693C488.286 437.113 506.169 452.259 527.083 455.288L531.629 544.044Z" fill="url(#paint3_linear)"/>
<path d="M609.223 452.865L534.055 453.471C534.055 453.471 519.81 455.288 518.597 470.434C517.385 485.58 519.204 527.686 519.204 527.686C519.204 527.686 521.022 542.832 534.055 544.65L606.495 543.741C606.495 543.741 594.068 536.168 583.157 526.777C572.245 517.387 566.183 510.42 566.183 510.42C566.183 510.42 575.276 487.701 589.522 476.796L625.59 502.544C625.287 502.544 612.86 470.131 609.223 452.865Z" fill="#343B43"/>
<path d="M442.822 453.471V490.124H406.147C406.147 510.42 422.515 526.777 442.822 526.777C463.129 526.777 479.496 510.42 479.496 490.124C479.496 469.828 463.129 453.471 442.822 453.471Z" fill="#343B43"/>
<path d="M395.54 476.493H431.912V440.142C431.912 440.142 417.06 439.234 405.543 451.35C394.025 463.77 395.54 476.493 395.54 476.493Z" fill="url(#paint4_linear)"/>
<path d="M131.846 390.161C131.846 390.161 135.18 393.493 135.786 397.734C137.302 406.821 131.846 412.88 131.846 412.88C131.846 412.88 132.452 429.54 120.328 429.237L119.419 442.263C119.419 442.263 120.631 457.106 116.085 457.712C111.538 458.318 104.567 448.624 104.567 448.624C104.567 448.624 109.72 441.657 109.72 435.599C109.417 429.54 109.72 424.996 104.264 417.12C98.8084 409.245 98.5053 403.792 99.7177 400.763C100.93 397.734 103.961 390.463 103.961 388.343C103.961 386.223 102.749 378.953 102.749 378.953C102.749 378.953 105.477 381.376 105.78 384.102C106.083 386.828 105.78 390.161 105.78 390.161L112.145 389.858L131.846 390.161Z" fill="white"/>
<path d="M97.2929 561.007C97.2929 561.007 113.357 553.131 116.691 553.131C120.025 552.828 122.147 552.828 122.147 552.828C122.147 552.828 128.209 547.982 135.483 551.617C135.483 551.617 139.12 548.588 143.06 548.89C147.001 549.496 149.122 553.737 149.122 553.737C149.122 553.737 147.304 560.401 147.607 563.128C147.91 565.854 150.032 574.942 157.003 577.971C157.003 577.971 154.275 581.606 147.607 577.365C147.607 577.365 142.454 581 135.18 579.485C135.18 579.485 130.937 580.697 128.512 579.788C126.087 578.879 123.965 577.062 122.753 575.85C121.844 574.639 119.419 569.792 119.419 569.792C119.419 569.792 119.116 580.394 106.083 579.788C106.083 579.788 101.536 577.971 98.8084 571.912C95.7775 565.551 97.2929 561.007 97.2929 561.007Z" fill="white"/>
<path d="M587.097 479.219C587.097 479.219 584.066 473.464 581.641 468.011C579.216 462.558 577.701 458.015 574.063 458.62C570.426 459.226 571.639 464.982 572.245 467.102C572.851 469.223 575.579 476.493 572.851 477.401C570.123 478.31 566.183 476.493 561.94 472.858C557.696 469.223 550.725 462.255 550.725 462.255C550.725 462.255 546.785 459.529 544.057 461.65C541.632 463.77 543.754 467.102 543.754 467.102C543.754 467.102 540.42 466.799 539.511 468.314C538.601 469.828 538.298 472.252 539.207 473.161C539.207 473.161 534.964 476.493 537.692 481.339C540.42 486.186 551.028 495.577 554.362 497.697C557.393 500.12 564.971 504.967 568.608 505.573C568.608 505.573 572.548 497.394 577.094 491.033C581.035 484.974 587.097 479.219 587.097 479.219Z" fill="white"/>
<path d="M483.135 343.511C483.135 343.511 484.044 328.365 482.529 322.307C481.013 316.248 479.195 312.31 474.042 310.796C468.89 309.281 464.04 308.372 464.04 308.372H458.584L461.918 314.734L456.766 317.46L453.129 311.401C453.129 311.401 446.158 313.219 444.945 318.672C444.036 324.124 444.339 333.817 447.067 339.573C450.098 345.328 452.523 348.963 458.888 348.661C465.252 348.358 468.587 347.752 472.224 345.934C476.164 344.117 476.467 342.905 476.467 342.905L477.679 344.723L483.135 343.511Z" fill="white"/>
<path d="M566.788 338.361L562.544 358.354C562.544 358.354 560.423 368.653 561.332 373.5C562.241 378.347 562.847 384.708 572.85 385.011L571.94 394.099C571.94 394.099 564.969 413.182 573.456 413.485C582.246 413.788 585.883 407.427 588.914 403.489C591.945 399.551 594.672 394.704 594.672 394.704L595.279 373.197C595.279 373.197 604.978 375.62 605.281 366.533C605.584 357.748 595.279 358.96 595.279 358.96C595.279 358.96 583.761 352.599 578.305 348.358C572.85 344.117 566.788 338.361 566.788 338.361Z" fill="white"/>
<path d="M263.687 528.594C267.285 522.364 266.911 515.414 262.852 513.073C258.792 510.731 252.584 513.884 248.986 520.114C245.388 526.345 245.762 533.294 249.821 535.636C253.88 537.977 260.088 534.825 263.687 528.594Z" fill="url(#paint5_linear)"/>
<path d="M156.701 198.11C159.732 197.201 162.46 196.595 165.188 195.686C166.703 195.383 168.219 194.777 169.734 194.474C176.099 201.745 182.161 207.803 189.132 213.256C191.254 215.073 193.679 215.376 196.104 214.77C198.831 214.164 200.953 212.953 203.378 211.438C208.834 207.803 213.683 203.562 218.533 199.018C227.019 190.537 234.9 181.449 242.174 172.058C242.477 171.453 243.083 171.453 243.69 171.453C248.236 172.664 252.782 173.876 257.329 175.391C248.842 191.445 239.143 205.985 227.929 219.617C222.17 226.584 216.108 232.945 209.137 238.398C206.712 240.215 204.287 241.427 201.862 242.942C196.407 245.971 190.648 245.668 185.192 243.245C179.736 240.821 175.19 236.883 171.553 232.037C166.4 225.069 162.763 217.193 160.035 209.015C158.823 205.38 157.914 201.745 156.701 198.11Z" fill="white"/>
<path d="M72.7425 448.018C72.7425 448.018 90.9282 456.5 100.324 451.047C109.72 445.595 110.326 437.113 110.023 431.055C109.72 424.693 104.264 416.515 101.84 413.182C99.4149 409.85 99.1118 406.215 99.718 401.066C100.627 395.916 103.961 392.584 103.961 388.646C104.264 384.708 101.84 378.044 101.84 378.044C101.84 378.044 105.78 381.376 105.78 385.314C105.78 389.252 105.78 390.463 105.78 390.463L109.417 390.766C109.417 390.766 110.629 389.555 111.539 389.252C112.448 389.252 114.873 391.069 114.873 391.069L126.693 390.463C126.693 390.463 129.118 388.949 130.331 389.555C131.543 390.161 132.452 390.463 132.452 390.463H133.968C133.968 390.463 134.271 381.376 132.755 377.135C131.24 372.894 129.724 369.562 121.238 368.35C113.054 367.139 104.567 366.23 96.9901 370.774C96.9901 370.774 76.9858 369.259 75.4703 387.131C75.4703 387.131 79.4106 409.85 80.3199 415.909C81.2291 422.27 82.7446 428.328 76.3796 430.449C70.0146 432.569 62.4372 433.478 60.6187 440.445C58.8001 447.715 59.4063 450.745 62.4372 453.168L72.7425 448.018Z" fill="#343B43"/>
<path d="M120.025 429.237L119.116 441.657L126.694 443.172C126.694 443.172 130.028 441.051 129.421 436.204C128.815 431.661 126.391 428.026 126.391 428.026C126.391 428.026 121.541 430.449 120.025 429.237Z" fill="#343B43"/>
<path d="M359.472 125.712C359.472 125.712 371.293 164.183 372.202 166.606C373.111 169.029 375.839 185.69 385.538 184.781C394.934 184.175 397.965 173.876 399.177 170.847C400.39 167.818 407.664 149.642 413.12 142.069C418.576 134.496 427.062 129.347 435.852 128.741C444.642 128.135 471.92 127.529 479.195 132.376C486.469 137.223 499.199 153.277 508.898 173.27C518.597 193.263 521.022 195.383 521.931 203.562L500.108 204.168L435.246 203.865C435.246 203.865 427.365 216.285 418.272 222.949C418.272 222.949 411.301 227.19 407.361 229.31C403.421 231.128 392.206 235.066 380.992 234.763C369.777 234.46 354.016 231.128 344.014 217.799C334.012 204.471 330.375 195.383 327.95 187.81C325.525 179.934 321.282 163.577 319.463 153.277C317.645 142.978 315.826 132.982 315.826 132.982C315.826 132.982 319.16 126.923 336.134 124.197C353.41 121.168 359.472 125.712 359.472 125.712Z" fill="#343B43"/>
<path d="M472.223 345.934L475.557 351.993C475.557 351.993 478.284 352.901 479.497 351.993C480.709 351.084 480.103 348.661 480.103 348.661L476.769 342.602C477.072 342.602 474.344 345.631 472.223 345.934Z" fill="white"/>
<path d="M433.427 121.168V115.11C433.427 115.11 423.121 113.898 421.303 109.96C419.181 106.022 419.181 102.69 420.09 100.569C420.697 98.7518 421.606 93.2993 421.606 93.2993C421.606 93.2993 415.544 89.0584 416.453 86.938C417.059 84.5146 425.546 79.0621 425.546 79.0621L429.183 63.9161C429.183 63.9161 442.823 65.7336 446.46 73.0037C446.46 73.0037 443.126 82.3942 449.491 83C449.491 83 452.522 78.7591 457.674 79.9708C462.827 81.1825 464.645 83.9088 464.948 89.0584C465.252 94.208 460.402 97.8431 454.34 97.2372C454.34 97.2372 452.825 106.931 456.159 107.537C459.493 108.142 461.614 106.325 461.614 106.325L462.827 118.442L433.427 121.168Z" fill="white"/>
<path d="M351.287 131.467C351.287 131.467 349.772 123.894 350.378 114.201C350.984 104.507 349.772 102.993 350.681 98.7518C351.591 94.5109 355.531 88.7555 351.894 87.8467C348.256 86.938 343.407 87.2409 341.285 91.1788C339.467 94.8139 337.648 103.901 336.436 105.113C335.223 106.325 332.799 107.537 330.98 106.931C329.465 106.325 328.252 105.113 327.04 102.69C326.131 100.266 323.403 92.6934 319.766 89.3613C316.128 85.7263 311.582 82.0912 307.945 83.3029C304.308 84.5146 304.005 87.5438 304.005 87.5438C304.005 87.5438 298.549 87.5438 298.549 92.9964C298.549 92.9964 299.155 95.1168 301.883 99.0548C304.611 102.993 306.732 105.719 308.248 109.354C309.763 112.989 312.491 120.562 316.735 123.894C321.281 127.529 324.918 129.347 325.524 135.405C325.524 135.405 328.555 136.011 337.345 135.102C346.438 133.891 351.287 131.467 351.287 131.467Z" fill="white"/>
<path d="M350.682 123.591L352.197 131.467C352.197 131.467 360.684 128.438 360.381 126.318C359.775 123.894 350.682 123.591 350.682 123.591Z" fill="#343B43"/>
<path d="M321.888 127.529C321.888 127.529 325.525 131.77 325.525 135.102C325.525 135.102 316.129 135.102 315.523 132.982C315.22 130.861 321.888 127.529 321.888 127.529Z" fill="#343B43"/>
<path d="M424.334 130.558L429.79 121.471C429.79 121.471 462.221 117.836 467.98 118.442L475.254 129.044C475.254 129.044 450.097 126.923 442.823 127.529C435.549 128.135 424.334 130.558 424.334 130.558Z" fill="white"/>
<path d="M441.004 114.504L433.427 120.865V115.412L441.004 114.504Z" fill="url(#paint6_linear)"/>
<path d="M96.6885 561.007L112.449 553.737C112.449 553.737 120.027 551.617 121.845 552.828C121.845 552.828 127.604 549.193 133.969 550.708C133.969 550.708 131.848 547.376 128.21 545.255C124.573 543.135 117.299 540.712 112.753 541.923C108.206 543.135 98.507 547.376 96.6885 561.007Z" fill="#343B43"/>
<path d="M110.933 580.091H126.997C126.997 580.091 120.329 575.547 119.419 570.398C119.419 570.398 114.57 578.88 110.933 580.091Z" fill="#343B43"/>
<path d="M323.1 464.376L314.613 459.529H196.103C196.103 459.529 182.16 457.409 176.099 471.949L148.517 555.252C148.517 555.252 140.636 578.274 167.309 580.091C167.612 579.182 156.094 574.336 155.488 564.945C154.579 555.858 163.975 534.653 163.975 534.653L185.191 473.463C185.191 473.463 192.769 464.376 199.74 464.679L323.1 464.376Z" fill="white"/>
<path d="M323.403 84.2116C340.98 84.2116 355.228 69.9714 355.228 52.4051C355.228 34.8388 340.98 20.5985 323.403 20.5985C305.827 20.5985 291.578 34.8388 291.578 52.4051C291.578 69.9714 305.827 84.2116 323.403 84.2116Z" fill="url(#paint7_linear)"/>
<path d="M323.403 88.7555V92.6935C323.403 92.6935 325.222 96.6314 326.131 99.6606C327.04 102.993 327.95 106.628 333.102 106.325C338.255 106.325 337.952 94.511 340.983 91.4818V88.1497C340.983 88.1497 338.558 89.6643 332.799 89.3613C327.647 89.3613 323.403 88.7555 323.403 88.7555Z" fill="#343B43"/>
<path d="M355.834 275.96H338.86V297.467H355.834V275.96Z" fill="url(#paint8_linear)"/>
<path d="M327.343 264.449H310.37V297.164H327.343V264.449Z" fill="#343B43"/>
<path d="M126.694 390.766C126.694 390.766 129.119 389.252 130.331 389.858C131.544 390.463 132.453 390.766 132.453 390.766H133.968C133.968 390.766 134.272 381.679 132.756 377.438C131.241 373.197 129.725 369.865 121.238 368.653C116.995 368.047 112.752 367.442 108.812 367.744C115.177 368.653 122.148 370.774 123.966 376.529C126.088 382.891 126.391 387.737 126.088 391.069L126.694 390.766Z" fill="white"/>
<path d="M109.721 430.752C109.418 424.391 103.962 416.212 101.537 412.88C99.1124 409.547 98.8093 405.912 99.4155 400.763C99.7186 399.854 99.7186 398.945 100.022 398.339C100.022 398.339 96.3845 404.398 98.8093 414.394C100.931 423.482 110.63 444.686 90.0195 452.562C93.6567 452.865 97.2938 452.259 100.022 450.745C109.721 445.292 110.327 437.113 109.721 430.752Z" fill="white"/>
<path d="M126.391 428.026C126.391 428.026 124.876 428.631 123.36 428.934C124.573 431.661 125.482 435.901 123.663 442.263L126.694 442.869C126.694 442.869 130.028 440.748 129.422 435.901C128.816 431.661 126.391 428.026 126.391 428.026Z" fill="white"/>
<path d="M429.789 54.8284C430.396 50.5876 433.73 48.4671 436.761 47.2554C434.942 46.6496 432.82 46.3467 431.002 46.6496C426.152 47.2554 420.393 52.4051 419.181 59.0693C417.969 65.7335 426.455 75.124 426.455 75.124L430.092 64.2189C437.67 63.916 444.035 69.3686 445.853 71.489C443.732 64.8248 428.577 62.0985 429.789 54.8284Z" fill="white"/>
<path d="M455.855 47.2555C445.55 44.5292 441.307 49.073 441.307 49.073L444.944 51.4963C444.944 51.4963 450.096 45.135 462.826 50.8905C460.705 49.3759 458.28 47.8613 455.855 47.2555Z" fill="white"/>
<path d="M356.138 228.099C356.138 228.099 361.896 210.529 380.991 211.741C400.086 212.953 404.33 226.887 405.542 228.704C405.542 228.704 395.237 235.066 380.082 234.46C364.927 233.854 356.138 228.099 356.138 228.099Z" fill="url(#paint9_linear)"/>
<path d="M298.852 297.77H281.879C281.272 297.164 281.272 244.153 281.272 244.153C281.879 243.547 299.155 243.547 299.155 243.547C299.761 244.153 299.761 261.117 299.761 261.117C298.246 261.117 298.246 244.759 298.246 244.759H282.788V296.255H298.246V280.807C299.761 280.807 299.761 297.164 299.761 297.164C299.761 297.467 299.458 297.77 298.852 297.77Z" fill="#343B43"/>
<path d="M327.343 297.77H310.37C309.764 297.164 309.764 264.146 309.764 264.146C310.37 263.54 327.343 263.54 327.343 263.54C327.949 264.146 327.949 297.164 327.949 297.164C328.252 297.467 327.949 297.77 327.343 297.77ZM311.279 296.558H326.737V265.055H311.279V296.558Z" fill="#343B43"/>
<path d="M355.833 297.77H338.86C338.254 297.164 338.254 284.139 338.254 284.139C339.769 284.139 339.769 296.558 339.769 296.558H355.227V277.172H344.316C344.316 275.657 355.833 275.657 355.833 275.657C356.44 276.263 356.44 297.164 356.44 297.164C356.743 297.467 356.44 297.77 355.833 297.77Z" fill="#343B43"/>
<path d="M484.952 257.785H397.357C397.357 256.27 484.952 256.27 484.952 256.27C485.558 257.482 485.255 257.785 484.952 257.785Z" fill="#343B43"/>
<path d="M484.952 292.015H448.884C448.884 290.803 484.952 290.803 484.952 290.803C485.558 291.712 485.255 292.015 484.952 292.015Z" fill="#343B43"/>
<path d="M441.912 292.015H397.357C397.357 290.5 441.912 290.5 441.912 290.5C442.519 291.712 442.216 292.015 441.912 292.015Z" fill="#343B43"/>
<path d="M484.952 305.04H456.461C456.461 303.525 484.952 303.525 484.952 303.525C485.558 304.737 485.255 305.04 484.952 305.04Z" fill="#343B43"/>
<path d="M448.884 305.04H397.357C397.357 303.525 448.884 303.525 448.884 303.525C449.49 304.737 449.187 305.04 448.884 305.04Z" fill="#343B43"/>
<path d="M484.952 270.81H437.366C437.366 269.296 484.952 269.296 484.952 269.296C485.558 270.507 485.255 270.81 484.952 270.81Z" fill="#343B43"/>
<path d="M429.789 270.81H397.357C397.357 269.296 429.789 269.296 429.789 269.296C430.395 270.507 430.092 270.81 429.789 270.81Z" fill="#343B43"/>
<path d="M362.503 360.777H274.908C274.908 359.263 362.503 359.263 362.503 359.263C363.412 360.474 363.109 360.777 362.503 360.777Z" fill="#343B43"/>
<path d="M362.503 395.31H274.908C274.908 393.796 362.503 393.796 362.503 393.796C363.412 395.007 363.109 395.31 362.503 395.31Z" fill="#343B43"/>
<path d="M362.503 408.336H274.908C274.908 406.821 362.503 406.821 362.503 406.821C363.412 408.033 363.109 408.336 362.503 408.336Z" fill="#343B43"/>
<path d="M362.503 373.803H274.908C274.908 372.288 362.503 372.288 362.503 372.288C363.412 373.5 363.109 373.803 362.503 373.803Z" fill="#343B43"/>
<path d="M448.884 360.777H397.357C397.357 359.263 448.884 359.263 448.884 359.263C449.49 360.474 449.187 360.777 448.884 360.777Z" fill="#343B43"/>
<path d="M459.189 395.31H397.357C397.357 393.796 459.189 393.796 459.189 393.796C459.795 395.007 459.492 395.31 459.189 395.31Z" fill="#343B43"/>
<path d="M465.554 408.336H397.66C397.66 406.821 465.554 406.821 465.554 406.821C466.16 408.033 465.857 408.336 465.554 408.336Z" fill="#343B43"/>
<path d="M452.521 373.803H397.357C397.357 372.288 452.521 372.288 452.521 372.288C453.43 373.5 453.127 373.803 452.521 373.803Z" fill="#343B43"/>
<path d="M652.261 579.182C651.958 568.883 651.958 568.883 651.655 555.555V554.04C653.171 554.04 653.171 555.555 653.171 555.555C653.474 568.883 653.474 568.883 653.171 577.365C653.171 578.88 652.868 579.182 652.261 579.182Z" fill="#343B43"/>
<path d="M626.196 504.058C613.769 480.128 605.889 441.96 605.889 441.657C607.404 441.657 614.982 479.522 626.802 502.847C626.499 504.058 626.499 504.058 626.196 504.058Z" fill="#343B43"/>
<path d="M531.326 580.697C530.72 579.788 531.023 563.431 531.023 544.044C532.538 563.431 532.235 579.788 532.235 580.091C531.932 580.394 531.629 580.697 531.326 580.697Z" fill="#343B43"/>
<path d="M534.055 454.077C534.661 441.354 537.995 429.54 540.42 422.573C539.51 430.146 536.176 441.657 534.964 453.471C534.661 453.774 534.358 454.077 534.055 454.077Z" fill="#343B43"/>
<path d="M576.791 385.617C575.275 385.617 574.063 385.617 572.85 385.617C570.122 385.617 568.304 385.011 566.485 384.405C563.454 383.193 561.939 380.467 561.03 376.832C559.817 371.077 560.727 365.321 561.636 359.869C562.242 355.628 565.879 338.664 566.182 338.361C567.395 339.573 563.757 355.325 563.454 359.263C562.545 365.624 561.636 371.077 562.848 376.529C563.454 379.861 564.97 381.982 567.395 383.193C568.91 383.799 570.729 384.405 573.153 384.405C575.578 384.405 578.912 384.405 581.337 384.405C579.822 385.617 578.306 385.617 576.791 385.617Z" fill="#343B43"/>
<path d="M594.976 359.566C570.425 346.54 564.969 337.453 564.666 337.15C565.878 336.544 571.637 345.631 595.279 358.354C595.582 359.263 595.279 359.566 594.976 359.566Z" fill="#343B43"/>
<path d="M582.247 355.022C581.641 354.719 581.338 355.022 580.732 357.142C580.125 359.263 580.732 359.869 581.338 359.869C581.944 359.869 582.55 359.263 582.55 357.748C583.156 355.931 583.156 355.022 582.247 355.022Z" fill="#343B43"/>
<path d="M567.395 352.599C566.788 352.296 566.485 352.599 565.879 354.719C565.273 356.839 565.879 357.445 566.485 357.445C567.091 357.445 567.698 356.839 568.001 355.325C568.001 353.507 568.001 352.599 567.395 352.599Z" fill="#343B43"/>
<path d="M564.666 348.055C565.272 346.237 566.788 345.328 569.819 346.54C567.091 346.843 565.878 347.449 564.969 348.055C564.969 348.055 564.969 348.055 564.666 348.055Z" fill="#343B43"/>
<path d="M597.705 373.803C595.583 373.803 594.371 373.197 593.158 372.288C594.977 371.682 596.189 372.288 597.402 372.288C599.22 372.591 601.039 371.682 602.251 370.774C603.463 369.562 604.373 368.047 604.676 366.23C604.676 364.412 604.07 362.595 603.16 361.383C601.948 360.172 600.433 359.263 598.614 358.96C597.402 358.96 595.886 359.263 594.674 359.869C595.28 357.748 596.795 357.445 598.614 357.445C603.16 357.748 606.494 361.686 606.191 366.23C606.191 368.35 604.979 370.471 603.463 371.985C601.645 373.197 599.523 373.803 597.705 373.803Z" fill="#343B43"/>
<path d="M598.917 370.471C598.311 370.168 593.765 365.624 593.765 365.624C594.068 364.412 600.13 361.08 600.13 361.08C600.736 362.292 595.583 365.321 595.583 365.321L599.523 369.259C599.22 370.471 598.917 370.471 598.917 370.471Z" fill="#343B43"/>
<path d="M574.669 414.091C574.063 414.091 573.154 414.091 572.244 413.788C571.032 413.485 570.123 412.88 569.516 411.668C566.789 406.821 570.729 395.31 571.335 393.796L571.941 384.405C573.457 384.405 572.547 394.099 572.547 394.099C572.547 394.401 568.304 406.518 570.729 411.062C571.032 411.668 571.638 412.274 572.547 412.274C584.974 414.697 593.764 393.796 593.764 393.796C594.673 395.31 586.793 414.091 574.669 414.091Z" fill="#343B43"/>
<path d="M574.669 373.803C573.76 373.803 572.851 373.5 571.941 373.197C574.063 372.591 575.275 372.591 576.488 371.985C578.306 371.077 578.913 368.653 578.913 368.653C580.428 368.956 579.519 371.985 577.397 373.197C576.488 373.803 575.579 373.803 574.669 373.803Z" fill="#343B43"/>
<path d="M643.168 423.482C648.018 418.635 648.018 408.942 645.593 403.489C643.774 399.248 640.44 395.31 635.894 391.675C632.56 389.252 628.923 387.434 624.982 385.314L623.77 384.708C620.739 383.193 616.799 380.77 615.283 377.135C613.162 371.985 614.677 367.139 616.193 363.201C616.496 362.595 616.799 361.686 617.102 361.08C618.92 356.536 621.042 351.69 620.739 347.146C620.436 343.208 618.617 337.755 614.98 335.635C610.434 332.606 605.887 330.485 602.553 329.274C599.522 328.062 572.85 318.974 563.151 330.788C559.817 334.726 557.998 339.876 557.695 347.146C557.392 349.872 557.998 352.296 558.301 355.022C558.604 357.445 559.211 360.172 559.211 362.595C558.908 367.442 557.089 371.985 553.755 375.62C552.543 376.832 551.33 377.741 550.118 378.65C548.905 379.558 547.996 380.164 547.087 381.073C545.268 382.891 543.753 385.314 542.843 387.737C541.328 391.978 541.328 397.734 544.965 401.672C539.509 398.642 539.813 391.978 541.328 387.434C542.237 384.708 543.753 382.285 545.874 380.164C546.784 379.255 547.996 378.347 549.208 377.438C550.421 376.529 551.633 375.62 552.846 374.409C555.877 371.077 557.695 366.836 557.695 362.292C557.695 359.869 557.392 357.445 557.089 355.022C556.483 352.296 556.18 349.569 556.483 346.843C557.089 339.27 558.908 333.515 562.242 329.577C572.85 317.157 600.129 326.547 603.159 327.759C606.797 328.971 611.04 331.394 615.889 334.423C620.133 337.15 621.951 342.905 622.254 347.146C622.558 351.993 620.436 357.142 618.617 361.989C618.314 362.898 618.011 363.504 617.708 364.109C616.193 367.745 614.98 372.288 616.799 376.832C618.314 380.164 621.951 382.285 624.679 383.799L625.892 384.405C629.529 386.223 633.469 388.343 637.106 390.766C641.956 394.401 645.29 398.642 647.411 403.186C649.836 408.942 649.836 419.544 644.077 423.482C643.471 423.482 643.168 423.482 643.168 423.482Z" fill="#343B43"/>
<path d="M594.369 395.007C593.763 394.401 594.066 373.5 594.066 373.5C595.582 373.5 594.975 394.401 594.975 394.401C594.975 394.704 594.672 395.007 594.369 395.007Z" fill="#343B43"/>
<path d="M642.258 556.464C617.101 556.464 583.761 531.018 565.575 511.328C565.575 510.42 569.515 500.12 576.184 491.033C583.458 481.642 588.61 476.493 588.61 476.493C589.823 476.493 619.829 495.577 635.893 511.631C619.829 498 593.157 480.431 589.217 478.007C588.004 479.522 583.155 484.369 577.093 492.245C571.334 500.12 567.394 508.905 566.788 511.026C594.066 540.712 634.681 564.945 656.201 551.617C691.36 530.412 663.475 470.131 648.32 438.022L647.411 435.901C646.805 434.69 646.199 433.175 645.592 431.358C642.258 422.876 637.106 409.85 625.588 402.883C618.011 398.339 610.433 395.31 594.975 395.31C610.433 393.796 618.617 396.825 626.194 401.369C638.015 408.639 643.471 422.27 646.805 430.449C647.411 432.266 648.017 433.781 648.623 434.993L649.533 437.113C664.687 469.828 693.178 530.715 656.807 552.526C652.867 555.252 647.714 556.464 642.258 556.464Z" fill="#343B43"/>
<path d="M533.145 403.792C524.658 403.792 516.172 401.369 509.504 394.401C504.957 389.858 501.017 383.799 497.683 376.226C493.136 365.624 490.409 352.599 490.105 340.179C491.924 352.599 494.349 365.321 498.895 375.62C501.926 382.891 505.866 388.949 510.413 393.19C522.84 405.61 541.329 403.186 554.968 396.825C559.817 394.401 565.576 393.19 571.638 393.19C565.879 394.704 560.424 395.916 555.574 398.036C548.906 401.672 541.026 403.792 533.145 403.792Z" fill="#343B43"/>
<path d="M527.385 456.197C512.534 454.985 502.532 447.412 491.62 439.536C466.766 421.058 450.096 384.708 446.459 341.693C451.309 384.102 467.979 420.15 492.226 438.325C502.835 446.201 513.14 453.774 527.385 454.682C528.295 455.894 527.992 456.197 527.385 456.197Z" fill="#343B43"/>
<path d="M567.395 367.745C566.183 365.624 565.577 361.383 567.092 360.474C568.002 359.869 569.82 360.474 571.336 361.08L572.851 351.993C574.367 352.296 572.548 361.989 572.548 361.989C570.123 361.686 568.608 361.08 568.002 361.383C567.699 361.686 567.699 364.412 568.305 366.836C567.395 367.442 567.395 367.745 567.395 367.745Z" fill="#343B43"/>
<path d="M483.134 344.42C482.831 336.847 482.831 318.066 478.588 314.734C473.435 310.493 471.011 309.584 464.343 314.734C464.039 315.036 463.433 315.339 462.827 315.642C460.705 317.157 458.281 318.974 458.281 321.095C458.281 322.609 459.19 324.124 461.312 325.639C464.343 328.365 468.889 326.547 475.557 319.883C471.92 325.336 465.252 330.788 460.402 326.547C457.977 324.427 456.765 322.609 457.068 320.792C457.068 318.066 460.099 315.945 462.221 314.431C462.827 314.128 463.13 313.825 463.736 313.522C470.708 308.069 474.042 308.675 479.8 313.522C485.559 318.066 484.044 342.602 484.044 343.814C483.741 344.117 483.438 344.42 483.134 344.42Z" fill="#343B43"/>
<path d="M536.479 545.255C526.78 545.255 518.596 537.38 518.596 527.383L517.99 470.434C517.99 465.588 519.809 461.044 523.143 457.712C526.477 454.38 531.023 452.259 535.873 452.259L609.525 451.653C609.525 453.168 535.873 453.471 535.873 453.471C531.326 453.471 527.386 455.288 524.355 458.318C521.324 461.347 519.506 465.588 519.506 470.131L520.112 527.08C520.112 536.168 527.689 543.438 536.782 543.438C537.085 543.438 607.403 542.529 607.403 542.529C606.797 544.65 536.479 545.255 536.479 545.255Z" fill="#343B43"/>
<path d="M568.303 506.179C557.998 504.664 537.691 484.369 535.872 478.916C534.963 475.887 536.478 473.766 537.994 472.858C537.085 471.04 537.085 469.223 538.6 467.708C539.206 467.102 539.812 466.799 540.419 466.496C541.631 466.193 542.843 466.193 544.359 467.102C544.662 467.405 568.607 505.573 568.607 505.573C568.607 506.179 568.607 506.179 568.303 506.179ZM541.934 467.405C540.722 467.708 540.116 468.011 539.812 468.617C538.6 469.828 538.6 471.343 539.509 472.555C539.206 473.766 536.175 475.281 537.085 478.613C538.6 483.46 556.483 501.332 566.485 504.361L543.45 467.708C543.146 467.708 542.54 467.405 541.934 467.405Z" fill="#343B43"/>
<path d="M559.514 481.339C557.392 480.128 553.755 477.099 552.543 475.887C553.452 474.675 560.12 479.825 560.12 479.825C560.12 481.339 559.817 481.339 559.514 481.339Z" fill="#343B43"/>
<path d="M553.149 476.19C550.118 474.069 547.996 471.949 546.784 470.737C544.359 468.314 541.935 466.496 541.935 464.073C541.935 462.861 542.541 461.65 543.45 460.741C547.087 457.409 550.421 460.438 552.543 462.558C552.846 462.861 553.452 463.467 554.361 464.376C556.786 466.799 560.12 470.131 562.242 471.646C561.939 473.161 553.149 476.19 553.149 476.19ZM546.784 461.044C545.875 461.044 545.269 461.347 544.359 462.255C543.45 462.861 543.147 463.77 543.147 464.376C543.147 466.193 544.966 468.011 546.481 469.223C548.3 471.04 550.421 472.858 552.846 474.978L560.12 472.555C557.999 470.737 555.271 468.011 553.149 465.89C552.543 465.285 551.937 464.679 551.33 464.073C549.815 461.953 548.3 461.044 546.784 461.044Z" fill="#343B43"/>
<path d="M586.489 479.825C586.186 479.825 574.062 476.493 574.062 476.493C573.759 477.099 573.153 477.401 572.547 477.704C570.425 478.613 567.091 477.401 561.332 472.858C561.938 471.646 573.456 474.675 573.456 474.675C573.759 473.464 573.153 471.646 572.243 468.617C570.728 464.679 570.728 460.741 571.94 458.923C572.547 458.015 573.153 457.409 574.062 457.409C578.305 456.803 579.518 460.135 580.427 462.861C580.73 463.467 580.73 464.073 581.033 464.679C581.639 465.588 581.942 467.102 582.549 468.617C583.761 471.949 585.277 476.493 587.095 478.613C587.095 479.825 586.792 479.825 586.489 479.825ZM574.971 475.281L584.973 478.007C583.458 475.584 582.246 471.949 581.336 469.223C580.73 467.708 580.427 466.193 579.821 465.285C579.518 464.679 579.215 464.073 579.215 463.467C578.305 460.438 577.396 458.62 574.365 459.226C573.759 459.226 573.456 459.529 573.153 460.135C572.243 461.65 572.243 465.285 573.759 468.617C574.668 471.343 575.274 473.463 574.971 475.281ZM565.575 474.069C568.909 476.19 571.031 477.099 572.243 476.493C572.85 476.19 565.575 474.069 565.575 474.069Z" fill="#343B43"/>
<path d="M554.664 488.307C554.361 488.004 550.42 485.277 546.177 481.642C543.146 479.219 539.812 474.978 538.6 473.766C539.509 472.555 543.752 477.704 547.086 480.431C551.33 483.763 554.967 486.792 554.967 486.792C555.27 488.004 554.967 488.307 554.664 488.307Z" fill="#343B43"/>
<path d="M450.098 343.814C447.673 343.511 446.764 342.602 446.764 341.39C446.764 340.785 447.37 339.876 447.976 339.573C448.279 341.996 449.795 342.299 450.401 342.602C450.704 343.511 450.401 343.814 450.098 343.814Z" fill="#343B43"/>
<path d="M477.982 345.328C477.982 343.814 481.62 343.511 481.62 343.511C488.894 342.299 490.409 340.785 490.409 340.482C490.409 339.876 489.803 339.573 488.288 338.967C486.772 338.664 484.044 338.058 483.438 338.058C484.651 336.544 488.288 337.453 488.591 337.453C489.5 337.755 491.622 338.361 491.622 340.179C491.622 342.299 488.288 343.814 481.62 344.723L477.982 345.328Z" fill="#343B43"/>
<path d="M437.67 481.339H403.117C403.117 479.825 437.064 479.825 437.064 479.825V445.898C438.579 445.898 438.579 480.431 438.579 480.431C438.579 481.037 437.973 481.339 437.67 481.339Z" fill="#343B43"/>
<path d="M63.3466 454.077C60.3157 452.562 59.4064 448.927 59.7095 444.383C60.3157 439.536 62.1342 436.204 65.1652 434.387C65.7714 434.084 66.6807 433.478 67.5899 433.175C68.8023 432.569 70.3178 432.266 71.8333 431.963C74.5611 431.358 77.289 430.449 79.1076 428.631C80.6231 427.117 81.5323 424.693 81.2292 421.664C78.1983 399.854 75.4704 388.04 75.1673 388.04C75.4704 381.982 78.1983 377.135 83.3509 373.803C88.8066 370.168 95.4747 370.471 96.9902 370.471C98.2026 369.562 99.415 368.956 101.234 368.047C109.114 364.715 118.813 366.836 123.966 368.047C126.087 368.653 129.118 369.562 131.24 371.985C133.968 374.712 134.574 378.953 134.877 382.89C135.483 390.161 135.18 390.463 134.877 390.766C134.271 391.069 132.452 391.069 132.452 391.069V389.555C133.665 388.949 133.665 387.434 133.362 383.193C133.059 379.255 132.149 375.62 130.028 372.894C128.209 370.774 125.481 369.865 123.36 369.259C118.51 367.745 108.811 365.927 101.537 368.956C99.7181 369.562 98.5057 370.471 97.5964 371.077C96.9902 371.077 90.019 370.471 84.2602 374.106C79.7138 377.135 76.9859 381.679 76.6828 387.131C76.9859 388.343 79.7138 400.157 82.7447 420.755C83.0478 424.088 82.4416 427.117 80.32 428.934C78.1983 431.055 75.1673 431.661 72.4395 432.569C70.924 432.872 69.7116 433.175 68.4992 433.781C67.5899 434.084 66.9838 434.387 66.3776 434.69C63.6497 436.507 61.8311 439.536 61.528 443.777C61.2249 446.201 61.2249 450.442 63.9528 451.956C63.6497 454.077 63.6497 454.077 63.3466 454.077Z" fill="#343B43"/>
<path d="M126.694 391.372C121.845 391.372 114.268 391.372 114.268 391.372V389.858C114.268 389.858 121.845 389.858 126.694 389.858C127.604 391.069 127.301 391.372 126.694 391.372Z" fill="#343B43"/>
<path d="M91.8379 453.471C82.442 453.471 72.7429 448.927 72.1367 448.624C73.046 447.412 90.9286 455.894 101.234 449.836C105.78 447.109 108.205 441.96 108.811 434.69C109.417 426.208 104.568 419.544 101.84 415.909C101.537 415.303 101.234 415 100.931 414.697C95.4751 406.821 99.1122 398.945 101.537 393.19C101.84 392.281 102.143 391.372 102.446 390.766C104.568 385.314 100.325 378.953 100.021 378.953C106.69 381.982 106.387 388.04 105.78 390.463H109.114C109.114 391.978 105.174 391.978 105.174 391.978C104.568 390.766 105.78 387.131 103.962 383.496C104.568 385.92 105.174 388.646 103.962 391.675C103.659 392.584 103.356 393.19 103.052 394.099C100.628 399.854 97.5967 407.124 102.446 414.394C102.749 414.697 103.052 415.303 103.356 415.606C106.386 419.544 110.933 426.511 110.63 435.296C110.024 443.171 107.296 448.624 102.446 451.653C99.1122 452.865 95.4751 453.471 91.8379 453.471Z" fill="#343B43"/>
<path d="M38.4932 566.157C61.2253 544.65 113.358 541.318 113.964 541.015C113.661 542.529 61.8315 545.861 39.0994 565.854C38.7963 566.157 38.7963 566.157 38.4932 566.157Z" fill="#343B43"/>
<path d="M21.8236 580.394C6.06266 550.708 27.8855 501.332 43.0403 476.796C46.6774 471.04 50.6177 464.679 55.4672 459.226C59.7105 454.077 65.7724 450.745 72.1374 447.412C66.6817 451.956 60.6198 455.288 56.6796 460.135C52.1332 465.588 47.8898 471.646 44.2527 477.401C30.0072 499.818 7.27504 550.405 22.4298 579.182C22.1267 580.091 22.1267 580.394 21.8236 580.394Z" fill="#343B43"/>
<path d="M170.34 488.609C169.43 487.701 169.127 486.792 168.824 486.186C157.913 460.741 143.97 447.412 124.875 443.474C123.36 443.172 118.813 442.263 118.813 442.263L119.117 440.748C119.117 440.748 123.663 441.657 125.178 441.96C144.273 445.898 159.125 460.135 170.037 485.58C170.34 486.186 170.643 486.792 170.946 487.398C170.643 488.609 170.643 488.609 170.34 488.609Z" fill="#343B43"/>
<path d="M120.329 430.146C119.42 430.146 118.814 430.146 118.207 430.146C115.783 429.843 112.145 429.54 109.721 428.934C112.449 428.026 115.783 428.328 118.207 428.631C120.632 428.934 122.451 428.631 123.966 428.328C126.391 427.42 128.21 425.602 129.422 422.573C130.634 418.938 130.937 415.606 130.937 411.971C132.453 415.909 132.15 419.241 130.634 423.179C129.422 426.814 127.3 428.934 124.269 430.146C123.057 429.843 121.541 430.146 120.329 430.146Z" fill="#343B43"/>
<path d="M115.782 458.62C111.841 458.62 105.173 450.745 103.961 448.927C108.507 452.259 114.266 458.015 116.085 457.106C118.51 456.197 118.813 447.11 118.51 441.657L119.116 429.54C120.631 429.54 120.025 441.657 120.025 441.657C120.328 444.08 120.934 456.803 116.691 458.318C116.388 458.62 116.085 458.62 115.782 458.62Z" fill="#343B43"/>
<path d="M127.604 443.172C131.847 435.296 125.482 428.631 125.482 428.631C126.695 427.723 133.666 435.296 128.21 442.869C127.907 443.172 127.604 443.172 127.604 443.172Z" fill="#343B43"/>
<path d="M67.5896 551.314C64.2556 525.566 78.5011 483.763 78.5011 483.46C79.7134 484.369 65.771 525.566 68.1958 550.708C67.8927 551.314 67.8927 551.314 67.5896 551.314Z" fill="#343B43"/>
<path d="M119.723 418.635C118.511 418.635 117.602 418.332 116.692 417.726C114.571 416.212 114.268 413.182 114.268 413.182C115.783 413.182 116.086 415.303 117.602 416.515C118.511 417.12 120.026 417.423 121.542 416.818C121.239 418.332 120.329 418.635 119.723 418.635Z" fill="#343B43"/>
<path d="M250.66 532.533C249.448 532.533 248.236 532.23 247.326 531.624C242.78 529.201 242.477 521.628 246.114 514.963C247.933 511.934 250.357 509.208 253.085 507.996C255.813 506.482 258.844 506.482 260.966 507.693C265.512 510.117 265.815 517.69 262.178 524.354C260.359 527.383 257.935 530.109 255.207 531.321C253.691 532.23 252.176 532.533 250.66 532.533ZM257.632 508.602C256.419 508.602 255.207 508.905 253.994 509.511C251.57 510.723 249.145 513.146 247.629 515.872C244.295 521.628 244.599 528.292 248.236 530.412C250.054 531.321 252.176 531.321 254.601 530.109C257.025 528.898 259.45 526.474 260.966 523.748C264.3 517.993 263.997 511.328 260.359 509.208C259.45 508.602 258.541 508.602 257.632 508.602Z" fill="#343B43"/>
<path d="M165.491 580.697C159.429 580.697 153.974 577.971 150.336 572.821C146.699 567.974 145.79 561.613 147.609 555.858L175.493 471.343C177.918 463.77 185.192 458.62 193.376 458.62H311.583C313.099 458.62 314.311 458.923 315.826 459.226C314.311 460.438 313.099 460.135 311.583 460.135H193.376C185.799 460.135 179.13 464.982 177.009 471.949L149.124 556.464C147.305 561.916 148.215 567.369 151.549 571.912C154.883 576.456 160.035 579.182 165.491 579.182C166.097 580.394 165.794 580.697 165.491 580.697Z" fill="#343B43"/>
<path d="M291.578 580.697H173.371C167.309 580.697 161.247 577.668 157.913 572.821C154.579 568.277 153.67 562.522 155.488 557.069L183.373 476.19C185.798 468.92 193.072 463.77 201.256 463.77H319.463C325.525 463.77 331.587 466.799 334.921 471.646C338.255 476.19 339.164 481.945 337.346 487.398L309.461 568.277C306.733 575.85 299.762 580.697 291.578 580.697ZM201.559 465.285C193.981 465.285 187.313 469.828 185.192 476.493L157.307 557.372C155.488 562.219 156.398 567.672 159.428 571.912C162.763 576.456 167.915 579.182 173.674 579.182H291.881C299.459 579.182 306.127 574.639 308.248 567.672L336.133 486.792C337.952 481.945 337.042 476.493 334.011 472.252C330.677 467.708 325.525 464.982 319.766 464.982H201.559V465.285Z" fill="#343B43"/>
<path d="M130.633 580.697C120.631 580.697 117.903 568.883 117.903 567.066C119.419 567.066 120.934 579.182 130.633 579.182C132.755 579.182 134.271 578.577 134.877 577.668C136.089 575.547 133.968 571.307 132.149 567.974C131.846 567.066 131.24 566.46 130.937 565.854C130.633 565.248 130.33 564.339 130.027 563.431C128.209 558.584 125.481 551.617 116.085 553.434C116.085 553.434 104.264 556.766 97.293 561.613C103.658 555.555 115.176 552.223 115.782 551.92C126.39 550.102 129.421 557.675 131.24 562.825C131.543 563.734 131.846 564.339 132.149 565.248C132.452 565.854 132.755 566.46 133.058 567.369C134.877 571.004 137.302 575.547 135.483 578.274C135.483 580.091 133.361 580.697 130.633 580.697Z" fill="#343B43"/>
<path d="M139.424 580.697C143.364 578.88 145.789 577.971 146.395 576.153C147.002 574.639 146.092 572.518 145.183 571.609C143.971 570.095 142.758 567.369 141.546 564.036C140.03 559.796 138.212 555.252 135.787 552.526C131.847 548.285 122.754 553.434 122.754 553.434C122.451 551.92 132.15 546.467 136.999 551.617C139.727 554.343 141.546 559.19 143.061 563.431C144.274 566.46 145.486 569.489 146.395 570.398C147.608 571.912 148.82 574.336 147.911 576.456C147.002 578.577 145.183 580.394 139.424 580.697Z" fill="#343B43"/>
<path d="M105.476 581C104.87 581 104.567 581 103.961 581C104.87 579.788 105.476 579.788 106.083 579.788C117.6 579.182 118.51 570.398 118.51 569.792C120.025 570.095 119.116 580.394 106.083 581C105.78 580.697 105.476 581 105.476 581Z" fill="#343B43"/>
<path d="M105.781 580.697C98.5069 576.153 94.8697 567.672 96.3852 559.19C98.2037 547.376 108.812 539.5 120.027 541.015C123.664 541.62 129.119 543.135 135.484 549.799C128.513 544.347 123.361 542.832 119.724 542.529C109.418 540.712 99.7192 548.588 97.9007 559.493C96.6883 567.369 100.022 575.245 106.387 579.485C106.387 580.697 106.084 580.697 105.781 580.697Z" fill="#343B43"/>
<path d="M148.517 555.555C147.911 554.949 146.698 551.011 143.97 549.799C140.333 548.285 135.787 551.92 135.787 551.92C135.181 550.708 140.03 546.467 144.577 548.285C148.214 549.799 149.426 554.343 149.426 554.343C148.82 555.555 148.82 555.555 148.517 555.555Z" fill="#343B43"/>
<path d="M152.456 580.091C148.819 580.091 146.395 577.365 146.395 577.365C147.607 576.759 150.941 580.697 156.094 577.668C155.184 579.788 153.669 580.091 152.456 580.091Z" fill="#343B43"/>
<path d="M145.788 550.708C157.003 506.179 147.607 479.219 147.607 479.219C149.122 478.916 158.821 506.482 146.697 550.405C146.394 550.708 146.091 550.708 145.788 550.708Z" fill="#343B43"/>
<path d="M325.828 466.496C325.525 466.496 315.22 460.438 315.22 460.438C315.826 459.226 326.434 464.982 326.434 464.982C326.434 466.496 326.131 466.496 325.828 466.496Z" fill="#343B43"/>
<path d="M254.903 442.263H191.859C191.253 441.354 202.165 410.153 202.165 410.153C203.377 410.759 192.769 440.748 192.769 440.748H254.903C255.812 441.96 255.509 442.263 254.903 442.263Z" fill="#343B43"/>
<path d="M270.968 397.734H220.351C220.351 396.219 270.968 396.219 270.968 396.219C271.574 397.431 271.271 397.734 270.968 397.734Z" fill="#343B43"/>
<path d="M254.903 442.263C254.297 441.96 253.994 441.657 254.297 441.354L270.058 396.825C271.27 397.431 255.509 441.96 255.509 441.96C255.509 441.96 255.206 442.263 254.903 442.263Z" fill="#343B43"/>
<path d="M112.448 412.577C108.811 412.577 105.477 407.427 105.477 401.066C105.174 394.401 108.205 389.252 111.842 388.949C115.782 388.949 118.813 394.099 119.116 400.46C119.116 407.124 116.388 412.577 112.448 412.577ZM111.842 390.463C108.811 390.463 106.386 395.31 106.689 401.066C106.992 406.518 109.417 411.365 112.448 411.365C115.479 411.365 117.904 406.518 117.601 400.763C117.298 395.007 114.873 390.463 111.842 390.463Z" fill="#343B43"/>
<path d="M130.331 412.577C129.119 412.577 128.209 412.274 127.3 411.365C129.119 411.062 129.725 411.365 130.634 411.365C133.665 411.365 135.787 406.518 135.787 400.763C135.484 395.31 133.059 390.463 130.028 390.463C126.997 390.463 124.572 395.31 124.875 401.066C124.875 403.186 125.178 404.701 125.785 406.518C123.663 405.307 123.36 403.489 123.36 401.066C123.057 394.401 126.088 389.252 129.725 388.949C133.665 388.949 136.696 394.099 136.999 400.46C136.999 407.124 134.271 412.577 130.331 412.577Z" fill="#343B43"/>
<path d="M123.359 402.58C122.753 401.974 120.935 400.46 118.51 402.277C120.631 398.945 123.056 400.46 123.966 401.369C123.662 402.277 123.662 402.58 123.359 402.58Z" fill="#343B43"/>
<path d="M323.403 94.2081C322.797 93.6022 322.797 88.7555 322.797 88.7555C329.162 89.3613 335.224 89.3613 340.983 87.5438C341.892 88.7555 341.892 91.1789 341.892 91.1789C340.376 91.1789 340.376 89.0584 340.376 89.0584C335.224 90.573 329.465 90.573 324.312 89.0584V93.2993C324.312 93.9051 324.009 94.2081 323.403 94.2081Z" fill="#343B43"/>
<path d="M332.496 90.2701C329.465 90.2701 326.434 89.6642 323.403 88.7555C311.279 84.8175 303.096 73.6095 303.096 60.8869C303.096 44.5292 316.432 31.5037 332.496 31.5037C348.863 31.5037 361.896 44.8321 361.896 60.8869C361.896 73.6095 353.713 85.1205 341.589 88.7555C338.558 89.6642 335.527 90.2701 332.496 90.2701ZM332.496 33.0183C317.038 33.0183 304.611 45.438 304.611 60.8869C304.611 73.0037 312.492 83.9088 324.009 87.5438C329.465 89.3613 335.527 89.3613 340.983 87.5438C352.5 83.9088 360.381 73.0037 360.381 60.8869C360.381 45.438 347.651 33.0183 332.496 33.0183Z" fill="#343B43"/>
<path d="M315.22 73.6095C316.129 72.0949 318.554 72.0949 320.069 70.8832C320.069 69.3686 319.766 69.0657 319.16 68.157C317.644 66.3394 317.038 63.9161 317.341 61.7956C317.341 60.8869 318.251 57.8577 319.766 56.9489C320.372 56.646 320.979 56.646 321.585 56.9489C322.797 57.5548 323.1 59.0694 323.403 59.9781C323.706 61.4927 324.009 62.7044 324.009 63.9161C324.009 65.1278 323.706 67.2482 322.797 69.3686C324.919 70.5803 327.95 70.8832 331.89 70.8832C334.315 70.8832 336.133 70.5803 337.649 69.9745C339.467 69.3686 341.286 68.157 342.195 66.6424C340.377 65.4307 339.164 63.9161 338.861 62.4015C338.861 61.4927 338.861 60.2811 339.467 59.3723C340.074 58.1606 340.68 57.5548 341.589 57.2519C342.498 56.9489 343.104 57.2519 343.711 57.5548C345.226 58.7665 345.226 61.4927 345.226 62.0986C345.226 63.6132 344.923 64.8248 344.317 66.0365C347.348 67.2482 350.985 67.2482 353.41 67.2482C350.076 68.7628 346.439 68.4599 343.408 67.2482C342.195 69.0657 340.377 70.5803 337.952 71.4891C336.133 72.0949 334.012 72.3978 331.587 72.7008C327.344 72.7008 324.009 72.0949 321.585 70.8832C321.282 71.1862 320.979 71.792 320.372 72.0949C319.16 73.3066 317.038 73.6095 315.22 73.6095ZM320.675 57.8577C319.463 58.4635 318.857 60.584 318.554 61.7956C318.251 63.6132 318.857 65.7336 320.069 67.2482C320.372 67.854 320.979 68.157 321.585 68.7628C322.191 67.5511 322.494 65.7336 322.494 63.9161C322.494 62.7044 322.494 61.7956 322.191 60.584C321.888 59.3723 321.282 58.4635 320.675 57.8577C320.675 58.1606 320.675 57.8577 320.675 57.8577ZM342.498 58.4635C341.589 58.7664 340.983 59.3723 340.983 59.9781C340.68 60.584 340.377 61.4927 340.68 62.0986C340.68 63.3102 341.589 64.5219 343.104 65.1278C343.711 64.219 344.014 63.0073 344.014 61.7956C344.014 60.584 343.711 58.7664 343.104 58.4635C342.801 58.4635 342.801 58.4635 342.498 58.4635Z" fill="#343B43"/>
<path d="M300.369 45.135C299.762 45.135 267.938 21.2044 267.938 21.2044C268.847 19.9927 300.672 43.9233 300.672 43.9233C300.672 45.135 300.369 45.135 300.369 45.135Z" fill="#343B43"/>
<path d="M272.483 96.0256C272.18 94.8139 302.186 75.1241 302.186 75.1241C303.095 76.3358 272.786 95.7226 272.786 95.7226C272.786 95.7226 272.786 96.0256 272.483 96.0256Z" fill="#343B43"/>
<path d="M332.193 24.8394C331.587 24.2336 331.587 0 331.587 0C333.102 0 333.102 24.2336 333.102 24.2336C333.102 24.5365 332.799 24.8394 332.193 24.8394Z" fill="#343B43"/>
<path d="M361.593 45.135C361.29 43.9233 377.657 34.8358 377.657 34.8358C378.263 36.0474 361.896 44.8321 361.896 44.8321C361.896 45.135 361.593 45.135 361.593 45.135Z" fill="#343B43"/>
<path d="M391.902 111.172C391.296 110.869 359.168 82.3942 359.168 82.3942C360.077 81.1825 392.508 109.96 392.508 109.96C392.205 111.172 391.902 111.172 391.902 111.172Z" fill="#343B43"/>
<path d="M436.457 76.0328C434.032 72.3978 430.698 73.3065 430.698 73.6094C431.911 71.7919 435.245 71.7919 437.063 75.124C436.76 76.0328 436.76 76.0328 436.457 76.0328Z" fill="#343B43"/>
<path d="M431.911 78.7591C431.305 78.7591 431.002 78.7591 430.699 80.8795C430.396 83.3029 431.002 83.6058 431.608 83.6058C432.214 83.6058 432.517 83 432.517 81.1825C432.517 79.6679 432.517 79.062 431.911 78.7591Z" fill="#343B43"/>
<path d="M433.124 122.077C432.518 121.471 432.518 115.412 432.518 115.412C434.033 115.412 433.73 121.168 433.73 121.168C434.033 121.774 433.73 122.077 433.124 122.077Z" fill="#343B43"/>
<path d="M499.501 204.774C498.895 184.175 497.986 166.909 497.986 166.909C497.683 161.456 494.955 154.489 491.924 148.128C489.499 142.978 486.771 139.04 483.437 136.314C479.194 132.679 474.95 130.558 470.404 130.255C460.099 129.044 438.579 129.044 438.579 129.044C434.032 129.347 430.092 129.953 425.849 131.77C419.484 134.496 414.028 139.949 409.785 148.128C406.754 153.883 404.026 160.245 401.601 166.303C400.692 168.12 400.086 170.241 399.177 172.058C397.661 175.996 395.842 179.934 392.508 182.661C388.871 185.69 384.022 185.993 380.385 183.872C376.444 181.752 375.232 177.814 374.02 173.876L368.867 157.821C367.352 152.672 365.533 147.522 364.017 142.372C362.502 137.223 360.683 131.77 359.168 126.62C362.199 131.164 363.714 136.617 365.533 141.766C367.048 146.916 368.867 152.066 370.382 157.215L375.535 173.27C376.747 176.905 377.96 180.54 381.294 182.358C384.628 184.175 388.871 183.872 391.902 181.146C394.933 178.723 396.752 174.785 398.267 171.15C399.177 169.332 399.783 167.212 400.692 165.394C403.117 159.336 405.845 152.974 408.876 146.916C413.422 138.434 419.181 132.679 425.546 129.953C430.092 127.832 434.033 127.529 438.882 127.226C439.185 127.226 460.402 127.226 471.01 128.438C476.163 129.044 480.406 131.164 484.953 135.102C488.287 138.131 491.318 142.069 493.742 147.522C496.773 154.186 499.804 160.85 500.107 166.909C500.107 167.212 501.017 184.478 501.017 204.168C500.107 204.471 499.804 204.774 499.501 204.774Z" fill="#343B43"/>
<path d="M380.991 235.066C368.261 235.066 355.834 231.128 345.832 221.131C334.315 209.317 328.556 193.263 324.616 179.025C320.675 164.788 318.554 151.763 316.129 138.131L315.22 133.285C316.735 132.982 317.341 137.828 317.341 137.828C319.766 151.46 321.888 164.485 325.828 178.723C329.768 192.657 335.224 208.712 346.742 220.223C364.321 238.095 390.994 236.277 409.785 226.887L411.907 225.978C439.489 209.317 447.066 172.361 447.066 172.058C448.279 172.664 440.701 210.226 412.513 227.493L410.392 228.401C401.905 232.036 391.297 235.066 380.991 235.066Z" fill="#343B43"/>
<path d="M521.626 204.774C514.352 182.358 500.107 155.701 485.255 138.131C501.016 155.095 515.564 181.752 522.232 203.865C521.626 204.774 521.626 204.774 521.626 204.774Z" fill="#343B43"/>
<path d="M432.821 115.715C422.819 115.715 420.091 110.566 419.485 107.839C418.575 104.507 420.394 96.3285 421 94.208C419.788 93.6022 416.757 91.4818 415.544 89.0584C414.938 87.5438 415.241 85.7263 416.454 84.8175C418.272 83.3029 423.122 80.5767 424.334 79.6679C424.637 77.5475 427.062 66.9453 428.274 64.8248C428.577 67.2482 426.456 76.9416 425.85 80.2737C425.546 80.8796 419.485 84.2117 417.666 86.0292C417.06 86.635 416.757 87.8467 417.06 88.7555C418.272 91.1788 422.212 93.6022 422.515 93.6022C422.819 94.511 420.394 104.507 421.303 107.839C422.212 111.172 425.85 116.624 441.004 113.595C437.67 115.412 435.245 115.715 432.821 115.715Z" fill="#343B43"/>
<path d="M455.855 98.146C453.127 98.146 450.4 96.9343 448.581 94.511C451.915 96.6314 455.855 97.5402 459.189 96.0256C461.008 95.1168 462.523 93.6022 463.433 91.4818C464.039 89.3613 464.039 87.2409 463.13 85.4234C461.311 81.4854 456.462 79.6679 452.521 81.4854C451.309 82.0913 450.097 83 449.49 84.2117C449.187 82.0913 450.703 80.8796 451.915 80.2738C456.765 78.1533 462.22 80.2738 464.342 84.8176C465.251 87.2409 465.554 89.6643 464.645 92.0876C463.736 94.511 461.917 96.3285 459.796 97.2373C458.583 97.8431 457.068 98.146 455.855 98.146Z" fill="#343B43"/>
<path d="M457.372 94.511C456.765 94.2081 451.31 89.3614 451.31 89.3614C451.31 88.1497 458.887 83.6059 458.887 83.6059C459.493 84.8176 452.825 88.7555 452.825 88.7555L457.675 92.9964C457.675 94.511 457.675 94.511 457.372 94.511Z" fill="#343B43"/>
<path d="M327.343 136.011C325.524 136.011 324.009 136.011 322.493 135.708C317.644 135.102 315.219 134.193 314.916 132.376C314.613 129.953 317.947 128.438 320.371 127.226C317.644 129.953 316.128 131.164 316.128 132.073C316.128 132.982 317.947 133.89 322.493 134.193C326.736 134.496 332.192 134.496 337.951 133.588C350.984 131.77 358.865 127.832 358.562 126.015C358.562 125.106 356.44 123.894 350.984 123.591C356.743 122.38 359.774 123.591 360.077 125.712C360.683 129.65 349.469 133.285 338.254 134.799C334.617 136.011 330.98 136.011 327.343 136.011Z" fill="#343B43"/>
<path d="M351.289 132.073C349.47 126.923 349.47 122.38 349.47 118.139C349.47 114.504 349.47 110.869 349.47 107.234C349.47 106.022 349.47 104.81 349.47 103.901C349.47 99.9635 350.379 96.0255 352.198 91.7846C352.501 91.1788 352.804 90.27 352.804 89.6642C352.501 88.4525 350.379 87.5438 348.864 87.5438C347.348 87.5438 345.53 88.1496 343.711 89.3613C340.377 92.0876 338.862 98.146 337.952 102.084C337.649 103.901 337.346 104.81 337.043 105.113C335.225 107.839 331.587 107.536 329.769 106.931C327.95 106.325 327.647 105.719 327.041 103.901C326.435 102.387 325.525 99.9635 323.404 95.4197C318.857 86.635 313.402 82.3941 307.946 83.6058C307.037 83.9087 305.521 84.8175 304.915 86.635C304.309 88.1496 304.915 90.27 306.127 92.0876C307.946 94.5109 310.977 99.9635 314.008 105.113C317.039 110.566 320.676 116.927 321.888 117.836C319.767 118.139 317.039 113.595 312.795 106.022C309.765 100.872 306.734 95.4197 304.915 92.9963C302.793 90.27 302.793 87.8467 303.4 86.3321C304.006 84.2116 306.127 82.6971 307.34 82.3941C310.977 81.4854 317.645 82.0912 324.313 94.8138C326.738 99.3576 327.647 101.781 328.253 103.296C328.86 104.81 328.86 104.81 330.072 105.416C331.284 106.022 334.315 106.325 335.528 104.204C335.831 103.901 335.831 102.69 336.134 101.478C337.043 97.5401 338.559 90.8759 342.499 87.8467C344.62 86.3321 346.742 85.7262 348.561 85.7262C350.379 85.7262 353.107 86.635 353.713 88.7554C354.016 89.9671 353.41 90.8759 353.107 91.7846C351.289 95.7226 350.379 99.3576 350.379 103.296C350.379 104.507 350.379 105.719 350.379 106.628C350.379 110.263 350.682 113.898 350.379 117.533C350.379 121.774 350.076 126.317 351.289 130.558C351.592 132.073 351.289 132.073 351.289 132.073Z" fill="#343B43"/>
<path d="M325.829 135.708C324.616 132.073 323.707 128.438 320.979 127.226C316.433 124.803 311.28 117.836 307.946 109.051C306.43 105.416 304.309 102.387 302.49 99.9635C300.065 96.6314 297.944 93.6022 298.55 90.8759C299.459 87.2409 302.793 86.0292 304.612 86.0292C304.612 87.5438 300.975 87.5438 300.065 91.1788C299.459 93.2992 301.278 95.7226 303.703 99.0547C305.824 101.781 307.946 104.81 309.461 108.748C312.795 117.23 317.645 124.197 321.888 126.317C325.222 127.832 326.435 132.073 326.738 135.405C325.829 135.708 325.829 135.708 325.829 135.708Z" fill="#343B43"/>
<path d="M462.523 119.653C461.917 119.047 461.008 107.536 461.008 107.536C462.523 107.536 463.129 119.047 463.129 119.047C462.523 119.653 462.523 119.653 462.523 119.653Z" fill="#343B43"/>
<path d="M457.978 109.051C457.372 109.051 457.069 109.051 456.462 108.748C452.825 107.537 452.522 102.084 452.825 99.6606C452.825 96.9343 453.431 96.9343 453.734 96.6314C454.341 98.4489 453.734 102.993 455.25 105.416C455.856 106.325 456.159 106.931 457.069 107.234C459.796 108.142 463.737 104.507 470.405 98.146L471.92 96.6314C480.104 89.0584 484.044 78.1533 481.316 70.5803C479.801 66.3394 476.467 63.6132 471.617 63.0073C477.073 62.0986 481.013 65.1278 482.529 69.9745C485.256 78.4562 481.316 89.3613 472.83 97.5402L471.314 99.0548C464.646 105.416 461.009 109.051 457.978 109.051Z" fill="#343B43"/>
<path d="M424.03 101.175C421.605 101.175 420.09 100.266 420.09 99.9635C420.999 98.7518 424.03 100.872 428.577 98.146C427.364 100.872 425.546 101.175 424.03 101.175Z" fill="#343B43"/>
<path d="M423.727 132.376C424.03 129.044 427.667 122.077 429.182 121.168C431.001 120.259 462.22 118.139 467.675 118.139C470.1 118.139 474.647 126.62 476.162 130.255C471.919 124.803 468.585 119.653 467.675 119.653C461.31 119.653 431.91 121.774 430.092 122.682C429.485 122.985 426.758 127.832 424.636 132.073C424.333 132.073 424.03 132.376 423.727 132.376Z" fill="#343B43"/>
<path d="M196.708 240.518C193.981 240.518 190.95 239.912 187.919 238.398C182.766 235.974 178.22 232.339 173.976 226.887C169.127 220.526 165.49 213.256 162.459 203.865C161.549 201.442 160.943 199.018 160.337 196.595C160.034 195.383 159.731 194.172 159.428 193.263C160.034 192.354 169.43 189.628 169.43 189.628C170.642 189.325 171.552 189.022 172.764 188.719C173.673 188.416 173.976 188.719 174.583 189.325C179.129 195.686 185.191 201.442 192.768 207.5C194.587 209.015 196.708 209.318 199.133 208.712C201.255 208.106 203.377 207.197 206.104 205.38C211.863 201.745 217.016 197.201 220.956 192.96C228.534 185.387 236.414 176.602 244.598 166.303C245.204 165.394 245.81 165.394 246.719 165.697C250.053 166.606 253.69 167.515 257.025 168.423L260.662 169.332C251.569 188.416 241.567 202.653 231.564 214.77C226.412 220.828 220.35 227.796 212.469 233.551C210.348 235.066 207.923 236.58 204.892 238.095C202.77 239.609 199.739 240.518 196.708 240.518ZM161.246 193.566C161.549 194.474 161.853 195.383 162.156 196.292C162.762 198.715 163.368 201.139 164.277 203.562C167.308 212.953 170.945 220.223 175.492 226.281C179.432 231.431 183.675 235.066 188.828 237.489C194.284 239.912 199.739 239.912 204.892 237.186C207.62 235.672 210.045 234.157 212.166 232.642C219.744 227.19 225.806 220.223 230.958 214.164C240.96 202.047 250.66 188.113 260.662 171.15L257.328 170.241C253.994 169.332 250.356 168.423 247.022 167.515C237.929 178.42 230.352 187.204 222.472 194.777C218.228 199.018 213.076 203.562 207.317 207.5C204.589 209.318 202.164 210.226 199.739 210.832C196.708 211.438 194.284 211.135 192.162 209.318C184.585 203.259 178.523 197.201 173.673 190.839C172.158 191.142 171.248 191.445 170.036 191.748L161.246 193.566Z" fill="#343B43"/>
<path d="M211.257 288.985C163.671 288.985 125.178 250.515 125.178 202.956C125.178 155.701 163.671 117.23 210.954 117.23C254.6 117.23 291.274 149.642 296.124 192.96C289.759 150.551 253.69 118.745 210.954 118.745C164.277 118.745 126.39 156.609 126.39 203.259C126.39 249.909 164.277 287.774 210.954 287.774C223.078 287.774 234.898 285.35 245.81 280.201C235.504 286.259 223.381 288.985 211.257 288.985Z" fill="#343B43"/>
<path d="M704.697 580.697H0C0 579.182 704.697 579.182 704.697 579.182C705.303 580.394 705 580.697 704.697 580.697Z" fill="#343B43"/>
<path d="M461.008 348.964C460.099 348.964 459.493 348.964 458.583 348.964C454.643 348.661 451.915 347.146 449.794 343.814C446.156 338.664 444.035 332.606 443.732 326.245C443.429 319.58 443.732 312.613 452.824 310.19C445.853 313.522 444.641 318.369 444.944 326.245C445.247 332.303 447.369 338.058 450.703 342.905C452.824 345.934 454.946 347.146 458.28 347.449C462.827 347.752 466.464 347.146 469.495 345.934C474.95 343.511 477.678 340.785 477.375 338.058C477.072 335.938 475.254 334.423 474.95 334.423C476.466 333.212 478.588 335.029 478.891 337.755C479.194 340.179 477.981 343.814 470.101 347.146C467.676 348.661 464.645 348.964 461.008 348.964Z" fill="#343B43"/>
<path d="M459.189 340.482C461.614 338.967 464.342 338.361 467.373 337.15C470.101 336.241 472.526 335.029 474.647 333.515C475.86 332.303 476.769 330.788 476.466 329.274C476.163 327.153 474.95 325.336 472.829 324.124C476.163 324.427 477.678 326.85 477.981 329.274C478.285 331.394 477.375 333.212 475.557 334.726C473.435 336.544 470.707 337.755 468.282 338.664C464.948 339.573 461.917 340.179 459.189 340.482Z" fill="#343B43"/>
<path d="M454.945 330.182C457.37 328.668 460.401 328.062 463.735 326.547C460.704 329.274 457.673 330.182 454.945 330.182Z" fill="#343B43"/>
<path d="M537.994 402.883C537.388 402.277 537.388 301.708 537.388 301.708C538.903 301.708 538.903 401.974 538.903 401.974C538.6 402.58 538.297 402.883 537.994 402.883Z" fill="#343B43"/>
<path d="M537.995 259.905C537.389 259.299 537.389 213.861 537.389 213.861C537.389 208.712 532.539 204.774 526.78 204.774H499.805C499.805 203.259 526.78 203.259 526.78 203.259C533.448 203.259 538.904 208.106 538.904 213.861V259.299C538.601 259.602 538.298 259.905 537.995 259.905Z" fill="#343B43"/>
<path d="M499.502 204.774H434.033C434.033 203.259 499.502 203.259 499.502 203.259C500.108 204.471 499.805 204.774 499.502 204.774Z" fill="#343B43"/>
<path d="M253.085 393.796C252.479 393.19 252.479 213.861 252.479 213.861C252.479 208.106 257.934 203.259 264.602 203.259H334.92C334.92 204.774 264.602 204.774 264.602 204.774C258.844 204.774 253.994 209.015 253.994 213.861V393.19C253.691 393.493 253.388 393.796 253.085 393.796Z" fill="#343B43"/>
<path d="M477.679 353.204C475.86 352.901 474.951 352.296 474.648 351.387L471.92 346.54C473.132 345.934 475.86 350.781 475.86 350.781C476.163 351.387 476.466 351.69 477.073 351.69C477.679 351.993 478.285 351.69 478.588 351.387C479.497 350.781 480.103 349.569 479.497 348.358L476.163 342.299C477.376 341.693 480.71 347.449 480.71 347.449C481.619 349.266 481.013 351.387 479.194 352.296C478.891 353.204 478.285 353.204 477.679 353.204Z" fill="#343B43"/>
<path d="M456.462 318.066C455.856 317.763 426.759 265.358 426.759 265.358C425.849 263.54 426.455 261.42 428.274 260.511C430.093 259.602 432.214 260.208 433.124 262.025L462.221 314.734C461.008 315.339 431.608 262.934 431.608 262.934C431.002 261.723 429.79 261.42 428.577 262.025C427.668 262.631 427.062 263.843 427.668 265.055L456.765 317.46C456.765 318.066 456.765 318.066 456.462 318.066Z" fill="#343B43"/>
<path d="M470.404 311.099C463.736 307.766 459.493 309.887 459.493 309.887C458.886 308.372 463.736 306.252 470.707 309.887C471.01 310.796 470.707 311.099 470.404 311.099Z" fill="#343B43"/>
<path d="M415.24 551.92H319.159C319.159 550.405 415.24 550.405 415.24 550.405C415.847 551.617 415.544 551.92 415.24 551.92Z" fill="#343B43"/>
<path d="M528.598 551.92H488.59C488.59 550.405 528.598 550.405 528.598 550.405C529.205 551.617 528.901 551.92 528.598 551.92Z" fill="#343B43"/>
<path d="M125.784 413.788C127.603 409.85 127.603 408.942 127.299 408.639C127.299 408.336 126.39 408.033 125.481 407.73C124.572 407.427 123.359 407.124 123.056 406.518C121.844 404.701 122.753 398.037 123.056 396.825C123.965 399.854 123.662 404.701 124.268 405.912C124.572 406.215 125.178 406.518 125.784 406.518C126.693 406.821 128.209 407.124 128.512 408.336C128.815 409.547 128.209 411.365 126.087 413.788C126.39 413.788 126.087 413.788 125.784 413.788Z" fill="#343B43"/>
<path d="M452.521 318.974C452.521 317.46 458.887 316.854 461.008 314.431C459.493 318.066 453.128 318.672 452.521 318.974C452.825 318.974 452.825 318.974 452.521 318.974Z" fill="#343B43"/>
<path d="M426.153 76.0328C425.547 75.7299 418.273 69.6715 417.97 61.4927C417.97 56.9489 420.091 52.708 424.335 48.7701C427.366 46.3467 430.397 45.135 434.034 45.438C441.611 46.0438 447.673 53.3139 447.976 53.6168C446.764 54.5255 441.005 47.2555 434.034 46.6496C431.003 46.3467 428.275 47.2555 425.547 49.6788C421.607 53.3139 419.485 56.9489 419.485 61.1898C419.485 68.4599 426.456 74.2153 426.76 74.2153C426.456 76.0328 426.153 76.0328 426.153 76.0328Z" fill="#343B43"/>
<path d="M471.616 63.0073C471.01 62.4015 464.645 49.3759 453.733 47.5584C443.125 45.7409 441.609 49.073 441.609 49.073C440.397 48.1643 442.216 43.9234 454.036 46.0438C465.857 48.1643 471.919 61.4927 472.222 62.0986C471.919 63.0073 471.919 63.0073 471.616 63.0073Z" fill="#343B43"/>
<path d="M449.492 83.9088C447.37 83.6059 445.854 82.6971 445.248 81.1825C443.733 78.4562 444.945 74.2154 445.551 73.3066C441.914 66.6424 427.062 64.8249 427.062 64.5219C427.972 63.3103 443.43 65.1278 447.067 72.7008C447.067 73.3066 445.248 77.8504 446.764 80.2738C447.37 81.1825 448.279 82.0913 450.098 82.0913C450.098 83.6059 449.795 83.9088 449.492 83.9088Z" fill="#343B43"/>
<path d="M655.293 361.383C655.899 358.051 657.112 355.628 658.324 352.901C658.324 356.234 657.112 358.657 655.899 360.777C655.596 361.383 655.596 361.383 655.293 361.383ZM662.567 346.54C662.87 343.208 664.083 340.482 665.295 338.058C665.598 341.39 664.386 343.814 663.477 346.237C663.173 346.54 662.87 346.54 662.567 346.54ZM668.932 331.394C668.326 331.091 668.023 330.788 668.326 330.485C669.235 327.759 670.145 325.336 671.054 322.609C671.66 325.639 670.751 328.365 669.539 330.788C669.539 331.091 669.235 331.394 668.932 331.394ZM674.085 315.642C673.479 315.642 673.176 315.036 673.479 314.734C674.388 312.007 674.994 309.281 675.6 306.858C676.207 309.887 675.6 312.613 674.691 315.339C674.691 315.339 674.388 315.642 674.085 315.642ZM678.025 299.588C678.025 295.953 678.328 293.226 678.935 290.5C679.844 293.226 679.238 295.953 678.631 298.982C678.935 299.285 678.631 299.588 678.025 299.588ZM681.056 283.23C680.753 279.595 681.056 276.869 681.056 274.142C682.269 277.172 681.965 279.898 681.662 282.624C681.662 282.927 681.359 283.23 681.056 283.23ZM682.269 266.872C681.662 264.449 681.662 262.934 681.662 261.42C681.662 260.208 681.662 258.996 681.662 257.785C683.178 258.996 683.178 260.208 683.178 261.42C683.178 262.934 683.178 264.449 683.178 266.266C682.875 266.569 682.572 266.872 682.269 266.872ZM681.965 250.212C681.056 246.88 680.753 244.153 680.45 241.427C682.269 243.85 682.572 246.577 682.875 249.606C681.965 250.212 681.965 250.212 681.965 250.212ZM679.541 233.854C678.328 230.522 677.722 227.796 676.813 225.372C678.935 227.796 679.541 230.522 680.147 232.945C679.541 233.854 679.541 233.854 679.541 233.854ZM675.297 218.102C673.782 215.073 672.57 212.347 671.66 209.923C674.085 211.741 674.994 214.467 675.904 217.193C675.297 218.102 675.297 218.102 675.297 218.102Z" fill="#343B43"/>
<path d="M656.809 183.872C655.899 183.266 655.596 182.661 655.293 182.358C656.809 182.055 657.112 182.358 657.415 182.661C657.112 183.872 656.809 183.872 656.809 183.872ZM650.444 175.996C648.019 173.573 646.2 171.755 644.382 169.938C647.413 170.847 649.231 172.967 651.05 174.785C650.747 175.996 650.444 175.996 650.444 175.996ZM638.623 164.788C636.198 162.971 633.773 161.153 631.652 159.639C634.683 159.942 637.107 161.759 638.926 163.577C638.926 164.485 638.623 164.788 638.623 164.788ZM624.984 155.095C622.256 153.58 619.831 152.369 617.406 151.157C620.437 151.157 622.862 152.369 625.287 153.883C625.59 155.095 625.287 155.095 624.984 155.095ZM610.435 147.825C607.707 146.613 604.979 145.704 602.555 145.099C605.585 144.493 608.313 145.401 610.738 146.613C610.738 147.522 610.738 147.825 610.435 147.825ZM594.674 142.675C591.946 142.069 589.218 141.463 586.49 141.161C589.521 140.252 592.249 140.858 594.977 141.463C595.28 142.372 594.977 142.675 594.674 142.675ZM537.086 142.372C537.086 140.858 539.814 140.252 544.966 139.343C540.42 141.766 537.389 142.372 537.086 142.372C537.389 142.372 537.389 142.372 537.086 142.372ZM578.307 139.949C575.579 139.646 572.851 139.343 570.123 139.343C572.851 138.131 575.882 138.131 578.61 138.434C578.913 139.646 578.61 139.949 578.307 139.949ZM553.453 139.949C556.181 138.131 558.909 138.131 561.637 138.131C558.909 139.343 556.181 139.646 553.453 139.949Z" fill="#343B43"/>
<path d="M437.063 516.478C417.362 516.478 400.995 500.423 400.995 480.431C400.995 460.741 417.059 444.383 437.063 444.383C456.765 444.383 473.132 460.438 473.132 480.431C473.132 483.46 472.829 486.489 471.919 489.518C471.313 486.489 471.616 483.46 471.616 480.431C471.616 461.347 456.159 445.898 437.063 445.898C417.968 445.898 402.511 461.347 402.511 480.431C402.511 499.515 417.968 514.963 437.063 514.963C442.822 514.963 448.581 513.449 453.734 510.723C449.187 514.964 443.428 516.478 437.063 516.478Z" fill="#343B43"/>
<path d="M60.3168 416.212C58.8013 415.303 57.589 414.697 56.3766 413.788C58.1952 413.485 59.4075 414.091 60.6199 415C60.923 415.909 60.6199 416.212 60.3168 416.212ZM50.6178 408.336C48.193 406.215 46.3744 404.095 44.859 401.672C47.5868 403.186 49.4054 405.307 51.224 407.124C50.9209 408.336 50.6178 408.336 50.6178 408.336ZM41.2218 395.007C39.4032 392.281 38.1909 389.858 37.2816 387.131C39.7063 389.252 40.9187 391.675 42.1311 394.099C41.2218 395.007 41.2218 395.007 41.2218 395.007ZM34.8568 379.558C33.3413 376.529 32.7351 373.803 32.129 371.077C34.2506 373.5 34.8568 376.226 35.7661 378.65C35.1599 379.558 35.1599 379.558 34.8568 379.558ZM31.2197 363.504C30.3104 361.08 30.0073 359.263 29.7042 357.445C29.7042 356.537 29.4011 355.628 29.4011 354.719C30.9166 355.325 31.2197 356.234 31.2197 357.142C31.5228 358.96 31.8259 360.777 32.129 362.595C31.2197 363.504 31.2197 363.504 31.2197 363.504ZM29.098 347.146C28.1887 343.814 27.8856 341.088 27.8856 338.361C29.4011 341.088 29.7042 343.814 30.0073 346.54C29.098 347.146 29.098 347.146 29.098 347.146ZM28.1887 330.788C27.5825 327.456 27.5825 324.427 27.8856 321.701C29.098 324.427 29.098 327.153 29.098 329.88C29.098 330.485 28.7949 330.788 28.1887 330.788ZM29.4011 314.128C29.098 310.493 29.4011 307.766 30.0073 305.04C30.9166 308.069 30.6135 310.796 30.3104 313.522C30.0073 313.825 29.7042 314.128 29.4011 314.128ZM32.129 297.77C32.129 294.135 32.7351 291.409 33.6444 288.985C34.2506 292.015 33.3413 294.741 32.7351 297.467C32.7351 297.77 32.432 297.77 32.129 297.77Z" fill="#343B43"/>
<path d="M47.5869 262.026C48.4962 258.996 50.0117 256.876 51.2241 255.058C50.921 257.785 49.4055 259.905 47.89 261.723C48.1931 262.026 47.89 262.026 47.5869 262.026ZM57.286 249.909C58.4983 246.577 60.62 244.759 62.4386 242.639C61.5293 245.668 59.4076 247.485 57.8922 249.606C57.5891 249.606 57.5891 249.909 57.286 249.909ZM69.1067 238.398C70.6222 235.369 73.0469 233.551 75.1686 232.036C73.9562 234.763 71.5315 236.58 69.7129 238.398C69.4098 238.095 69.4098 238.398 69.1067 238.398ZM82.4429 228.401C84.2615 225.675 86.6862 224.161 89.111 222.646C87.5955 225.372 85.1707 226.584 82.746 228.099C82.746 228.401 82.4429 228.401 82.4429 228.401ZM96.6884 220.223C98.81 217.799 101.538 216.588 103.963 215.376C101.841 217.799 99.4162 218.708 96.9915 219.92C96.9915 220.223 96.9915 220.223 96.6884 220.223ZM112.146 214.164C114.571 212.044 117.299 211.135 120.027 210.529C117.602 212.65 114.874 213.255 112.146 214.164Z" fill="#343B43"/>
<path d="M339.467 95.7226H324.312C324.312 94.208 339.467 94.208 339.467 94.208C340.073 95.4197 339.77 95.7226 339.467 95.7226Z" fill="#343B43"/>
<path d="M337.042 102.69H327.343C327.343 101.175 337.042 101.175 337.042 101.175C337.951 102.387 337.648 102.69 337.042 102.69Z" fill="#343B43"/>
<path d="M405.846 229.613C402.512 219.011 392.206 212.044 380.689 212.044C369.777 212.044 360.078 218.405 356.744 227.796C358.866 217.193 369.171 210.529 380.689 210.529C392.813 210.529 403.421 218.102 406.452 228.704C406.149 229.613 406.149 229.613 405.846 229.613Z" fill="#343B43"/>
<path d="M664.992 206.894C658.627 206.894 653.171 201.745 653.171 195.08C653.171 188.719 658.324 183.266 664.992 183.266C671.357 183.266 676.812 188.416 676.812 195.08C676.509 201.745 671.357 206.894 664.992 206.894ZM664.992 185.084C659.233 185.084 654.686 189.628 654.686 195.383C654.686 201.139 659.233 205.682 664.992 205.682C670.75 205.682 675.297 201.139 675.297 195.383C675.297 189.628 670.447 185.084 664.992 185.084Z" fill="#343B43"/>
<path d="M38.4926 285.653C32.1276 285.653 26.6719 280.504 26.6719 273.839C26.6719 267.478 31.8245 262.026 38.4926 262.026C44.8576 262.026 50.3133 267.175 50.3133 273.839C50.3133 280.504 45.1607 285.653 38.4926 285.653ZM38.4926 263.843C32.7338 263.843 28.1874 268.387 28.1874 274.142C28.1874 279.898 32.7338 284.442 38.4926 284.442C44.2514 284.442 48.7978 279.898 48.7978 274.142C48.7978 268.387 44.2514 263.843 38.4926 263.843Z" fill="#343B43"/>
<defs>
<linearGradient id="paint0_linear" x1="135.18" y1="266.792" x2="298.065" y2="160.27" gradientUnits="userSpaceOnUse">
<stop stop-color="#234DAE"/>
<stop offset="1" stop-color="#347BCE"/>
</linearGradient>
<linearGradient id="paint1_linear" x1="17.4961" y1="551.393" x2="154.8" y2="452.123" gradientUnits="userSpaceOnUse">
<stop stop-color="#234DAE"/>
<stop offset="1" stop-color="#347BCE"/>
</linearGradient>
<linearGradient id="paint2_linear" x1="418.701" y1="95.8399" x2="478.688" y2="55.1787" gradientUnits="userSpaceOnUse">
<stop stop-color="#234DAE"/>
<stop offset="1" stop-color="#347BCE"/>
</linearGradient>
<linearGradient id="paint3_linear" x1="447.033" y1="530.127" x2="673.37" y2="391.906" gradientUnits="userSpaceOnUse">
<stop stop-color="#234DAE"/>
<stop offset="1" stop-color="#347BCE"/>
</linearGradient>
<linearGradient id="paint4_linear" x1="395.475" y1="469.034" x2="430.288" y2="446.235" gradientUnits="userSpaceOnUse">
<stop stop-color="#234DAE"/>
<stop offset="1" stop-color="#347BCE"/>
</linearGradient>
<linearGradient id="paint5_linear" x1="254.156" y1="538.136" x2="247.615" y2="513.901" gradientUnits="userSpaceOnUse">
<stop stop-color="#234DAE"/>
<stop offset="1" stop-color="#347BCE"/>
</linearGradient>
<linearGradient id="paint6_linear" x1="437.215" y1="114.504" x2="437.215" y2="120.865" gradientUnits="userSpaceOnUse">
<stop stop-color="#F0F0F0"/>
<stop offset="1" stop-color="#F0F0F0" stop-opacity="0"/>
</linearGradient>
<linearGradient id="paint7_linear" x1="291.578" y1="71.1646" x2="352.443" y2="31.361" gradientUnits="userSpaceOnUse">
<stop stop-color="#234DAE"/>
<stop offset="1" stop-color="#347BCE"/>
</linearGradient>
<linearGradient id="paint8_linear" x1="338.86" y1="293.056" x2="357.163" y2="283.615" gradientUnits="userSpaceOnUse">
<stop stop-color="#234DAE"/>
<stop offset="1" stop-color="#347BCE"/>
</linearGradient>
<linearGradient id="paint9_linear" x1="356.138" y1="229.82" x2="378.603" y2="198.032" gradientUnits="userSpaceOnUse">
<stop stop-color="#234DAE"/>
<stop offset="1" stop-color="#347BCE"/>
</linearGradient>
</defs>
</svg>
