<svg width="298" height="161" viewBox="0 0 298 161" fill="none" xmlns="http://www.w3.org/2000/svg">
<path d="M297.5 68.5528L297.5 19.4472L257.5 0.552971L217.5 19.4472L217.5 68.5528L257.5 87.447L297.5 68.5528Z" stroke="#F0F0F0"/>
<path d="M170.5 -3.20205e-06L211 19.1304L211 68.8696L170.5 88L130 68.8696L130 19.1304L170.5 -3.20205e-06Z" fill="#F0F0F0"/>
<path d="M214.5 73L255 92.1304L255 141.87L214.5 161L174 141.87L174 92.1304L214.5 73Z" fill="#F0F0F0"/>
<path d="M167.5 141.553L167.5 92.4472L127.5 73.553L87.5 92.4472L87.5 141.553L127.5 160.447L167.5 141.553Z" stroke="#F0F0F0"/>
<path d="M40.5 73L81 92.1304L81 141.87L40.5 161L-6.65737e-06 141.87L-1.84927e-06 92.1304L40.5 73Z" fill="#F0F0F0"/>
</svg>
