<svg width="559" height="162" viewBox="0 0 559 162" fill="none" xmlns="http://www.w3.org/2000/svg">
<path d="M344.5 88L304 68.8696V19.1304L344.5 0L385 19.1304V68.8696L344.5 88Z" fill="#F0F0F0"/>
<path d="M391.5 19.4472V68.5528L431.5 87.447L471.5 68.5528V19.4472L431.5 0.552979L391.5 19.4472Z" stroke="#F0F0F0"/>
<path d="M478.5 19.4472V68.5528L518.5 87.447L558.5 68.5528V19.4472L518.5 0.552979L478.5 19.4472Z" stroke="#F0F0F0"/>
<path d="M214.5 74L255 93.1304L255 142.87L214.5 162L174 142.87L174 93.1304L214.5 74Z" fill="#F0F0F0"/>
<path d="M167.5 142.553L167.5 93.4472L127.5 74.553L87.5 93.4472L87.5 142.553L127.5 161.447L167.5 142.553Z" stroke="#F0F0F0"/>
<path d="M80.5 142.553L80.5 93.4472L40.5 74.553L0.500002 93.4472L0.500006 142.553L40.5 161.447L80.5 142.553Z" stroke="#F0F0F0"/>
<path d="M217.5 19.4472V68.5528L257.5 87.447L297.5 68.5528V19.4472L257.5 0.552979L217.5 19.4472Z" stroke="#F0F0F0"/>
</svg>
