<svg width="471" height="542" viewBox="0 0 471 542" fill="none" xmlns="http://www.w3.org/2000/svg">
<path d="M431.5 71.4972L431.5 259.503L278.5 330.449L125.5 259.503L125.5 71.4972L278.5 0.55113L431.5 71.4972Z" fill="#FAFAFA" stroke="url(#paint0_linear)"/>
<path d="M277.5 331.164L277.5 483.835L153.5 541.449L29.5 483.835L29.5 331.165L153.5 273.551L277.5 331.164Z" fill="#FAFAFA" stroke="url(#paint1_linear)"/>
<path d="M470.5 229.168L470.5 275.832L432.5 293.449L394.5 275.832L394.5 229.168L432.5 211.551L470.5 229.168Z" fill="white" stroke="url(#paint2_linear)"/>
<path d="M274.5 300L246 313.332L246 348.668L274.5 362L303 348.668L303 313.332L274.5 300Z" fill="url(#paint3_linear)"/>
<path d="M148.5 312.466L148.5 221.534L74.5 186.553L0.500012 221.534L0.500004 312.466L74.5 347.447L148.5 312.466Z" fill="white" stroke="url(#paint4_linear)"/>
<defs>
<linearGradient id="paint0_linear" x1="278.5" y1="331" x2="278.5" y2="-1.70982e-05" gradientUnits="userSpaceOnUse">
<stop stop-color="#F0F0F0"/>
<stop offset="1" stop-color="#F0F0F0" stop-opacity="0"/>
</linearGradient>
<linearGradient id="paint1_linear" x1="278" y1="327.778" x2="41.3133" y2="509.383" gradientUnits="userSpaceOnUse">
<stop stop-color="white"/>
<stop offset="1" stop-color="#D2E1F2"/>
</linearGradient>
<linearGradient id="paint2_linear" x1="432.5" y1="294" x2="432.5" y2="211" gradientUnits="userSpaceOnUse">
<stop stop-color="#F0F0F0"/>
<stop offset="1" stop-color="#F0F0F0" stop-opacity="0"/>
</linearGradient>
<linearGradient id="paint3_linear" x1="246" y1="349.284" x2="303.173" y2="314.929" gradientUnits="userSpaceOnUse">
<stop stop-color="#234DAE"/>
<stop offset="1" stop-color="#347BCE"/>
</linearGradient>
<linearGradient id="paint4_linear" x1="74.5" y1="186" x2="74.5" y2="348" gradientUnits="userSpaceOnUse">
<stop stop-color="#F0F0F0"/>
<stop offset="1" stop-color="#F0F0F0" stop-opacity="0"/>
</linearGradient>
</defs>
</svg>
