<svg width="298" height="234" viewBox="0 0 298 234" fill="none" xmlns="http://www.w3.org/2000/svg">
<path d="M211.5 214.553L211.5 165.447L171.5 146.553L131.5 165.447L131.5 214.553L171.5 233.447L211.5 214.553Z" stroke="#F0F0F0"/>
<path d="M84.5 146L125 165.13L125 214.87L84.5 234L44 214.87L44 165.13L84.5 146Z" fill="#F0F0F0"/>
<path d="M297.5 68.5528L297.5 19.4472L257.5 0.552971L217.5 19.4472L217.5 68.5528L257.5 87.447L297.5 68.5528Z" stroke="#F0F0F0"/>
<path d="M170.5 -3.54062e-06L211 19.1304L211 68.8696L170.5 88L130 68.8696L130 19.1304L170.5 -3.54062e-06Z" fill="#F0F0F0"/>
<path d="M254.5 141.553L254.5 92.4472L214.5 73.553L174.5 92.4472L174.5 141.553L214.5 160.447L254.5 141.553Z" stroke="#F0F0F0"/>
<path d="M127.5 73L168 92.1304L168 141.87L127.5 161L87 141.87L87 92.1304L127.5 73Z" fill="#F0F0F0"/>
<path d="M80.5 141.553L80.5 92.4472L40.5 73.553L0.499998 92.4472L0.499994 141.553L40.5 160.447L80.5 141.553Z" stroke="#F0F0F0"/>
</svg>
