<svg width="12" height="25" viewBox="0 0 12 25" fill="none" xmlns="http://www.w3.org/2000/svg">
<path d="M2.44609 4.6965C2.44609 5.30762 2.44609 8.03528 2.44609 8.03528H0V12.118H2.44609V24.2502H7.47087V12.1183H10.8427C10.8427 12.1183 11.1585 10.1607 11.3116 8.02023C10.8727 8.02023 7.48987 8.02023 7.48987 8.02023C7.48987 8.02023 7.48987 5.64506 7.48987 5.22874C7.48987 4.81152 8.03773 4.2503 8.57921 4.2503C9.11968 4.2503 10.2604 4.2503 11.3169 4.2503C11.3169 3.69444 11.3169 1.77381 11.3169 1.45839e-08C9.90648 1.45839e-08 8.30187 1.45839e-08 7.59457 1.45839e-08C2.32188 -0.000281892 2.44609 4.08646 2.44609 4.6965Z" fill="url(#paint0_linear)"/>
<defs>
<linearGradient id="paint0_linear" x1="-5.09642e-07" y1="19.2765" x2="14.1348" y2="14.9652" gradientUnits="userSpaceOnUse">
<stop stop-color="#234DAE"/>
<stop offset="1" stop-color="#347BCE"/>
</linearGradient>
</defs>
</svg>
