<svg width="24" height="25" viewBox="0 0 24 25" fill="none" xmlns="http://www.w3.org/2000/svg">
<path d="M14.1093 12.25C14.1093 13.4149 13.1648 14.3594 11.9999 14.3594C10.835 14.3594 9.8905 13.4149 9.8905 12.25C9.8905 11.0851 10.835 10.1406 11.9999 10.1406C13.1648 10.1406 14.1093 11.0851 14.1093 12.25Z" fill="white"/>
<path d="M15.5625 5.875H8.4375C6.8866 5.875 5.625 7.1366 5.625 8.6875V15.8125C5.625 17.3634 6.8866 18.625 8.4375 18.625H15.5625C17.1134 18.625 18.375 17.3634 18.375 15.8125V8.6875C18.375 7.1366 17.1134 5.875 15.5625 5.875ZM12 15.7656C10.0615 15.7656 8.48438 14.1885 8.48438 12.25C8.48438 10.3115 10.0615 8.73438 12 8.73438C13.9385 8.73438 15.5156 10.3115 15.5156 12.25C15.5156 14.1885 13.9385 15.7656 12 15.7656ZM16.0313 8.92188C15.6429 8.92188 15.3281 8.60712 15.3281 8.21875C15.3281 7.83038 15.6429 7.51563 16.0313 7.51563C16.4196 7.51563 16.7344 7.83038 16.7344 8.21875C16.7344 8.60712 16.4196 8.92188 16.0313 8.92188Z" fill="url(#paint0_linear)"/>
<path d="M17.6719 0.25H6.32812C2.83887 0.25 0 3.08887 0 6.57812V17.9219C0 21.4111 2.83887 24.25 6.32812 24.25H17.6719C21.1611 24.25 24 21.4111 24 17.9219V6.57812C24 3.08887 21.1611 0.25 17.6719 0.25ZM19.7812 15.8125C19.7812 18.1387 17.8887 20.0312 15.5625 20.0312H8.4375C6.11133 20.0312 4.21875 18.1387 4.21875 15.8125V8.6875C4.21875 6.36133 6.11133 4.46875 8.4375 4.46875H15.5625C17.8887 4.46875 19.7812 6.36133 19.7812 8.6875V15.8125Z" fill="url(#paint1_linear)"/>
<defs>
<linearGradient id="paint0_linear" x1="5.625" y1="16.01" x2="17.8213" y2="8.03862" gradientUnits="userSpaceOnUse">
<stop stop-color="#234DAE"/>
<stop offset="1" stop-color="#347BCE"/>
</linearGradient>
<linearGradient id="paint1_linear" x1="-1.08081e-06" y1="19.3276" x2="22.9577" y2="4.32269" gradientUnits="userSpaceOnUse">
<stop stop-color="#234DAE"/>
<stop offset="1" stop-color="#347BCE"/>
</linearGradient>
</defs>
</svg>
